<?xml version="1.0" standalone="no"?>
<!DOCTYPE svg PUBLIC "-//W3C//DTD SVG 1.1//EN" "http://www.w3.org/Graphics/SVG/1.1/DTD/svg11.dtd" >
<svg xmlns="http://www.w3.org/2000/svg" xmlns:xlink="http://www.w3.org/1999/xlink" version="1.1">
<metadata>
Created by FontForge 20201107 at Wed Jul  7 18:29:52 1993
 By 
This is a copyrighted typeface program. Duplication prohibited.
</metadata>
<defs>
<font id="Bauhaus-Italic" horiz-adv-x="500" >
  <font-face 
    font-family="Bauhaus"
    font-weight="400"
    font-style="italic"
    font-stretch="normal"
    units-per-em="1000"
    panose-1="0 0 0 0 0 0 0 0 0 0"
    ascent="800"
    descent="-200"
    x-height="454"
    cap-height="667"
    bbox="-180 -250 1166 914"
    underline-thickness="56"
    underline-position="-126"
    unicode-range="U+0020-F002"
  />
<missing-glyph horiz-adv-x="776" 
d="M48 0v776h680v-776h-680zM680 48v680h-584v-680h584z" />
    <glyph glyph-name=".notdef" horiz-adv-x="776" 
d="M48 0v776h680v-776h-680zM680 48v680h-584v-680h584z" />
    <glyph glyph-name=".null" horiz-adv-x="0" 
 />
    <glyph glyph-name="nonmarkingreturn" horiz-adv-x="300" 
 />
    <glyph glyph-name="space" unicode=" " horiz-adv-x="300" 
 />
    <glyph glyph-name="exclam" unicode="!" horiz-adv-x="197" 
d="M122 109q22 0 35 -13t13 -34q0 -8 -3 -22.5t-24 -31.5t-46 -17q-21 0 -34 13t-13 34q0 8 3 23t23 31.5t46 16.5zM93 151l104 516h91l-117 -516h-78z" />
    <glyph glyph-name="quotedbl" unicode="&#x22;" horiz-adv-x="342" 
d="M210 400h-64l43 267h93zM366 400h-64l43 267h93z" />
    <glyph glyph-name="numbersign" unicode="#" horiz-adv-x="556" 
d="M582 300l-14 -63h-118l-85 -237h-63l85 237h-147l-86 -237h-62l86 237h-117l14 63h126l54 145h-119l13 63h128l80 221h62l-80 -221h146l79 221h64l-80 -221h105l-13 -63h-114l-52 -145h108zM463 445h-147l-52 -145h146z" />
    <glyph glyph-name="dollar" unicode="$" horiz-adv-x="530" 
d="M46 0l17 82h181l48 223q-69 30 -108 63t-39 103q0 8 1.5 18t9 46.5t65.5 77.5t147 49l16 77h62l-16 -77h160l-18 -82h-160l-43 -202l34 -17q45 -23 61.5 -34t40.5 -38.5t24 -79.5q0 -8 -1.5 -18t-10.5 -53t-70.5 -90.5t-157.5 -47.5l-20 -94h-62l20 94h-181zM348 278
l-42 -196q51 5 84 29.5t38.5 48t5.5 29v8.5q0 25 -20.5 44t-65.5 37zM313 403l37 177q-94 -13 -102.5 -52.5t-8.5 -44.5q0 -23 15.5 -39.5t58.5 -40.5z" />
    <glyph glyph-name="percent" unicode="%" horiz-adv-x="706" 
d="M111 0l571 667h54l-571 -667h-54zM335 674q54 0 88 -34t34 -87q0 -14 -8.5 -54t-61.5 -84t-116 -44q-55 0 -89 34t-34 86q0 14 8 54t62 84.5t117 44.5zM322 610q-37 0 -68 -25t-36 -49.5t-5 -30.5q0 -31 19.5 -50.5t51.5 -19.5q36 0 67 25.5t36 50t5 30.5q0 29 -19 49
t-51 20zM576 294q55 0 89 -34t34 -87q0 -14 -8 -54t-62 -84.5t-117 -44.5q-56 0 -90 34t-34 87q0 14 8 54t62.5 84.5t117.5 44.5zM563 230q-37 0 -68.5 -25.5t-36.5 -50t-5 -30.5q0 -30 20 -50t52 -20q37 0 68 25t36 51t5 31q0 30 -19.5 49.5t-51.5 19.5z" />
    <glyph glyph-name="ampersand" unicode="&#x26;" horiz-adv-x="739" 
d="M699 0h-107l-38 60q-60 -43 -111.5 -60t-119.5 -17q-109 0 -173 56t-64 148q0 27 18 112.5t169 171.5q-38 57 -38 81q0 10 6.5 38.5t43.5 52.5t96 24h274l-16 -73h-224q-69 0 -78 -39q-2 -12 2.5 -24t24.5 -39l221 -318q41 50 54 107q5 27 5 45q0 59 -46 104l73 41
q52 -65 52 -129q0 -28 -12.5 -87.5t-89.5 -139.5zM515 121l-202 291q-61 -31 -92 -68t-39.5 -78t-8.5 -59q0 -66 47.5 -106t128.5 -40q93 0 166 60z" />
    <glyph glyph-name="quotesingle" unicode="'" horiz-adv-x="188" 
d="M213 400h-67l43 267h95z" />
    <glyph glyph-name="parenleft" unicode="(" horiz-adv-x="405" 
d="M329 -171l-51 -51q-136 143 -136 328q0 60 21 159t95 206t205 209l31 -52q-219 -170 -249 -311t-30 -200q0 -160 114 -288z" />
    <glyph glyph-name="parenright" unicode=")" horiz-adv-x="405" 
d="M34 -222l-30 51q113 86 180.5 186.5t86 189.5t18.5 141q0 155 -111 282l54 52q129 -150 129 -325q0 -29 -3 -58.5t-35.5 -179t-288.5 -339.5z" />
    <glyph glyph-name="asterisk" unicode="*" horiz-adv-x="482" 
d="M344 667h74l-35 -140l141 51l9 -71l-143 -39l65 -107l-70 -44l-52 115l-101 -117l-51 44l108 109l-126 36l37 71l121 -47z" />
    <glyph glyph-name="plus" unicode="+" 
d="M100 365h205l41 194h47l-41 -194h205l-10 -45h-205l-41 -194h-47l41 194h-205z" />
    <glyph glyph-name="comma" unicode="," horiz-adv-x="197" 
d="M13 -103l80 182h86l-98 -182h-68z" />
    <glyph glyph-name="hyphen" unicode="-" horiz-adv-x="211" 
d="M43 204l14 64h211l-14 -64h-211z" />
    <glyph glyph-name="hyphen" unicode="&#xad;" horiz-adv-x="211" 
d="M43 204l14 64h211l-14 -64h-211z" />
    <glyph glyph-name="period" unicode="." horiz-adv-x="197" 
d="M121 107q20 0 33 -13t13 -33q0 -8 -3 -22t-23.5 -31t-44.5 -17q-21 0 -34 13t-13 34q0 7 3 21t24 31t45 17z" />
    <glyph glyph-name="slash" unicode="/" horiz-adv-x="531" 
d="M-5 -143l576 810h62l-576 -810h-62z" />
    <glyph glyph-name="zero" unicode="0" horiz-adv-x="530" 
d="M582 419l-36 -171q-26 -122 -102 -191.5t-182 -69.5q-86 0 -134 48t-48 134q0 37 9 79l36 171q26 121 102 191t183 70q87 0 134 -48t47 -135q0 -36 -9 -78zM214 423l-38 -177q-7 -32 -7 -63q0 -115 110 -115q74 0 109.5 40.5t47.5 67.5t21 70l38 177q9 41 9 68
q0 36 -24.5 73t-86.5 37q-68 0 -114.5 -45.5t-64.5 -132.5z" />
    <glyph glyph-name="one" unicode="1" horiz-adv-x="529" 
d="M359 0h-87l126 594h-101l24 73h180z" />
    <glyph glyph-name="two" unicode="2" horiz-adv-x="530" 
d="M507 78l-17 -78h-369q-71 0 -71 40q0 8 3.5 23t48.5 49l271 200q65 47 92.5 80t33 61t5.5 42q0 45 -30 75t-78 30q-61 0 -109 -38t-55.5 -74.5t-7.5 -50.5q0 -46 22 -68t40.5 -28.5t50.5 -6.5l-80 -65q-122 36 -122 150q0 11 1 23t12.5 64t90.5 113t178 61q81 0 130 -46
t49 -120q0 -18 -15 -89t-167 -174l-216 -149q-17 -11 -19 -17q-1 -3 5.5 -5t20.5 -2h302z" />
    <glyph glyph-name="three" unicode="3" horiz-adv-x="530" 
d="M55 0l17 78h170q160 0 174.5 68t14.5 84q0 51 -31.5 75t-104.5 24h-102l9 45l243 190q12 10 14 15q1 8 -16 8h-262l17 80h293q74 0 74 -49q0 -8 -3 -21t-12.5 -24.5t-47.5 -41.5l-177 -140q58 0 88 -8t56 -28t39 -49.5t13 -65.5q0 -7 -0.5 -15.5t-12 -63.5t-84.5 -108
t-186 -53h-183z" />
    <glyph glyph-name="four" unicode="4" horiz-adv-x="529" 
d="M412 0h-85l36 169h-239q-64 0 -64 47q0 7 2.5 16t8.5 20t18 25l336 390h90l-355 -404l-8 -13q0 -9 21 -9h209l64 301l108 125l-90 -421h106l-16 -77h-106z" />
    <glyph glyph-name="five" unicode="5" horiz-adv-x="530" 
d="M58 0l17 80h181q66 0 110 33t51 67.5t8.5 42t1.5 16.5q0 91 -125 91h-160l72 337h353l-17 -77h-269l-39 -184h97q85 0 133 -40t48 -110q0 -11 -1 -23t-12.5 -66.5t-84 -110.5t-176.5 -56h-188z" />
    <glyph glyph-name="six" unicode="6" horiz-adv-x="530" 
d="M407 667h101l-265 -307q-47 -54 -62.5 -79.5t-21.5 -51.5t-6 -44q0 -52 35 -85t90 -33q66 0 120 44t62 80.5t9 47t1 18.5q0 53 -32.5 84.5t-88.5 31.5q-27 0 -65 -13l67 83l28 2q81 0 130 -48t49 -125q0 -25 -13.5 -88t-97.5 -130t-188 -67q-86 0 -139.5 50.5
t-53.5 130.5q0 14 1 21.5t7 38.5t24.5 65t60.5 84z" />
    <glyph glyph-name="seven" unicode="7" horiz-adv-x="530" 
d="M228 0h-95l350 547l16 28q2 7 -4 9.5t-23 2.5h-289l17 80h329q72 0 72 -47q0 -5 -1.5 -14.5t-6 -20t-9.5 -19.5z" />
    <glyph glyph-name="eight" unicode="8" horiz-adv-x="530" 
d="M441 377q98 -41 98 -139q0 -18 -12 -73.5t-91 -116.5t-175 -61q-84 0 -136 46t-52 119q0 18 17 95.5t159 129.5q-66 38 -66 102v14t9.5 49.5t72.5 90.5t143 47q71 0 113 -36t42 -94q0 -8 -1.5 -18t-12.5 -59.5t-108 -95.5zM336 335q-60 0 -109 -38t-56.5 -73.5
t-7.5 -49.5q0 -46 31 -76t83 -30q60 0 109 39t56.5 74t7.5 49q0 45 -32 75t-82 30zM393 609q-45 0 -81.5 -29.5t-42.5 -57.5t-6 -39q0 -35 24 -58t63 -23q43 0 79 30t42 56.5t6 41.5q0 35 -23 57t-61 22z" />
    <glyph glyph-name="nine" unicode="9" horiz-adv-x="530" 
d="M265 0h-101l265 307q48 56 63 80.5t19.5 46.5t6 29.5t1.5 17.5q0 52 -34.5 85.5t-90.5 33.5q-66 0 -120 -44t-62.5 -85t-8.5 -55q0 -51 32 -86t83 -35q28 0 69 12l-66 -83h-17q-86 0 -137.5 47.5t-51.5 126.5q0 11 1 23t13 68.5t96 123.5t188 67q86 0 139.5 -50.5
t53.5 -130.5q0 -14 -1 -21.5t-7.5 -39.5t-24.5 -65t-61 -83z" />
    <glyph glyph-name="colon" unicode=":" horiz-adv-x="197" 
d="M121 107q20 0 33 -13t13 -33q0 -8 -3 -22t-23.5 -31t-44.5 -17q-21 0 -34 13t-13 34q0 7 3 21t24 31t45 17zM196 463q21 0 34 -13t13 -33q0 -8 -3 -22.5t-23.5 -31t-44.5 -16.5q-21 0 -34 13t-13 33q0 8 3 22.5t23.5 31t44.5 16.5z" />
    <glyph glyph-name="semicolon" unicode=";" horiz-adv-x="197" 
d="M214 463q21 0 34 -13t13 -33q0 -8 -3 -22.5t-23.5 -31t-44.5 -16.5q-21 0 -34 13t-13 33q0 8 3 22.5t23.5 31t44.5 16.5zM0 -103l80 182h86l-98 -182h-68z" />
    <glyph glyph-name="less" unicode="&#x3c;" 
d="M589 580l-18 -87l-375 -158l308 -158l-19 -86l-389 207l16 75z" />
    <glyph glyph-name="equal" unicode="=" 
d="M114 436h457l-10 -44h-457zM83 294h457l-9 -44h-457z" />
    <glyph glyph-name="greater" unicode="&#x3e;" 
d="M53 91l19 86l373 158l-306 159l18 86l389 -208l-16 -74z" />
    <glyph glyph-name="question" unicode="?" horiz-adv-x="496" 
d="M261 108q21 0 34 -13t13 -34q0 -7 -3 -21.5t-23.5 -31.5t-45.5 -17q-21 0 -34 13t-13 34q0 8 3 22t23.5 31t45.5 17zM309 159h-78l41 195h26q64 0 110 33t53.5 68t7.5 48q0 41 -26 68t-70 27q-51 0 -90 -31t-58 -86l-78 21q31 84 97 131t153 47q74 0 120 -44t46 -113
q0 -19 -11 -70t-71 -104t-145 -62z" />
    <glyph glyph-name="at" unicode="@" horiz-adv-x="1015" 
d="M787 143h69q-87 -85 -162.5 -121t-167.5 -36q-140 0 -225.5 82.5t-85.5 214.5q0 39 22 140.5t154 210.5t292 109q124 0 203.5 -71.5t79.5 -181.5q0 -28 -21.5 -128.5t-134.5 -158t-158 -57.5q-49 0 -49 37q0 3 2 15q-23 -22 -53 -35t-59 -13q-60 0 -94.5 35.5t-34.5 95.5
q0 11 1 23t13 68t84 123t159 67q45 0 69.5 -16t40.5 -57l25 60h71l-118 -303l-8 -24q-3 -19 15 -19t49 17.5t74 61t56 105t13 87.5q0 94 -65.5 152.5t-174.5 58.5q-139 0 -249 -91t-129 -180.5t-19 -121.5q0 -111 73.5 -179.5t197.5 -68.5q64 0 119 22t126 77zM615 479
q-50 0 -95 -41.5t-52.5 -77t-7.5 -48.5q0 -36 20.5 -57.5t55.5 -21.5q51 0 92 42t49.5 82t8.5 52q0 32 -19 51t-52 19z" />
    <glyph glyph-name="A" unicode="A" horiz-adv-x="565" 
d="M515 0h-89l61 288h-254l17 77h254l9 43q12 57 12 85q0 27 -20 67.5t-91 40.5q-72 0 -119.5 -47t-67.5 -138l-88 -416h-89l88 412q26 126 103 198t186 72q63 0 107.5 -26t62.5 -68.5t18 -82.5q0 -31 -13 -98z" />
    <glyph glyph-name="B" unicode="B" horiz-adv-x="554" 
d="M140 0h-89l95 446q23 108 95.5 171t175.5 63q80 0 128 -40t48 -104q0 -20 -12.5 -77.5t-111.5 -103.5q93 -38 93 -128q0 -17 -11.5 -71t-80.5 -105t-167 -51h-129l16 77h107q144 0 158 65t14 78q0 47 -27 65.5t-48 22.5t-64 4h-90l15 69h68q75 0 105 19.5t46 42t20 40
t4 32.5q0 37 -27.5 60.5t-72.5 23.5q-131 0 -167 -169z" />
    <glyph glyph-name="C" unicode="C" horiz-adv-x="462" 
d="M451 80l-17 -80h-27q-106 0 -154.5 12.5t-110.5 69t-62 179.5q0 33 19 123.5t139 186.5t266 96h72l-17 -80h-49q-122 0 -214.5 -71t-107 -141t-14.5 -97q0 -53 20.5 -96t54.5 -65.5t70 -29.5t111 -7h21z" />
    <glyph glyph-name="D" unicode="D" horiz-adv-x="584" 
d="M151 0h-89l142 667h142q71 0 114 -10.5t87.5 -40.5t71.5 -86.5t27 -125.5q0 -32 -12.5 -89.5t-55 -124t-125 -128.5t-209.5 -62h-62l17 80h46q109 0 193 70t99 140.5t15 102.5q0 89 -57 143t-155 54h-64z" />
    <glyph glyph-name="E" unicode="E" horiz-adv-x="475" 
d="M453 77l-16 -77h-78q-160 0 -219.5 87t-59.5 172q0 33 19 124.5t138 187.5t265 96h77l-17 -77h-44q-116 0 -204.5 -58.5t-117.5 -153.5h321l-16 -77h-321q-3 -20 -3 -37q0 -51 27 -98t73 -68t122 -21h54z" />
    <glyph glyph-name="F" unicode="F" horiz-adv-x="431" 
d="M139 0h-89l95 446q47 221 280 221h120l-17 -77h-119q-76 0 -118 -36.5t-59 -117.5l-16 -72h264l-16 -77h-264z" />
    <glyph glyph-name="G" unicode="G" horiz-adv-x="720" 
d="M431 374h351l-6 -29q-8 -39 -21.5 -75.5t-50.5 -101t-136 -123.5t-207 -59q-125 0 -202.5 76.5t-77.5 197.5q0 29 1.5 41.5t19.5 96.5t139 183t269 99q152 0 239 -107l-76 -59q-69 85 -178 85q-111 0 -200.5 -74t-105 -145.5t-15.5 -105.5q0 -94 55.5 -150.5t150.5 -56.5
q102 0 183.5 64.5t108.5 165.5h-257z" />
    <glyph glyph-name="H" unicode="H" horiz-adv-x="595" 
d="M533 0h-89l65 308h-293l-65 -308h-89l142 667h89l-60 -282h293l60 282h89z" />
    <glyph glyph-name="I" unicode="I" horiz-adv-x="235" 
d="M162 0h-89l142 667h89z" />
    <glyph glyph-name="J" unicode="J" horiz-adv-x="376" 
d="M467 667l-94 -440q-14 -67 -34.5 -104.5t-58 -67t-81.5 -42.5t-106 -13h-80l16 77h54q55 0 83.5 7t54.5 27.5t40.5 48t24.5 76.5l92 431h89z" />
    <glyph glyph-name="K" unicode="K" horiz-adv-x="555" 
d="M151 0h-89l142 667h89l-59 -278h77q47 0 76 19t62 72l115 187h95l-129 -201q-29 -46 -48 -65t-51 -35q40 -11 61 -26t35 -43.5t14 -56.5q0 -25 -13 -88l-17 -80l-12 -72h-88l10 65l17 80q11 55 11 76q0 26 -20.5 58.5t-96.5 32.5h-115z" />
    <glyph glyph-name="L" unicode="L" horiz-adv-x="425" 
d="M413 77l-16 -77h-122q-96 0 -140.5 35t-44.5 112q0 20 2 37.5t8 44.5l93 438h89l-89 -420q-4 -18 -7 -38t-3 -34q0 -41 19 -62.5t43.5 -28.5t75.5 -7h92z" />
    <glyph glyph-name="M" unicode="M" horiz-adv-x="812" 
d="M774 0h-87l55 568l-266 -519q-29 -56 -71 -56q-24 0 -37.5 17.5t-13.5 54.5l-38 507l-192 -572h-86l196 587q29 86 97 86q70 0 70 -76l34 -464l233 457q24 46 47.5 64.5t59.5 18.5q60 0 60 -61q0 -6 -1 -14t-1 -13z" />
    <glyph glyph-name="N" unicode="N" horiz-adv-x="599" 
d="M590 667h89l-124 -584q-10 -46 -31 -68t-56 -22q-55 0 -74 72l-127 482l-116 -547h-89l123 578q20 96 90 96q57 0 77 -74l123 -474z" />
    <glyph glyph-name="O" unicode="O" horiz-adv-x="725" 
d="M506 680q126 0 203 -76t77 -196q0 -29 -1.5 -42t-19 -94.5t-141 -183t-264.5 -101.5q-123 0 -201.5 77.5t-78.5 196.5q0 32 19 123.5t141.5 193.5t265.5 102zM490 599q-105 0 -196 -77t-105.5 -146.5t-14.5 -99.5q0 -91 55.5 -149.5t147.5 -58.5q103 0 195 78t106.5 147
t14.5 98q0 92 -56 150t-147 58z" />
    <glyph glyph-name="P" unicode="P" horiz-adv-x="535" 
d="M139 0h-89l91 429q14 65 35.5 105.5t81 93t160.5 52.5q81 0 131.5 -47.5t50.5 -122.5q0 -11 -1 -23t-12.5 -65.5t-83.5 -112.5t-169 -59h-108l17 77h96q63 0 107 36t51 71t8.5 43t1.5 18q0 46 -30 75t-80 29q-61 0 -105.5 -44.5t-60.5 -122.5z" />
    <glyph glyph-name="Q" unicode="Q" horiz-adv-x="725" 
d="M386 -128h-73l71 337h71l-26 -124q99 21 168.5 88t82.5 129.5t13 89.5q0 90 -56.5 148.5t-146.5 58.5q-104 0 -195 -76.5t-104 -135.5t-15 -78.5t-2 -31.5q0 -149 153 -183l-21 -101q-107 22 -167 92.5t-60 171.5q0 36 20 128.5t142 193.5t266 101q123 0 201.5 -78.5
t78.5 -196.5q0 -32 -18 -116t-118.5 -178t-239.5 -120z" />
    <glyph glyph-name="R" unicode="R" horiz-adv-x="527" 
d="M140 0h-89l94 440q24 116 94.5 180.5t173.5 64.5q78 0 126 -42t48 -108q0 -20 -12 -77.5t-124 -114.5q43 -16 61.5 -40.5t18.5 -67.5q0 -35 -10 -81l-33 -154h-89l27 128q12 54 12 81q0 20 -13.5 52t-98.5 32h-89l17 77h64q69 0 114 31t52.5 66t7.5 47q0 40 -26 65
t-69 25q-35 0 -67 -16t-57.5 -49t-42.5 -115z" />
    <glyph glyph-name="S" unicode="S" horiz-adv-x="519" 
d="M39 0l16 77h209q142 0 153 53.5t11 60.5q0 48 -57 78l-150 79q-81 43 -81 117v15.5t19.5 96.5t226.5 90h203l-17 -77h-179q-49 0 -71 -4t-49.5 -23t-33.5 -46t-6 -37q0 -38 53 -66l159 -81q78 -40 78 -118q0 -17 -20.5 -116t-229.5 -99h-234z" />
    <glyph glyph-name="T" unicode="T" horiz-adv-x="503" 
d="M297 0h-89l125 590h-170l17 77h427l-17 -77h-168z" />
    <glyph glyph-name="U" unicode="U" horiz-adv-x="559" 
d="M563 667h89l-89 -419q-15 -69 -37 -111t-84.5 -96t-165.5 -54q-54 0 -95 21t-65 61t-24 89q0 32 9 76l92 433h89l-90 -422q-7 -32 -7 -62q0 -115 111 -115q77 0 113 44.5t46 69.5t20 72z" />
    <glyph glyph-name="V" unicode="V" horiz-adv-x="564" 
d="M600 667h92l-303 -597q-39 -76 -105 -76q-34 0 -51 18.5t-22 59.5l-56 595h91l56 -591z" />
    <glyph glyph-name="W" unicode="W" horiz-adv-x="885" 
d="M888 667h89l-93 -437q-16 -72 -34 -107.5t-74.5 -85.5t-154.5 -50q-68 0 -106.5 26t-56.5 86q-84 -112 -201 -112q-79 0 -124 44t-45 118q0 25 6 54l99 464h89l-94 -443q-7 -29 -7 -57q0 -99 97 -99q64 0 107 41t59 117l94 441h89l-94 -442q-6 -29 -6 -53
q0 -104 102 -104q77 0 114 45t52 118z" />
    <glyph glyph-name="X" unicode="X" horiz-adv-x="646" 
d="M625 80l-17 -80q-61 0 -102 15.5t-73.5 47t-46.5 58t-23 70.5q-65 -100 -139 -145.5t-186 -45.5l17 80q52 0 92.5 16t108.5 71.5t83 126.5t15 102q0 85 -52 138t-139 53l17 80q63 0 101 -12.5t71 -43t48 -58t24 -75.5q30 51 66.5 86t83.5 59.5t85 34t91 9.5l-17 -80
q-94 0 -153.5 -44t-93.5 -96.5t-43.5 -96t-9.5 -75.5q0 -87 52 -141t140 -54z" />
    <glyph glyph-name="Y" unicode="Y" horiz-adv-x="509" 
d="M298 0h-89l56 262q-69 14 -101 49t-32 99q0 31 10 81l38 176h89l-38 -177q-6 -30 -6 -53q0 -98 104 -98q125 0 156 145l39 183h89l-41 -190q-40 -187 -218 -215z" />
    <glyph glyph-name="Z" unicode="Z" horiz-adv-x="533" 
d="M511 77l-16 -77h-361q-84 0 -84 52q0 5 4.5 25t44.5 65l430 448h-329l17 77h322q82 0 82 -52q0 -5 -3 -20t-14.5 -32.5t-43.5 -51.5l-417 -434h368z" />
    <glyph glyph-name="bracketleft" unicode="[" horiz-adv-x="405" 
d="M203 -145h77l-14 -68h-152l187 880h152l-15 -68h-77z" />
    <glyph glyph-name="backslash" unicode="\" horiz-adv-x="531" 
d="M506 -143h-62l-404 810h62z" />
    <glyph glyph-name="bracketright" unicode="]" horiz-adv-x="405" 
d="M140 -145l158 744h-77l15 68h152l-187 -880h-152l14 68h77z" />
    <glyph glyph-name="asciicircum" unicode="^" 
d="M189 371h-81l234 298h99l108 -298h-81l-89 239z" />
    <glyph glyph-name="underscore" unicode="_" 
d="M-15 -70h500l-12 -56h-500z" />
    <glyph glyph-name="grave" unicode="`" 
d="M491 506h-67l-178 149h67z" />
    <glyph glyph-name="a" unicode="a" horiz-adv-x="536" 
d="M492 0h-80l42 199q6 30 6 56q0 60 -32.5 94.5t-90.5 34.5q-65 0 -120 -46t-63.5 -87.5t-8.5 -57.5q0 -54 34.5 -88.5t92.5 -34.5q33 0 62.5 12t71.5 43l-18 -85q-38 -27 -70.5 -38t-72.5 -11q-83 0 -134.5 51.5t-51.5 132.5q0 24 13.5 87t97.5 132t184 69q86 0 138 -53
t52 -137q0 -28 -6 -58z" />
    <glyph glyph-name="b" unicode="b" horiz-adv-x="537" 
d="M187 667h80l-86 -405q-9 -39 -9 -67q0 -40 29 -82.5t100 -42.5q62 0 116 46t62 82t9 46.5t1 18.5q0 54 -34 88t-90 34q-62 0 -137 -57l18 87q71 49 143 49q81 0 133 -53t52 -132q0 -14 -1 -21.5t-13.5 -67t-96 -129.5t-183.5 -70q-88 0 -139 51t-51 138q0 21 1 32t6 34z
" />
    <glyph glyph-name="c" unicode="c" horiz-adv-x="351" 
d="M340 71l-15 -71h-59q-66 0 -104.5 15t-70 57t-31.5 108q0 14 1 22t8 42t39.5 81.5t91 88t155.5 40.5h66l-14 -70h-47q-81 0 -139 -43t-66.5 -83.5t-9.5 -55t-1 -15.5q0 -55 38.5 -85.5t108.5 -30.5h49z" />
    <glyph glyph-name="d" unicode="d" horiz-adv-x="537" 
d="M634 667l-90 -421q-24 -113 -105 -184t-186 -71q-86 0 -139.5 52.5t-53.5 135.5q0 26 13 86.5t96 129.5t177 69q72 0 121 -49l-18 -87q-27 31 -53 44t-60 13q-65 0 -119.5 -45t-62.5 -83t-9 -45.5t-1 -17.5q0 -54 34 -89t91 -35q39 0 76 18t71.5 56t51.5 118l86 405h80z
" />
    <glyph glyph-name="e" unicode="e" horiz-adv-x="504" 
d="M478 210l49 -31q-94 -188 -275 -188q-85 0 -138.5 53.5t-53.5 135.5q0 14 1 21.5t13.5 66.5t94.5 127t183 68q134 0 182 -135l-332 -190l-21 59l252 148q-28 46 -96 46q-66 0 -119.5 -44.5t-62 -84t-9.5 -47.5t-1 -18q0 -58 37 -96t94 -38q63 0 115.5 38.5t86.5 108.5z
" />
    <glyph glyph-name="f" unicode="f" horiz-adv-x="289" 
d="M125 0h-80l103 486q40 181 221 181h66l-15 -69h-51q-117 0 -140 -111l-8 -35h168l-15 -70h-168z" />
    <glyph glyph-name="g" unicode="g" horiz-adv-x="535" 
d="M57 -201l23 72q72 -23 132 -23q94 0 132 40t50 66.5t21 70.5l37 172q7 37 7 59q0 61 -31.5 94.5t-89.5 33.5q-67 0 -121.5 -45t-62.5 -83.5t-9 -46t-1 -17.5q0 -53 34.5 -87.5t90.5 -34.5q36 0 63 11t73 45l-18 -83q-47 -30 -77.5 -41t-69.5 -11q-79 0 -129.5 52.5
t-50.5 133.5q0 28 13 88t97 129t184 69q87 0 137 -51t50 -138q0 -21 -1 -33t-6 -34l-42 -196q-23 -110 -97.5 -172.5t-183.5 -62.5q-69 0 -154 23z" />
    <glyph glyph-name="h" unicode="h" horiz-adv-x="499" 
d="M455 0h-80l52 246q3 16 5 29t2 25q0 85 -87 85q-56 0 -98 -42.5t-58 -114.5l-48 -228h-80l142 667h80l-60 -281q65 78 160 78q63 0 98 -37t35 -102q0 -19 -1 -29t-6 -31z" />
    <glyph glyph-name="i" unicode="i" horiz-adv-x="232" 
d="M157 0h-80l96 454h80zM253 644q21 0 34 -13t13 -34q0 -7 -3 -21.5t-23.5 -31.5t-45.5 -17q-21 0 -34 13t-13 34q0 8 3 22t23.5 31t45.5 17z" />
    <glyph glyph-name="j" unicode="j" horiz-adv-x="212" 
d="M234 454l-104 -493q-20 -94 -72 -136t-147 -42h-40l15 70h22q67 0 98 24.5t45 88.5l103 488h80zM235 645q21 0 34 -13t13 -33q0 -8 -3 -22t-24 -31t-45 -17q-20 0 -33 13t-13 33q0 8 3 22.5t23.5 31t44.5 16.5z" />
    <glyph glyph-name="k" unicode="k" horiz-adv-x="461" 
d="M420 0h-80l21 98q5 27 5 42q0 38 -24.5 54.5t-77.5 16.5h-76l-45 -211h-80l142 667h80l-82 -386h42q37 0 57 11t52 51l88 111h88l-101 -125q-32 -39 -42 -48t-35 -20q95 -22 95 -110q0 -23 -6 -50z" />
    <glyph glyph-name="l" unicode="l" horiz-adv-x="205" 
d="M143 0h-80l142 667h80z" />
    <glyph glyph-name="m" unicode="m" horiz-adv-x="724" 
d="M679 0h-80l58 272q4 17 4 35q0 77 -77 77q-54 0 -79 -29t-32.5 -46t-14.5 -52l-55 -257h-80l56 265q5 25 5 41q0 78 -80 78q-51 0 -77 -28.5t-32.5 -44.5t-13.5 -50l-55 -261h-80l58 273q11 54 27 83.5t61.5 68t123.5 38.5q96 0 129 -84q65 84 160 84q67 0 103 -35
t36 -98q0 -11 -1 -24t-4 -25z" />
    <glyph glyph-name="n" unicode="n" horiz-adv-x="483" 
d="M438 0h-80l51 238q6 29 6 51q0 95 -91 95q-117 0 -149 -150l-50 -234h-80l54 256q20 94 86 150.5t156 56.5q74 0 116 -41t42 -112q0 -24 -6 -53z" />
    <glyph glyph-name="o" unicode="o" horiz-adv-x="509" 
d="M355 463q83 0 136.5 -53.5t53.5 -135.5q0 -11 -1 -24.5t-12.5 -67t-95.5 -122.5t-181 -69q-86 0 -140.5 52.5t-54.5 134.5q0 24 13 86t97.5 130.5t184.5 68.5zM339 384q-66 0 -121 -45t-63 -81t-9 -46t-1 -18q0 -55 35.5 -89.5t93.5 -34.5q60 0 115 46t62 81.5t8.5 43.5
t1.5 18q0 54 -33.5 89.5t-88.5 35.5z" />
    <glyph glyph-name="p" unicode="p" horiz-adv-x="537" 
d="M0 -213l89 422q24 112 105 183t186 71q86 0 139.5 -52.5t53.5 -135.5q0 -25 -13 -86t-95 -130t-177 -69q-70 0 -122 49l19 87q52 -57 113 -57q66 0 119.5 45t62.5 87t9 61q0 53 -33.5 87.5t-87.5 34.5q-40 0 -78.5 -18t-72.5 -56t-51 -118l-86 -405h-80z" />
    <glyph glyph-name="q" unicode="q" horiz-adv-x="537" 
d="M447 -213h-80l86 405q4 21 6 35.5t2 30.5q0 41 -27.5 83.5t-97.5 42.5q-64 0 -119 -46t-64 -86.5t-9 -60.5q0 -54 34 -88t91 -34q62 0 137 57l-19 -87q-71 -49 -142 -49q-82 0 -134 53t-52 133q0 14 1 21.5t13.5 67.5t95.5 129t184 69q88 0 139 -51t51 -138q0 -20 -1 -31
t-6 -34z" />
    <glyph glyph-name="r" unicode="r" horiz-adv-x="323" 
d="M143 0h-80l96 454h80l-17 -80q66 90 168 90l29 -2l-16 -75h-16q-84 0 -132 -44t-68 -138z" />
    <glyph glyph-name="s" unicode="s" horiz-adv-x="447" 
d="M48 0l15 70h179h10q39 0 49.5 1.5t28 9.5t22 26t4.5 26q0 13 -7 21t-25 14l-157 60q-68 26 -68 83q0 13 13.5 78t179.5 65h182l-14 -70h-194q-39 0 -58.5 -11.5t-23 -27.5t-3.5 -23q0 -23 33 -35l146 -56q43 -16 61.5 -35.5t18.5 -50.5q0 -12 -14 -78.5t-165 -66.5h-213z
" />
    <glyph glyph-name="t" unicode="t" horiz-adv-x="293" 
d="M203 382l-45 -212q-3 -11 -4 -22t-1 -22q0 -31 20 -43t70 -12h39l-15 -71h-43q-85 0 -120 22.5t-35 79.5q0 25 8 65l90 423h80l-29 -138h145l-15 -70h-145z" />
    <glyph glyph-name="u" unicode="u" horiz-adv-x="483" 
d="M454 454h80l-54 -258q-19 -92 -85.5 -148.5t-155.5 -56.5q-74 0 -116 41t-42 110q0 25 6 54l54 258h80l-50 -239q-6 -27 -6 -50q0 -45 23 -70t67 -25q65 0 100 42t50 110z" />
    <glyph glyph-name="v" unicode="v" horiz-adv-x="442" 
d="M452 454h84l-226 -398q-21 -37 -40 -51t-50 -14q-34 0 -46.5 13t-17.5 55l-58 395h84l47 -352q3 -16 9 -16q7 0 18 17z" />
    <glyph glyph-name="w" unicode="w" horiz-adv-x="722" 
d="M693 454h80l-59 -278q-18 -86 -73.5 -135.5t-133.5 -49.5q-51 0 -78 17t-50 63q-68 -80 -162 -80q-67 0 -104 35t-37 97q0 23 6 49l59 282h80l-57 -269q-2 -7 -3 -17.5t-1 -18.5q0 -79 79 -79q45 0 78 31t44 84l57 269h80l-56 -267q-2 -8 -3 -18.5t-1 -18.5q0 -80 80 -80
q43 0 74.5 29.5t42.5 80.5z" />
    <glyph glyph-name="x" unicode="x" horiz-adv-x="457" 
d="M446 72l-15 -72h-24q-56 0 -95 31t-55 89q-85 -120 -208 -120h-22l15 72h16q60 0 114 46t62 84.5t8 53.5q0 52 -34 89t-84 37h-16l15 72h20q126 0 160 -117q40 55 93.5 86t112.5 31h18l-15 -72h-12q-62 0 -115 -46.5t-61.5 -86.5t-8.5 -56q0 -51 32 -86t83 -35h16z" />
    <glyph glyph-name="y" unicode="y" horiz-adv-x="477" 
d="M447 454h80l-54 -258q-37 -173 -193 -202l-44 -208h-80l44 208q-121 15 -121 135q0 31 7 62l55 263h80l-54 -258q-5 -25 -5 -42q0 -87 91 -87q111 0 141 133z" />
    <glyph glyph-name="z" unicode="z" horiz-adv-x="413" 
d="M82 116l257 239q8 7 13 11.5t6 9.5q1 4 -4.5 5.5t-19.5 1.5h-205l15 70l250 1q68 0 68 -48q0 -3 -3 -16t-11 -24.5t-36 -37.5l-249 -234q-14 -14 -15 -18q1 -2 4.5 -4t18.5 -2h230l-15 -70h-282q-67 0 -67 42q0 4 3 18t9.5 23t32.5 33z" />
    <glyph glyph-name="braceleft" unicode="{" horiz-adv-x="405" 
d="M392 566l-43 -206q-13 -60 -42 -89t-85 -39q78 -10 78 -81v-22q-3 -11 -4 -15l-47 -220q-3 -17 -3 -29q0 -44 49 -76q-119 0 -119 89v14.5t4 20.5l46 219q3 14 3 26q0 59 -66 74q87 15 106 100l41 197q30 140 160 140h12q-75 -38 -90 -103z" />
    <glyph glyph-name="bar" unicode="|" 
d="M207 667h87v-834h-87v834z" />
    <glyph glyph-name="braceright" unicode="}" horiz-adv-x="405" 
d="M111 -106l47 220q22 105 124 118q-77 15 -77 79q0 20 6 49l43 206q3 15 3 27q0 47 -49 76h12q106 0 106 -93q0 -21 -6 -47l-41 -197q-2 -7 -3 -15.5t-1 -15.5q0 -57 66 -69q-88 -19 -105 -100l-46 -219q-28 -124 -169 -124q42 22 62 45t28 60z" />
    <glyph glyph-name="asciitilde" unicode="~" horiz-adv-x="667" 
d="M263 577l-39 36q77 116 162 116q22 0 43.5 -7.5t61 -30t55 -28.5t32.5 -6q26 0 51 17.5t54 56.5l38 -36q-75 -115 -169 -115q-14 0 -33.5 6t-37 16.5t-52.5 29.5t-63 19q-47 0 -103 -74z" />
    <glyph glyph-name="nonbreakingspace" unicode="&#xa0;" 
 />
    <glyph glyph-name="exclamdown" unicode="&#xa1;" horiz-adv-x="197" 
d="M197 463q22 0 35 -13t13 -34q0 -8 -3 -22t-24.5 -31.5t-45.5 -17.5q-21 0 -34 13t-13 34q0 8 3 23t23 31.5t46 16.5zM200 303l-103 -516h-90l115 516h78z" />
    <glyph glyph-name="cent" unicode="&#xa2;" horiz-adv-x="530" 
d="M358 33h-62l26 122q-68 7 -105.5 43.5t-37.5 97.5q0 8 0.5 15t7.5 40t35.5 73t60.5 61t55.5 28t61.5 11l22 103h62l-22 -103h65l-15 -70h-93q-61 0 -104 -31t-50 -65t-7 -46q0 -87 121 -87h85l-15 -70h-65z" />
    <glyph glyph-name="sterling" unicode="&#xa3;" horiz-adv-x="530" 
d="M197 313h-73l13 62h73l11 51q16 77 35 116t72 88.5t153 49.5q39 0 88 -16l-26 -79q-40 15 -67 15q-79 0 -109 -41t-38 -63.5t-18 -67.5l-11 -53h109l-13 -62h-109l-26 -118q-11 -52 -24.5 -73t-50.5 -45h111q83 0 126.5 35t60.5 117l5 24h83q-34 -140 -97.5 -196.5
t-187.5 -56.5h-270l16 77h19q51 0 78 26t41 90z" />
    <glyph glyph-name="currency" unicode="&#xa4;" horiz-adv-x="691" 
d="M65 109l92 94q-47 64 -47 139q0 37 10 66t39 72l-96 95l46 46l96 -95q45 28 74 38t68 10q36 0 65 -10t72 -38l95 95l46 -46l-94 -94q49 -69 49 -140q0 -36 -10 -66t-37 -72l94 -94l-46 -47l-94 94q-64 -48 -137 -48q-37 0 -70.5 11t-75.5 37l-93 -93zM345 501
q-66 0 -112 -46t-46 -114q0 -66 46 -112t112 -46t112 46t46 112t-46 113t-112 47z" />
    <glyph glyph-name="yen" unicode="&#xa5;" horiz-adv-x="509" 
d="M248 184h-151l13 62h151l11 49q-133 26 -133 147q0 30 10 82l31 143h89l-31 -144q-6 -30 -6 -53q0 -98 104 -98q126 0 156 146l32 149h89l-34 -157q-40 -187 -218 -215l-11 -49h153l-13 -62h-153l-39 -184h-89z" />
    <glyph glyph-name="brokenbar" unicode="&#xa6;" 
d="M207 667h87v-337h-87v337zM207 153h87v-320h-87v320z" />
    <glyph glyph-name="section" unicode="&#xa7;" horiz-adv-x="482" 
d="M19 -142l17 80h193q96 0 102 29t6 36q0 31 -54 66l-120 77q-34 22 -49 43t-15 48v13.5t6.5 35.5t36 62t94.5 70q-59 47 -59 94q0 8 9 52.5t53 68.5t71 29t81 5h132l-16 -76h-127q-103 0 -116 -58q-4 -19 9.5 -36t52.5 -42l103 -66q68 -45 68 -98q0 -9 -7 -44t-36.5 -67.5
t-90.5 -63.5q60 -50 60 -100q0 -13 -8 -51.5t-47 -65.5t-66.5 -34t-72.5 -7h-210zM237 201l73 -49q49 25 71.5 46.5t26.5 41.5t4 26q0 33 -47 63l-75 49q-91 -42 -98 -76.5t-7 -38.5q0 -29 52 -62z" />
    <glyph glyph-name="dieresis" unicode="&#xa8;" 
d="M299 624q36 0 36 -36q0 -6 -2.5 -17t-17.5 -24t-35 -13q-19 0 -29.5 13t-6.5 32t20 32t35 13zM466 626q15 0 25.5 -9.5t10.5 -25.5q0 -6 -2.5 -18t-17.5 -25t-35 -13q-19 0 -30 13t-7 33q5 19 20.5 32t35.5 13z" />
    <glyph glyph-name="copyright" unicode="&#xa9;" horiz-adv-x="781" 
d="M593 296h44q-21 -75 -80 -120t-137 -45q-71 0 -112 40t-41 109q0 25 13 84.5t78 117t151 57.5q65 0 105 -34t40 -88q0 -11 -1 -16h-43q0 42 -30 66t-83 24q-61 0 -107 -43t-56 -92t-10 -67q0 -51 28.5 -80.5t78.5 -29.5q58 0 100 30t62 87zM535 679q124 0 201.5 -77.5
t77.5 -196.5q0 -33 -19.5 -124t-141.5 -192t-265 -101q-122 0 -200.5 77.5t-78.5 196.5q0 32 19 123.5t141 192.5t266 101zM526 637q-125 0 -231 -88t-123 -167t-17 -113q0 -104 67.5 -171.5t174.5 -67.5q123 0 230 89t124 167.5t17 110.5q0 103 -67.5 171.5t-174.5 68.5z
" />
    <glyph glyph-name="ordfeminine" unicode="&#xaa;" horiz-adv-x="482" 
d="M466 386h-56l26 124q4 17 4 35q0 36 -19.5 56.5t-55.5 20.5q-40 0 -73.5 -27.5t-38.5 -54.5t-5 -33q0 -33 21.5 -53.5t56.5 -20.5q44 0 78 31l-13 -59q-37 -25 -82 -25q-54 0 -87 33t-33 84q0 15 8 53.5t62 81.5t118 43q55 0 88.5 -33.5t33.5 -87.5q0 -8 -1.5 -18
t-2.5 -16zM145 274l11 52h290l-11 -52h-290z" />
    <glyph glyph-name="guillemotleft" unicode="&#xab;" horiz-adv-x="411" 
d="M163 119l-73 116l120 119h73l-120 -119l73 -116h-73zM325 119l-71 116l119 119h73l-122 -119l72 -116h-71z" />
    <glyph glyph-name="logicalnot" unicode="&#xac;" 
d="M382 0l43 203h-349l16 76h433l-59 -279h-84z" />
    <glyph glyph-name="registered" unicode="&#xae;" horiz-adv-x="781" 
d="M355 527h165q119 0 119 -82q0 -12 -8.5 -53t-85.5 -68q27 -10 36.5 -21t9.5 -39q0 -26 -6.5 -62t-6.5 -47q0 -9 3 -20h-53q-3 8 -3 16q0 11 2.5 26.5t5.5 34t3 39.5q0 32 -17.5 43.5t-65.5 11.5h-90l-36 -171h-55zM402 490l-32 -149h92q103 0 112 46t9 50q0 53 -80 53
h-101zM535 679q124 0 201.5 -77.5t77.5 -196.5q0 -33 -19.5 -124t-141.5 -192t-265 -101q-123 0 -201 77t-78 196q0 33 19.5 125t141 192.5t265.5 100.5zM526 637q-125 0 -231 -88t-123 -167t-17 -113q0 -104 67.5 -171.5t174.5 -67.5q123 0 230 89t124 167.5t17 110.5
q0 103 -67.5 171.5t-174.5 68.5z" />
    <glyph glyph-name="macron" unicode="&#xaf;" 
d="M212 552l11 51h310l-11 -51h-310z" />
    <glyph glyph-name="macron" unicode="&#x2c9;" 
d="M212 552l11 51h310l-11 -51h-310z" />
    <glyph glyph-name="degree" unicode="&#xb0;" 
d="M391 665q52 0 84 -32t32 -82q0 -15 -8 -52t-59 -79t-111 -42q-51 0 -82.5 32.5t-31.5 81.5q0 15 8 52t58 79t110 42zM383 626q-43 0 -79.5 -31t-42.5 -59.5t-6 -35.5q0 -35 23 -59t60 -24q44 0 80 30t42 55.5t6 39.5q0 36 -23 60t-60 24z" />
    <glyph glyph-name="plusminus" unicode="&#xb1;" 
d="M102 377h205l41 193h47l-41 -193h205l-9 -45h-205l-41 -191h-47l41 191h-205zM43 97h457l-10 -45h-457z" />
    <glyph glyph-name="twosuperior" unicode="&#xb2;" horiz-adv-x="345" 
d="M386 323l-12 -56h-234q-56 0 -48 36q4 17 34 39l167 116q37 26 53.5 45t20 35.5t3.5 22.5q0 24 -18 41t-46 17q-35 0 -62.5 -21t-32 -43t-4.5 -27q0 -47 55 -55l-60 -42q-60 26 -60 89q0 12 7.5 46.5t57.5 71.5t113 37q50 0 83 -29t33 -73q0 -11 -5.5 -36.5t-31.5 -57.5
t-76 -64l-140 -92h203z" />
    <glyph glyph-name="threesuperior" unicode="&#xb3;" horiz-adv-x="345" 
d="M95 267l12 56h110q94 0 102.5 40.5t8.5 45.5q0 50 -82 50h-68l7 34l157 117h-173l12 57h187q57 0 49 -42q-3 -14 -8.5 -20.5t-31.5 -26.5l-99 -73q35 -3 50.5 -7t40 -22.5t24.5 -63.5q0 -15 -7 -47.5t-54.5 -65t-118.5 -32.5h-118z" />
    <glyph glyph-name="acute" unicode="&#xb4;" 
d="M522 655l-240 -149h-67l240 149h67z" />
    <glyph glyph-name="mu" unicode="&#xb5;" 
d="M14 -166l137 646h75l-57 -270q-3 -15 -6.5 -33t-3.5 -34q0 -30 22.5 -61.5t77.5 -31.5q57 0 103 47t62 122l55 261h75l-102 -480h-75l19 90q-62 -103 -153 -103q-78 0 -106 73l-48 -226h-75z" />
    <glyph glyph-name="paragraph" unicode="&#xb6;" horiz-adv-x="482" 
d="M187 -118l87 411q-46 5 -69 12t-41.5 24t-29.5 45.5t-11 60.5q0 20 12 77.5t64 96t88 48.5t90 10h188l-167 -785h-67l152 716h-77l-152 -716h-67z" />
    <glyph glyph-name="periodcentered" unicode="&#xb7;" horiz-adv-x="529" 
d="M326 294q21 0 34 -13t13 -33q0 -8 -3 -22.5t-23.5 -31t-44.5 -16.5q-21 0 -34 13t-13 33q0 8 3 22.5t23.5 31t44.5 16.5z" />
    <glyph glyph-name="periodcentered" unicode="&#x2219;" horiz-adv-x="529" 
d="M326 294q21 0 34 -13t13 -33q0 -8 -3 -22.5t-23.5 -31t-44.5 -16.5q-21 0 -34 13t-13 33q0 8 3 22.5t23.5 31t44.5 16.5z" />
    <glyph glyph-name="cedilla" unicode="&#xb8;" 
d="M276 0l-35 -54q59 -8 59 -54q0 -4 -4.5 -25t-31.5 -41t-65 -20q-28 0 -61 16l15 34q25 -11 48 -11q14 0 27 10t16 24q4 15 -4.5 24.5t-24.5 9.5q-13 0 -26 -4l-7 7l53 84h41z" />
    <glyph glyph-name="onesuperior" unicode="&#xb9;" horiz-adv-x="345" 
d="M292 267h-64l74 347h-63l17 53h121z" />
    <glyph glyph-name="ordmasculine" unicode="&#xba;" horiz-adv-x="482" 
d="M385 675q55 0 89 -34t34 -86q0 -14 -8 -52t-61.5 -80.5t-115.5 -42.5q-55 0 -90.5 33.5t-35.5 85.5q0 15 8 52.5t62 80.5t118 43zM374 622q-40 0 -74 -27t-39 -53.5t-5 -32.5q0 -33 21.5 -54.5t57.5 -21.5q38 0 70.5 27t41.5 66q2 14 2 21q0 32 -20.5 53.5t-54.5 21.5z
M154 274l11 52h289l-11 -52h-289z" />
    <glyph glyph-name="guillemotright" unicode="&#xbb;" horiz-adv-x="411" 
d="M348 354l74 -116l-121 -119h-73l120 119l-74 116h74zM185 354l73 -116l-120 -119h-73l123 119l-73 116h70z" />
    <glyph glyph-name="onequarter" unicode="&#xbc;" horiz-adv-x="813" 
d="M292 267h-64l74 347h-63l17 53h121zM164 0l571 667h54l-571 -667h-54zM736 0h-63l21 99h-143q-23 0 -35.5 10.5t-8.5 28.5q2 12 19 32l207 230h68l-229 -249h136l32 148l78 87l-49 -232h66l-12 -55h-66z" />
    <glyph glyph-name="onehalf" unicode="&#xbd;" horiz-adv-x="813" 
d="M292 267h-64l74 347h-63l17 53h121zM164 0l571 667h54l-571 -667h-54zM797 56l-12 -56h-234q-55 0 -47 36q3 16 33 39l168 116q66 48 71 72.5t5 30.5q0 24 -18 41t-46 17q-35 0 -62.5 -21t-32 -43t-4.5 -27q0 -47 55 -55l-60 -42q-60 26 -60 89q0 12 7.5 46.5t57.5 71.5
t114 37q52 0 84 -29t32 -74q0 -12 -9 -53.5t-105 -103.5l-140 -92h203z" />
    <glyph glyph-name="threequarters" unicode="&#xbe;" horiz-adv-x="813" 
d="M95 267l12 56h110q94 0 102.5 40.5t8.5 45.5q0 50 -82 50h-68l7 34l157 117h-173l12 57h187q57 0 49 -42q-3 -14 -8.5 -20.5t-31.5 -26.5l-99 -73q35 -3 50.5 -7t40 -22.5t24.5 -63.5q0 -15 -7 -47.5t-54.5 -65t-118.5 -32.5h-118zM165 0l571 667h54l-571 -667h-54z
M737 0h-63l21 99h-143q-23 0 -35.5 10.5t-8.5 28.5q2 12 19 32l207 230h68l-229 -249h136l32 148l78 87l-49 -232h66l-12 -55h-66z" />
    <glyph glyph-name="questiondown" unicode="&#xbf;" horiz-adv-x="496" 
d="M357 462q21 0 34 -13t13 -33q0 -8 -3 -22.5t-23.5 -31.5t-45.5 -17q-21 0 -34 13t-13 34q0 8 3 22.5t23.5 31t45.5 16.5zM284 296h78l-42 -195h-26q-65 0 -111 -33t-53 -68t-7 -48q0 -42 26.5 -68.5t70.5 -26.5q51 0 90 31t57 86l79 -21q-33 -84 -98.5 -131t-150.5 -47
q-75 0 -121 44t-46 114q0 22 10.5 71t71 102t145.5 62z" />
    <glyph glyph-name="Agrave" unicode="&#xc0;" horiz-adv-x="565" 
d="M515 0h-89l61 288h-254l17 77h254l9 43q12 57 12 85q0 27 -20 67.5t-91 40.5q-72 0 -119.5 -47t-67.5 -138l-88 -416h-89l88 412q26 126 103 198t186 72q63 0 107.5 -26t62.5 -68.5t18 -82.5q0 -31 -13 -98zM322 858h67l177 -150h-67z" />
    <glyph glyph-name="Aacute" unicode="&#xc1;" horiz-adv-x="565" 
d="M515 0h-89l61 288h-254l17 77h254l9 43q12 57 12 85q0 27 -20 67.5t-91 40.5q-72 0 -119.5 -47t-67.5 -138l-88 -416h-89l88 412q26 126 103 198t186 72q63 0 107.5 -26t62.5 -68.5t18 -82.5q0 -31 -13 -98zM598 858l-241 -150h-67l241 150h67z" />
    <glyph glyph-name="Acircumflex" unicode="&#xc2;" horiz-adv-x="565" 
d="M515 0h-89l61 288h-254l17 77h254l9 43q12 57 12 85q0 27 -20 67.5t-91 40.5q-72 0 -119.5 -47t-67.5 -138l-88 -416h-89l88 412q26 126 103 198t186 72q63 0 107.5 -26t62.5 -68.5t18 -82.5q0 -31 -13 -98zM271 721l193 150l135 -150h-68l-80 89l-111 -89h-69z" />
    <glyph glyph-name="Atilde" unicode="&#xc3;" horiz-adv-x="565" 
d="M515 0h-89l61 288h-254l17 77h254l9 43q12 57 12 85q0 27 -20 67.5t-91 40.5q-72 0 -119.5 -47t-67.5 -138l-88 -416h-89l88 412q26 126 103 198t186 72q63 0 107.5 -26t62.5 -68.5t18 -82.5q0 -31 -13 -98zM312 763l-23 31q56 55 110 55q17 0 29.5 -4.5t42.5 -19.5
t46 -15q36 0 73 34l28 -30q-57 -53 -107 -53q-21 0 -29.5 3t-31 14.5t-38 16.5t-25.5 5q-33 0 -75 -37z" />
    <glyph glyph-name="Adieresis" unicode="&#xc4;" horiz-adv-x="565" 
d="M515 0h-89l61 288h-254l17 77h254l9 43q12 57 12 85q0 27 -20 67.5t-91 40.5q-72 0 -119.5 -47t-67.5 -138l-88 -416h-89l88 412q26 126 103 198t186 72q63 0 107.5 -26t62.5 -68.5t18 -82.5q0 -31 -13 -98zM375 828q15 0 25.5 -9.5t10.5 -25.5q0 -6 -2.5 -17.5
t-17.5 -24.5t-35 -13q-19 0 -29.5 13t-6.5 32q5 19 20.5 32t34.5 13zM542 830q19 0 29.5 -13t6.5 -32q-5 -20 -20 -33t-35 -13q-37 0 -37 36q0 7 2.5 18t18 24t35.5 13z" />
    <glyph glyph-name="Aring" unicode="&#xc5;" horiz-adv-x="565" 
d="M515 0h-89l61 288h-254l17 77h254l9 43q12 57 12 85q0 27 -20 67.5t-91 40.5q-72 0 -119.5 -47t-67.5 -138l-88 -416h-89l88 412q26 126 103 198t186 72q63 0 107.5 -26t62.5 -68.5t18 -82.5q0 -31 -13 -98zM477 914q34 0 56 -22t22 -55q0 -6 -5.5 -33.5t-39.5 -55.5
t-74 -28q-36 0 -57 21t-21 55q0 14 5 38t39 52t75 28zM466 864q-20 0 -36.5 -13.5t-19 -25.5t-2.5 -19q0 -15 10.5 -25.5t27.5 -10.5q20 0 36 13t21 34q4 19 -7 33t-30 14z" />
    <glyph glyph-name="AE" unicode="&#xc6;" horiz-adv-x="877" 
d="M855 76l-16 -76h-52q-69 0 -103.5 7t-64.5 27t-47.5 41t-34.5 58l-28 -133h-83l63 298h-254l16 76h254l11 49q7 31 7 61q0 115 -109 115q-148 0 -188 -190l-87 -409h-89l90 423q25 117 105 187t188 70q150 0 168 -164q126 151 329 151h51l-17 -77h-44q-115 0 -198 -55
t-123 -158h320l-17 -79h-320q-3 -18 -3 -35q0 -56 31 -103.5t73.5 -65.5t124.5 -18h47z" />
    <glyph glyph-name="Ccedilla" unicode="&#xc7;" horiz-adv-x="460" 
d="M449 80l-17 -80h-63l-33 -54q28 0 44.5 -13.5t16.5 -37.5q0 -5 -4.5 -26.5t-31.5 -41.5t-67 -20q-16 0 -29 3t-36 13l19 39q29 -14 49 -14q34 0 41 32q4 15 -5.5 24.5t-27.5 9.5l-20 -3l-12 6l51 84q-110 0 -177 73t-67 185q0 34 12.5 94t63 130.5t116 112t123 56.5
t136.5 15h43l-18 -82h-30q-73 0 -122.5 -14t-98.5 -49t-81.5 -84t-41.5 -91.5t-9 -69.5q0 -94 47 -134.5t85.5 -51.5t101.5 -11h42z" />
    <glyph glyph-name="Egrave" unicode="&#xc8;" horiz-adv-x="475" 
d="M453 77l-16 -77h-78q-160 0 -219.5 87t-59.5 172q0 33 19 124.5t138 187.5t265 96h77l-17 -77h-44q-116 0 -204.5 -58.5t-117.5 -153.5h321l-16 -77h-321q-3 -20 -3 -37q0 -51 27 -98t73 -68t122 -21h54zM277 858h67l177 -150h-67z" />
    <glyph glyph-name="Eacute" unicode="&#xc9;" horiz-adv-x="475" 
d="M453 77l-16 -77h-78q-160 0 -219.5 87t-59.5 172q0 33 19 124.5t138 187.5t265 96h77l-17 -77h-44q-116 0 -204.5 -58.5t-117.5 -153.5h321l-16 -77h-321q-3 -20 -3 -37q0 -51 27 -98t73 -68t122 -21h54zM553 858l-241 -150h-67l241 150h67z" />
    <glyph glyph-name="Ecircumflex" unicode="&#xca;" horiz-adv-x="475" 
d="M453 77l-16 -77h-78q-160 0 -219.5 87t-59.5 172q0 33 19 124.5t138 187.5t265 96h77l-17 -77h-44q-116 0 -204.5 -58.5t-117.5 -153.5h321l-16 -77h-321q-3 -20 -3 -37q0 -51 27 -98t73 -68t122 -21h54zM226 721l193 150l135 -150h-68l-80 89l-111 -89h-69z" />
    <glyph glyph-name="Edieresis" unicode="&#xcb;" horiz-adv-x="475" 
d="M453 77l-16 -77h-78q-160 0 -219.5 87t-59.5 172q0 33 19 124.5t138 187.5t265 96h77l-17 -77h-44q-116 0 -204.5 -58.5t-117.5 -153.5h321l-16 -77h-321q-3 -20 -3 -37q0 -51 27 -98t73 -68t122 -21h54zM330 828q15 0 25.5 -9.5t10.5 -25.5q0 -6 -2.5 -17.5t-17.5 -24.5
t-35 -13q-19 0 -29.5 13t-6.5 32q5 19 20.5 32t34.5 13zM497 830q19 0 29.5 -13t6.5 -32q-5 -20 -20 -33t-35 -13q-37 0 -37 36q0 7 2.5 18t18 24t35.5 13z" />
    <glyph glyph-name="Igrave" unicode="&#xcc;" horiz-adv-x="235" 
d="M163 0h-89l142 667h89zM157 858h67l177 -150h-67z" />
    <glyph glyph-name="Iacute" unicode="&#xcd;" horiz-adv-x="235" 
d="M163 0h-89l142 667h89zM433 858l-241 -150h-67l241 150h67z" />
    <glyph glyph-name="Icircumflex" unicode="&#xce;" horiz-adv-x="235" 
d="M162 0h-89l142 667h89zM106 721l193 150l135 -150h-68l-80 89l-111 -89h-69z" />
    <glyph glyph-name="Idieresis" unicode="&#xcf;" horiz-adv-x="235" 
d="M163 0h-89l142 667h89zM220 823q16 0 25 -11.5t6 -27.5q-4 -16 -18 -28t-30 -12q-32 0 -32 32q0 5 2 14t16.5 21t30.5 12zM367 824q16 0 25 -11.5t6 -27.5q-4 -16 -18 -28t-30 -12q-32 0 -32 32q0 5 2 14t16.5 21t30.5 12z" />
    <glyph glyph-name="Eth" unicode="&#xd0;" horiz-adv-x="584" 
d="M151 0h-89l64 300h-67l16 77h67l62 290h142q71 0 113.5 -10t87.5 -40.5t72 -87t27 -125.5q0 -32 -12.5 -89.5t-55 -124t-125 -128.5t-209.5 -62h-62l17 80h46q109 0 193 70t99 140.5t15 102.5q0 89 -57 143t-156 54h-63l-45 -213h166l-16 -77h-166z" />
    <glyph glyph-name="Ntilde" unicode="&#xd1;" horiz-adv-x="599" 
d="M590 667h89l-124 -584q-10 -46 -31 -68t-56 -22q-55 0 -74 72l-127 482l-116 -547h-89l123 578q20 96 90 96q57 0 77 -74l123 -474zM329 763l-23 31q56 55 110 55q17 0 29.5 -4.5t42.5 -19.5t46 -15q36 0 73 34l28 -30q-57 -53 -107 -53q-21 0 -29.5 3t-31 14.5t-38 16.5
t-25.5 5q-33 0 -75 -37z" />
    <glyph glyph-name="Ograve" unicode="&#xd2;" horiz-adv-x="725" 
d="M506 680q126 0 203 -76t77 -196q0 -29 -1.5 -42t-19 -94.5t-141 -183t-264.5 -101.5q-123 0 -201.5 77.5t-78.5 196.5q0 32 19 123.5t141.5 193.5t265.5 102zM490 599q-105 0 -196 -77t-105.5 -146.5t-14.5 -99.5q0 -91 55.5 -149.5t147.5 -58.5q103 0 195 78t106.5 147
t14.5 98q0 92 -56 150t-147 58zM402 858h67l177 -150h-67z" />
    <glyph glyph-name="Oacute" unicode="&#xd3;" horiz-adv-x="725" 
d="M506 680q126 0 203 -76t77 -196q0 -29 -1.5 -42t-19 -94.5t-141 -183t-264.5 -101.5q-123 0 -201.5 77.5t-78.5 196.5q0 32 19 123.5t141.5 193.5t265.5 102zM490 599q-105 0 -196 -77t-105.5 -146.5t-14.5 -99.5q0 -91 55.5 -149.5t147.5 -58.5q103 0 195 78t106.5 147
t14.5 98q0 92 -56 150t-147 58zM678 858l-241 -150h-67l241 150h67z" />
    <glyph glyph-name="Ocircumflex" unicode="&#xd4;" horiz-adv-x="725" 
d="M506 680q126 0 203 -76t77 -196q0 -29 -1.5 -42t-19 -94.5t-141 -183t-264.5 -101.5q-123 0 -201.5 77.5t-78.5 196.5q0 32 19 123.5t141.5 193.5t265.5 102zM490 599q-105 0 -196 -77t-105.5 -146.5t-14.5 -99.5q0 -91 55.5 -149.5t147.5 -58.5q103 0 195 78t106.5 147
t14.5 98q0 92 -56 150t-147 58zM352 721l193 150l135 -150h-68l-80 89l-111 -89h-69z" />
    <glyph glyph-name="Otilde" unicode="&#xd5;" horiz-adv-x="725" 
d="M506 680q126 0 203 -76t77 -196q0 -29 -1.5 -42t-19 -94.5t-141 -183t-264.5 -101.5q-123 0 -201.5 77.5t-78.5 196.5q0 32 19 123.5t141.5 193.5t265.5 102zM490 599q-105 0 -196 -77t-105.5 -146.5t-14.5 -99.5q0 -91 55.5 -149.5t147.5 -58.5q103 0 195 78t106.5 147
t14.5 98q0 92 -56 150t-147 58zM392 763l-23 31q56 55 110 55q17 0 29.5 -4.5t42.5 -19.5t46 -15q36 0 73 34l28 -30q-57 -53 -107 -53q-21 0 -29.5 3t-31 14.5t-38 16.5t-25.5 5q-33 0 -75 -37z" />
    <glyph glyph-name="Odieresis" unicode="&#xd6;" horiz-adv-x="725" 
d="M506 680q126 0 203 -76t77 -196q0 -29 -1.5 -42t-19 -94.5t-141 -183t-264.5 -101.5q-123 0 -201.5 77.5t-78.5 196.5q0 32 19 123.5t141.5 193.5t265.5 102zM490 599q-105 0 -196 -77t-105.5 -146.5t-14.5 -99.5q0 -91 55.5 -149.5t147.5 -58.5q103 0 195 78t106.5 147
t14.5 98q0 92 -56 150t-147 58zM455 828q15 0 25.5 -9.5t10.5 -25.5q0 -6 -2.5 -17.5t-17.5 -24.5t-35 -13q-19 0 -29.5 13t-6.5 32q5 19 20.5 32t34.5 13zM622 830q19 0 29.5 -13t6.5 -32q-5 -20 -20 -33t-35 -13q-37 0 -37 36q0 7 2.5 18t18 24t35.5 13z" />
    <glyph glyph-name="multiply" unicode="&#xd7;" 
d="M206 532l124 -157l191 158l26 -33l-192 -158l124 -157l-38 -32l-124 158l-192 -159l-26 33l192 158l-124 157z" />
    <glyph glyph-name="Oslash" unicode="&#xd8;" horiz-adv-x="725" 
d="M650 646l51 61h79l-80 -96q87 -81 87 -206q0 -22 -1 -33t-19.5 -96t-140 -187t-266.5 -102q-75 0 -142 34l-54 -65h-78l82 99q-88 85 -88 203q0 25 1 38t19 96.5t140.5 185.5t265.5 102q80 0 144 -34zM227 131l368 442q-47 26 -105 26q-105 0 -196 -77t-106 -147
t-15 -101q0 -80 54 -143zM642 535l-367 -441q49 -26 102 -26q104 0 195.5 78t104.5 140.5t15 77.5t2 29q0 81 -52 142z" />
    <glyph glyph-name="Ugrave" unicode="&#xd9;" horiz-adv-x="559" 
d="M563 667h89l-89 -419q-15 -69 -37 -111t-84.5 -96t-165.5 -54q-54 0 -95 21t-65 61t-24 89q0 32 9 76l92 433h89l-90 -422q-7 -32 -7 -62q0 -115 111 -115q77 0 113 44.5t46 69.5t20 72zM319 858h67l177 -150h-67z" />
    <glyph glyph-name="Uacute" unicode="&#xda;" horiz-adv-x="559" 
d="M563 667h89l-89 -419q-15 -69 -37 -111t-84.5 -96t-165.5 -54q-54 0 -95 21t-65 61t-24 89q0 32 9 76l92 433h89l-90 -422q-7 -32 -7 -62q0 -115 111 -115q77 0 113 44.5t46 69.5t20 72zM595 858l-241 -150h-67l241 150h67z" />
    <glyph glyph-name="Ucircumflex" unicode="&#xdb;" horiz-adv-x="559" 
d="M563 667h89l-89 -419q-15 -69 -37 -111t-84.5 -96t-165.5 -54q-54 0 -95 21t-65 61t-24 89q0 32 9 76l92 433h89l-90 -422q-7 -32 -7 -62q0 -115 111 -115q77 0 113 44.5t46 69.5t20 72zM269 721l193 150l135 -150h-68l-80 89l-111 -89h-69z" />
    <glyph glyph-name="Udieresis" unicode="&#xdc;" horiz-adv-x="559" 
d="M563 667h89l-89 -419q-15 -69 -37 -111t-84.5 -96t-165.5 -54q-54 0 -95 21t-65 61t-24 89q0 32 9 76l92 433h89l-90 -422q-7 -32 -7 -62q0 -115 111 -115q77 0 113 44.5t46 69.5t20 72zM372 828q15 0 25.5 -9.5t10.5 -25.5q0 -6 -2.5 -17.5t-17.5 -24.5t-35 -13
q-19 0 -29.5 13t-6.5 32q5 19 20.5 32t34.5 13zM539 830q19 0 29.5 -13t6.5 -32q-5 -20 -20 -33t-35 -13q-37 0 -37 36q0 7 2.5 18t18 24t35.5 13z" />
    <glyph glyph-name="Yacute" unicode="&#xdd;" horiz-adv-x="509" 
d="M298 0h-89l56 262q-69 14 -101 49t-32 99q0 31 10 81l38 176h89l-38 -177q-6 -30 -6 -53q0 -98 104 -98q125 0 156 145l39 183h89l-41 -190q-40 -187 -218 -215zM569 858l-241 -150h-66l240 150h67z" />
    <glyph glyph-name="Thorn" unicode="&#xde;" horiz-adv-x="535" 
d="M262 579h120q55 0 89 -9t71.5 -42t37.5 -116q0 -19 -12.5 -80t-84.5 -120t-169 -59h-108l16 77h96q63 0 107 36t53 78.5t9 58.5q0 99 -115 99h-126l-107 -502h-89l142 667h89z" />
    <glyph glyph-name="germandbls" unicode="&#xdf;" horiz-adv-x="564" 
d="M160 0h-80l81 383h-65l15 71h65l5 22q21 98 85.5 151t148.5 53q66 0 108 -32t42 -82q0 -13 -6 -41t-36.5 -57.5t-105.5 -67.5l42 -21q121 -61 121 -157v-22q-3 -11 -12.5 -56.5t-80.5 -94.5t-179 -49h-110l15 70h100q74 0 121.5 29.5t54.5 63.5t7 45q0 45 -24.5 67.5
t-33.5 28.5t-59.5 34.5t-44.5 52.5q3 14 20.5 25.5t46 29t50 40.5t25.5 40.5t4 22.5q0 27 -21 44t-55 17q-33 0 -62 -15t-46 -38t-23.5 -41.5t-16.5 -63.5z" />
    <glyph glyph-name="agrave" unicode="&#xe0;" horiz-adv-x="536" 
d="M492 0h-80l42 199q6 30 6 56q0 60 -32.5 94.5t-90.5 34.5q-65 0 -120 -46t-63.5 -87.5t-8.5 -57.5q0 -54 34.5 -88.5t92.5 -34.5q33 0 62.5 12t71.5 43l-18 -85q-38 -27 -70.5 -38t-72.5 -11q-83 0 -134.5 51.5t-51.5 132.5q0 24 13.5 87t97.5 132t184 69q86 0 138 -53
t52 -137q0 -28 -6 -58zM509 506h-67l-178 149h67z" />
    <glyph glyph-name="aacute" unicode="&#xe1;" horiz-adv-x="536" 
d="M492 0h-80l42 199q6 30 6 56q0 60 -32.5 94.5t-90.5 34.5q-65 0 -120 -46t-63.5 -87.5t-8.5 -57.5q0 -54 34.5 -88.5t92.5 -34.5q33 0 62.5 12t71.5 43l-18 -85q-38 -27 -70.5 -38t-72.5 -11q-83 0 -134.5 51.5t-51.5 132.5q0 24 13.5 87t97.5 132t184 69q86 0 138 -53
t52 -137q0 -28 -6 -58zM540 655l-240 -149h-67l240 149h67z" />
    <glyph glyph-name="acircumflex" unicode="&#xe2;" horiz-adv-x="536" 
d="M492 0h-80l42 199q6 30 6 56q0 60 -32.5 94.5t-90.5 34.5q-65 0 -120 -46t-63.5 -87.5t-8.5 -57.5q0 -54 34.5 -88.5t92.5 -34.5q33 0 62.5 12t71.5 43l-18 -85q-38 -27 -70.5 -38t-72.5 -11q-83 0 -134.5 51.5t-51.5 132.5q0 24 13.5 87t97.5 132t184 69q86 0 138 -53
t52 -137q0 -28 -6 -58zM214 518l193 150l135 -150h-68l-80 89l-111 -89h-69z" />
    <glyph glyph-name="atilde" unicode="&#xe3;" horiz-adv-x="536" 
d="M492 0h-80l42 199q6 30 6 56q0 60 -32.5 94.5t-90.5 34.5q-65 0 -120 -46t-63.5 -87.5t-8.5 -57.5q0 -54 34.5 -88.5t92.5 -34.5q33 0 62.5 12t71.5 43l-18 -85q-38 -27 -70.5 -38t-72.5 -11q-83 0 -134.5 51.5t-51.5 132.5q0 24 13.5 87t97.5 132t184 69q86 0 138 -53
t52 -137q0 -28 -6 -58zM250 537l-23 32q57 54 110 54q17 0 29.5 -4.5t42.5 -19.5t46 -15q35 0 74 35l27 -31q-56 -53 -107 -53q-21 0 -29.5 3t-31 14.5t-38 16.5t-25.5 5q-33 0 -75 -37z" />
    <glyph glyph-name="adieresis" unicode="&#xe4;" horiz-adv-x="536" 
d="M492 0h-80l42 199q6 30 6 56q0 60 -32.5 94.5t-90.5 34.5q-65 0 -120 -46t-63.5 -87.5t-8.5 -57.5q0 -54 34.5 -88.5t92.5 -34.5q33 0 62.5 12t71.5 43l-18 -85q-38 -27 -70.5 -38t-72.5 -11q-83 0 -134.5 51.5t-51.5 132.5q0 24 13.5 87t97.5 132t184 69q86 0 138 -53
t52 -137q0 -28 -6 -58zM318 624q36 0 36 -36q0 -6 -2.5 -17t-17.5 -24t-35 -13q-19 0 -29.5 13t-6.5 32t20 32t35 13zM485 626q15 0 25.5 -9.5t10.5 -25.5q0 -6 -2.5 -18t-17.5 -25t-35 -13q-19 0 -30 13t-7 33q5 19 20.5 32t35.5 13z" />
    <glyph glyph-name="aring" unicode="&#xe5;" horiz-adv-x="536" 
d="M492 0h-80l42 199q6 30 6 56q0 60 -32.5 94.5t-90.5 34.5q-65 0 -120 -46t-63.5 -87.5t-8.5 -57.5q0 -54 34.5 -88.5t92.5 -34.5q33 0 62.5 12t71.5 43l-18 -85q-38 -27 -70.5 -38t-72.5 -11q-83 0 -134.5 51.5t-51.5 132.5q0 24 13.5 87t97.5 132t184 69q86 0 138 -53
t52 -137q0 -28 -6 -58zM418 701q34 0 55 -21t21 -55q0 -5 -5 -32t-38 -54.5t-73 -27.5q-35 0 -56 21t-21 54q0 6 5 33t38 54.5t74 27.5zM407 653q-20 0 -36.5 -13.5t-19 -25.5t-2.5 -19q0 -15 10.5 -25.5t27.5 -10.5q20 0 36 13t21 34q4 19 -7 33t-30 14z" />
    <glyph glyph-name="ae" unicode="&#xe6;" horiz-adv-x="853" 
d="M817 189l52 -32q-44 -81 -111.5 -123.5t-151.5 -42.5q-134 0 -177 117q-45 -61 -100 -89t-130 -28q-69 0 -108.5 30t-39.5 81q0 12 7 45.5t45 64.5t126 59l182 57q-9 63 -114 63q-61 0 -136 -36l-31 56q49 26 94.5 39t90.5 13q151 0 171 -110q84 110 215 110
q151 0 184 -147l-339 -144l-16 62l256 106q-30 51 -103 51q-65 0 -118.5 -45.5t-62.5 -88.5t-9 -64q0 -57 35.5 -93.5t94.5 -36.5q58 0 104.5 30t89.5 96zM419 271l-159 -55q-67 -23 -91.5 -39.5t-27.5 -31t-3 -23.5q0 -27 25 -43t70 -16q68 0 117 41t58.5 88t10 59t0.5 20z
" />
    <glyph glyph-name="ccedilla" unicode="&#xe7;" horiz-adv-x="351" 
d="M339 71l-15 -71h-55l-35 -54q59 -8 59 -54q0 -4 -4.5 -25t-31.5 -41t-65 -20q-28 0 -61 16l15 34q25 -11 48 -11q14 0 27 10t16 24q4 15 -4.5 24.5t-24.5 9.5q-13 0 -26 -4l-7 7l53 84q-38 4 -60 12t-65 42.5t-43 125.5q0 14 1 21.5t8.5 44t42 85t78 76t81 37.5t89.5 10
h60l-14 -70h-28q-60 0 -88.5 -7t-77.5 -42t-58 -78.5t-9 -63.5q0 -57 29.5 -82.5t56.5 -32.5t80 -7h28z" />
    <glyph glyph-name="egrave" unicode="&#xe8;" horiz-adv-x="504" 
d="M478 210l49 -31q-94 -188 -275 -188q-85 0 -138.5 53.5t-53.5 135.5q0 14 1 21.5t13.5 66.5t94.5 127t183 68q134 0 182 -135l-332 -190l-21 59l252 148q-28 46 -96 46q-66 0 -119.5 -44.5t-62 -84t-9.5 -47.5t-1 -18q0 -58 37 -96t94 -38q63 0 115.5 38.5t86.5 108.5z
M493 506h-67l-178 149h67z" />
    <glyph glyph-name="eacute" unicode="&#xe9;" horiz-adv-x="504" 
d="M478 210l49 -31q-94 -188 -275 -188q-85 0 -138.5 53.5t-53.5 135.5q0 14 1 21.5t13.5 66.5t94.5 127t183 68q134 0 182 -135l-332 -190l-21 59l252 148q-28 46 -96 46q-66 0 -119.5 -44.5t-62 -84t-9.5 -47.5t-1 -18q0 -58 37 -96t94 -38q63 0 115.5 38.5t86.5 108.5z
M524 655l-240 -149h-67l240 149h67z" />
    <glyph glyph-name="ecircumflex" unicode="&#xea;" horiz-adv-x="504" 
d="M478 210l49 -31q-94 -188 -275 -188q-85 0 -138.5 53.5t-53.5 135.5q0 14 1 21.5t13.5 66.5t94.5 127t183 68q134 0 182 -135l-332 -190l-21 59l252 148q-28 46 -96 46q-66 0 -119.5 -44.5t-62 -84t-9.5 -47.5t-1 -18q0 -58 37 -96t94 -38q63 0 115.5 38.5t86.5 108.5z
M198 518l193 150l135 -150h-68l-80 89l-111 -89h-69z" />
    <glyph glyph-name="edieresis" unicode="&#xeb;" horiz-adv-x="504" 
d="M478 210l49 -31q-94 -188 -275 -188q-85 0 -138.5 53.5t-53.5 135.5q0 14 1 21.5t13.5 66.5t94.5 127t183 68q134 0 182 -135l-332 -190l-21 59l252 148q-28 46 -96 46q-66 0 -119.5 -44.5t-62 -84t-9.5 -47.5t-1 -18q0 -58 37 -96t94 -38q63 0 115.5 38.5t86.5 108.5z
M302 624q36 0 36 -36q0 -6 -2.5 -17t-17.5 -24t-35 -13q-19 0 -29.5 13t-6.5 32t20 32t35 13zM469 626q15 0 25.5 -9.5t10.5 -25.5q0 -6 -2.5 -18t-17.5 -25t-35 -13q-19 0 -30 13t-7 33q5 19 20.5 32t35.5 13z" />
    <glyph glyph-name="igrave" unicode="&#xec;" horiz-adv-x="231" 
d="M163 0h-80l96 454h80zM357 506h-67l-178 149h67z" />
    <glyph glyph-name="iacute" unicode="&#xed;" horiz-adv-x="231" 
d="M163 0h-80l96 454h80zM388 655l-240 -149h-67l240 149h67z" />
    <glyph glyph-name="icircumflex" unicode="&#xee;" horiz-adv-x="231" 
d="M162 0h-80l96 454h80zM61 518l193 150l135 -150h-68l-80 89l-111 -89h-69z" />
    <glyph glyph-name="idieresis" unicode="&#xef;" horiz-adv-x="231" 
d="M163 0h-80l96 454h80zM175 619q17 0 25.5 -11.5t4.5 -27.5q-3 -16 -17 -28t-30 -12q-17 0 -26 11t-6 29q4 15 18.5 27t30.5 12zM322 620q17 0 25.5 -11.5t4.5 -27.5q-3 -16 -17 -28t-30 -12q-17 0 -26 11t-6 29q4 15 18.5 27t30.5 12z" />
    <glyph glyph-name="eth" unicode="&#xf0;" horiz-adv-x="511" 
d="M358 655l157 116l29 -45l-130 -97q149 -94 149 -265q0 -50 -19 -138t-100.5 -161.5t-188.5 -73.5q-85 0 -139.5 52.5t-54.5 134.5q0 24 13 86.5t97 130.5t184 68q28 0 47 -5t57 -22q-16 55 -41 87t-71 57l-156 -115l-29 44l132 98q-32 13 -65 21t-76 13l44 49
q45 0 83.5 -9t77.5 -26zM339 384q-66 0 -121 -45t-64 -86.5t-9 -57.5q0 -55 35.5 -90.5t93.5 -35.5q61 0 116 47t63.5 87.5t8.5 59.5q0 52 -34.5 86.5t-88.5 34.5z" />
    <glyph glyph-name="ntilde" unicode="&#xf1;" horiz-adv-x="483" 
d="M438 0h-80l51 238q6 29 6 51q0 95 -91 95q-117 0 -149 -150l-50 -234h-80l54 256q20 94 86 150.5t156 56.5q74 0 116 -41t42 -112q0 -24 -6 -53zM222 537l-23 32q57 54 110 54q17 0 29.5 -4.5t42.5 -19.5t46 -15q35 0 74 35l27 -31q-56 -53 -107 -53q-21 0 -29.5 3
t-31 14.5t-38 16.5t-25.5 5q-33 0 -75 -37z" />
    <glyph glyph-name="ograve" unicode="&#xf2;" horiz-adv-x="509" 
d="M355 463q83 0 136.5 -53.5t53.5 -135.5q0 -11 -1 -24.5t-12.5 -67t-95.5 -122.5t-181 -69q-86 0 -140.5 52.5t-54.5 134.5q0 24 13 86t97.5 130.5t184.5 68.5zM339 384q-66 0 -121 -45t-63 -81t-9 -46t-1 -18q0 -55 35.5 -89.5t93.5 -34.5q60 0 115 46t62 81.5t8.5 43.5
t1.5 18q0 54 -33.5 89.5t-88.5 35.5zM496 506h-67l-178 149h67z" />
    <glyph glyph-name="oacute" unicode="&#xf3;" horiz-adv-x="509" 
d="M355 463q83 0 136.5 -53.5t53.5 -135.5q0 -11 -1 -24.5t-12.5 -67t-95.5 -122.5t-181 -69q-86 0 -140.5 52.5t-54.5 134.5q0 24 13 86t97.5 130.5t184.5 68.5zM339 384q-66 0 -121 -45t-63 -81t-9 -46t-1 -18q0 -55 35.5 -89.5t93.5 -34.5q60 0 115 46t62 81.5t8.5 43.5
t1.5 18q0 54 -33.5 89.5t-88.5 35.5zM527 655l-240 -149h-67l240 149h67z" />
    <glyph glyph-name="ocircumflex" unicode="&#xf4;" horiz-adv-x="509" 
d="M355 463q83 0 136.5 -53.5t53.5 -135.5q0 -11 -1 -24.5t-12.5 -67t-95.5 -122.5t-181 -69q-86 0 -140.5 52.5t-54.5 134.5q0 24 13 86t97.5 130.5t184.5 68.5zM339 384q-66 0 -121 -45t-63 -81t-9 -46t-1 -18q0 -55 35.5 -89.5t93.5 -34.5q60 0 115 46t62 81.5t8.5 43.5
t1.5 18q0 54 -33.5 89.5t-88.5 35.5zM201 518l193 150l135 -150h-68l-80 89l-111 -89h-69z" />
    <glyph glyph-name="otilde" unicode="&#xf5;" horiz-adv-x="509" 
d="M355 463q83 0 136.5 -53.5t53.5 -135.5q0 -11 -1 -24.5t-12.5 -67t-95.5 -122.5t-181 -69q-86 0 -140.5 52.5t-54.5 134.5q0 24 13 86t97.5 130.5t184.5 68.5zM339 384q-66 0 -121 -45t-63 -81t-9 -46t-1 -18q0 -55 35.5 -89.5t93.5 -34.5q60 0 115 46t62 81.5t8.5 43.5
t1.5 18q0 54 -33.5 89.5t-88.5 35.5zM236 537l-23 32q57 54 110 54q17 0 29.5 -4.5t42.5 -19.5t46 -15q35 0 74 35l27 -31q-56 -53 -107 -53q-21 0 -29.5 3t-31 14.5t-38 16.5t-25.5 5q-33 0 -75 -37z" />
    <glyph glyph-name="odieresis" unicode="&#xf6;" horiz-adv-x="509" 
d="M355 463q83 0 136.5 -53.5t53.5 -135.5q0 -11 -1 -24.5t-12.5 -67t-95.5 -122.5t-181 -69q-86 0 -140.5 52.5t-54.5 134.5q0 24 13 86t97.5 130.5t184.5 68.5zM339 384q-66 0 -121 -45t-63 -81t-9 -46t-1 -18q0 -55 35.5 -89.5t93.5 -34.5q60 0 115 46t62 81.5t8.5 43.5
t1.5 18q0 54 -33.5 89.5t-88.5 35.5zM304 624q36 0 36 -36q0 -6 -2.5 -17t-17.5 -24t-35 -13q-19 0 -29.5 13t-6.5 32t20 32t35 13zM471 626q15 0 25.5 -9.5t10.5 -25.5q0 -6 -2.5 -18t-17.5 -25t-35 -13q-19 0 -30 13t-7 33q5 19 20.5 32t35.5 13z" />
    <glyph glyph-name="divide" unicode="&#xf7;" 
d="M100 365h457l-10 -45h-457zM372 567q16 0 26 -12t6 -29t-18 -29t-32 -12q-16 0 -26 12t-6 29t18 29t32 12zM293 200q16 0 26 -12t6 -29t-18 -29t-32 -12q-16 0 -26 12t-6 29t18 29t32 12z" />
    <glyph glyph-name="oslash" unicode="&#xf8;" horiz-adv-x="509" 
d="M446 443l57 69h61l-79 -96q61 -58 61 -142q0 -24 -13 -84.5t-97 -129.5t-181 -69q-30 0 -49 4t-46 17l-55 -67h-63l78 93q-60 62 -60 138q0 24 13 87t97.5 131.5t184.5 68.5q48 0 91 -20zM175 110l217 263q-25 11 -53 11q-66 0 -121 -45t-64 -86t-9 -61q0 -44 30 -82z
M430 345l-215 -264q15 -7 27.5 -9t31.5 -2q60 0 115 46t62.5 80.5t8.5 44.5t1 18q0 49 -31 86z" />
    <glyph glyph-name="ugrave" unicode="&#xf9;" horiz-adv-x="483" 
d="M454 454h80l-54 -258q-19 -92 -85.5 -148.5t-155.5 -56.5q-74 0 -116 41t-42 110q0 25 6 54l54 258h80l-50 -239q-6 -27 -6 -50q0 -45 23 -70t67 -25q65 0 100 42t50 110zM483 506h-67l-178 149h67z" />
    <glyph glyph-name="uacute" unicode="&#xfa;" horiz-adv-x="483" 
d="M454 454h80l-54 -258q-19 -92 -85.5 -148.5t-155.5 -56.5q-74 0 -116 41t-42 110q0 25 6 54l54 258h80l-50 -239q-6 -27 -6 -50q0 -45 23 -70t67 -25q65 0 100 42t50 110zM514 655l-240 -149h-67l240 149h67z" />
    <glyph glyph-name="ucircumflex" unicode="&#xfb;" horiz-adv-x="483" 
d="M454 454h80l-54 -258q-19 -92 -85.5 -148.5t-155.5 -56.5q-74 0 -116 41t-42 110q0 25 6 54l54 258h80l-50 -239q-6 -27 -6 -50q0 -45 23 -70t67 -25q65 0 100 42t50 110zM187 518l193 150l135 -150h-68l-80 89l-111 -89h-69z" />
    <glyph glyph-name="udieresis" unicode="&#xfc;" horiz-adv-x="483" 
d="M454 454h80l-54 -258q-19 -92 -85.5 -148.5t-155.5 -56.5q-74 0 -116 41t-42 110q0 25 6 54l54 258h80l-50 -239q-6 -27 -6 -50q0 -45 23 -70t67 -25q65 0 100 42t50 110zM291 624q36 0 36 -36q0 -6 -2.5 -17t-17.5 -24t-35 -13q-19 0 -29.5 13t-6.5 32t20 32t35 13z
M458 626q15 0 25.5 -9.5t10.5 -25.5q0 -6 -2.5 -18t-17.5 -25t-35 -13q-19 0 -30 13t-7 33q5 19 20.5 32t35.5 13z" />
    <glyph glyph-name="yacute" unicode="&#xfd;" horiz-adv-x="477" 
d="M447 454h80l-54 -258q-37 -173 -193 -202l-44 -208h-80l44 208q-121 15 -121 135q0 31 7 62l55 263h80l-54 -258q-5 -25 -5 -42q0 -87 91 -87q111 0 141 133zM510 655l-239 -149h-67l240 149h66z" />
    <glyph glyph-name="thorn" unicode="&#xfe;" horiz-adv-x="537" 
d="M187 667h80l-44 -208h140q48 0 71 -3t57 -17t58.5 -56.5t24.5 -99.5q0 -16 -2.5 -33t-13.5 -69.5t-93 -121.5t-177 -69q-70 0 -122 49l19 87q27 -31 53 -44t60 -13q66 0 119.5 45t61.5 83t9 52.5t1 15.5q0 67 -34.5 95.5t-101.5 28.5h-145l-128 -602h-80z" />
    <glyph glyph-name="ydieresis" unicode="&#xff;" horiz-adv-x="477" 
d="M447 454h80l-54 -258q-37 -173 -193 -202l-44 -208h-80l44 208q-121 15 -121 135q0 31 7 62l55 263h80l-54 -258q-5 -25 -5 -42q0 -87 91 -87q111 0 141 133zM288 624q36 0 36 -36q0 -6 -2.5 -17t-17.5 -24t-35 -13q-19 0 -29.5 13t-6.5 32t20 32t35 13zM455 626
q15 0 25.5 -9.5t10.5 -25.5q0 -6 -2.5 -18t-17.5 -25t-35 -13q-19 0 -30 13t-7 33q5 19 20.5 32t35.5 13z" />
    <glyph glyph-name="dotlessi" unicode="&#x131;" horiz-adv-x="231" 
d="M163 0h-80l96 454h80z" />
    <glyph glyph-name="Lslash" unicode="&#x141;" horiz-adv-x="484" 
d="M480 77l-16 -77h-122q-95 0 -140.5 35.5t-45.5 111.5q0 20 2 37.5t8 44.5l12 59l-92 -61l18 82l92 61l63 297h89l-53 -248l190 126l-17 -81l-190 -126l-17 -78q-12 -57 -12 -88q0 -21 6 -36.5t19 -30t39 -21.5t75 -7h92z" />
    <glyph glyph-name="lslash" unicode="&#x142;" horiz-adv-x="267" 
d="M173 0h-80l60 284l-76 -51l14 67l77 51l67 316h80l-58 -270l78 50l-14 -67l-78 -51z" />
    <glyph glyph-name="OE" unicode="&#x152;" horiz-adv-x="1062" 
d="M1040 77l-16 -77h-56q-120 0 -180 38t-91 134q-69 -89 -156 -137t-182 -48q-122 0 -200.5 77.5t-78.5 195.5q0 34 19 125t142 193t266 102q97 0 162.5 -48.5t94.5 -142.5q73 94 155.5 136t196.5 42h50l-17 -78h-35q-242 0 -329 -214h319l-17 -77h-319q-1 -10 -1.5 -20.5
t-0.5 -15.5q0 -45 23 -92t72 -70t137 -23h42zM494 599q-108 0 -198.5 -77t-105 -148t-14.5 -99q0 -89 56.5 -147.5t145.5 -58.5q104 0 194 77t104.5 147t14.5 98q0 89 -55.5 148.5t-141.5 59.5z" />
    <glyph glyph-name="oe" unicode="&#x153;" horiz-adv-x="888" 
d="M851 190l54 -35q-100 -164 -268 -164q-125 0 -168 115q-93 -115 -221 -115q-84 0 -136 53t-52 134q0 14 1 22t13 66.5t94 127.5t181 69q67 0 112 -31t58 -87q86 118 216 118q157 0 193 -162l-343 -145l-17 60l265 110q-12 29 -42 47t-68 18q-66 0 -120.5 -45.5t-63.5 -88
t-9 -62.5q0 -57 36.5 -94.5t94.5 -37.5q57 0 108 34t82 93zM336 384q-64 0 -119 -46t-63.5 -87t-8.5 -57q0 -54 34 -89t90 -35q63 0 117.5 46t62.5 82t9 46t1 18q0 53 -34.5 87.5t-88.5 34.5z" />
    <glyph glyph-name="Scaron" unicode="&#x160;" horiz-adv-x="519" 
d="M39 0l16 77h209q142 0 153 53.5t11 60.5q0 48 -57 78l-150 79q-81 43 -81 117v15.5t19.5 96.5t226.5 90h203l-17 -77h-179q-49 0 -71 -4t-49.5 -23t-33.5 -46t-6 -37q0 -38 53 -66l159 -81q78 -40 78 -118q0 -17 -20.5 -116t-229.5 -99h-234zM276 850h69l73 -89l118 89
h68l-199 -150z" />
    <glyph glyph-name="scaron" unicode="&#x161;" horiz-adv-x="447" 
d="M48 0l15 70h179h10q39 0 49.5 1.5t28 9.5t22 26t4.5 26q0 13 -7 21t-25 14l-157 60q-68 26 -68 83q0 13 13.5 78t179.5 65h182l-14 -70h-194q-39 0 -58.5 -11.5t-23 -27.5t-3.5 -23q0 -23 33 -35l146 -56q43 -16 61.5 -35.5t18.5 -50.5q0 -12 -14 -78.5t-165 -66.5h-213z
M196 646h69l73 -89l118 89h68l-199 -150z" />
    <glyph glyph-name="Ydieresis" unicode="&#x178;" horiz-adv-x="509" 
d="M298 0h-89l56 262q-69 14 -101 49t-32 99q0 31 10 81l38 176h89l-38 -177q-6 -30 -6 -53q0 -98 104 -98q125 0 156 145l39 183h89l-41 -190q-40 -187 -218 -215zM347 828q15 0 25.5 -9.5t10.5 -25.5q0 -6 -2.5 -17.5t-17.5 -24.5t-35 -13q-19 0 -29.5 13t-6.5 32
q5 19 20.5 32t34.5 13zM514 830q19 0 29.5 -13t6.5 -32q-5 -20 -20 -33t-35 -13q-37 0 -37 36q0 7 2.5 18t18 24t35.5 13z" />
    <glyph glyph-name="Zcaron" unicode="&#x17d;" horiz-adv-x="533" 
d="M511 77l-16 -77h-361q-84 0 -84 52q0 5 4.5 25t44.5 65l430 448h-329l17 77h322q82 0 82 -52q0 -5 -3 -20t-14.5 -32.5t-43.5 -51.5l-417 -434h368zM283 850h69l73 -89l118 89h68l-199 -150z" />
    <glyph glyph-name="zcaron" unicode="&#x17f;" horiz-adv-x="413" 
d="M82 116l257 239q8 7 13 11.5t6 9.5q1 4 -4.5 5.5t-19.5 1.5h-205l15 70l250 1q68 0 68 -48q0 -3 -3 -16t-11 -24.5t-36 -37.5l-249 -234q-14 -14 -15 -18q1 -2 4.5 -4t18.5 -2h230l-15 -70h-282q-67 0 -67 42q0 4 3 18t9.5 23t32.5 33zM180 646h69l73 -89l118 89h68
l-199 -150z" />
    <glyph glyph-name="florin" unicode="&#x192;" horiz-adv-x="530" 
d="M348 453h-67l25 63h67l15 41q71 176 252 176h42l-25 -69h-29q-117 0 -160 -110l-15 -38h122l-26 -63h-121l-161 -410q-33 -86 -97 -131t-153 -45h-42l24 69h28q62 0 100 26t61 84z" />
    <glyph glyph-name="hungarumlaut" unicode="&#x2ba;" 
d="M455 646l-204 -127h-57l205 127h56zM602 646l-205 -127h-56l204 127h57z" />
    <glyph glyph-name="circumflex" unicode="&#x2c6;" 
d="M196 518l193 150l135 -150h-68l-80 89l-111 -89h-69z" />
    <glyph glyph-name="caron" unicode="&#x2c7;" 
d="M223 646h69l73 -89l118 89h68l-199 -150z" />
    <glyph glyph-name="breve" unicode="&#x2d8;" 
d="M489 648h45q-15 -61 -61 -95t-113 -34q-58 0 -89.5 26.5t-31.5 74.5q0 13 3 28h45q0 -44 19.5 -62.5t64.5 -18.5t71 18t47 63z" />
    <glyph glyph-name="dotaccent" unicode="&#x2d9;" 
d="M383 624q36 0 36 -36q0 -6 -2.5 -17t-17.5 -24t-35 -13q-19 0 -29.5 13t-6.5 32t20 32t35 13z" />
    <glyph glyph-name="ring" unicode="&#x2da;" 
d="M399 701q34 0 55 -21t21 -55q0 -5 -5 -32t-38 -54.5t-73 -27.5q-35 0 -56 21t-21 54q0 6 5 33t38 54.5t74 27.5zM388 653q-20 0 -36.5 -13.5t-19 -25.5t-2.5 -19q0 -15 10.5 -25.5t27.5 -10.5q20 0 36 13t21 34q4 19 -7 33t-30 14z" />
    <glyph glyph-name="ogonek" unicode="&#x2db;" 
d="M303 0l-8 -39h-10q-54 0 -59 -22.5t-5 -26v-4.5q0 -32 46 -32h10l-9 -39h-14q-38 0 -59.5 17.5t-21.5 46.5q0 6 5 29.5t36.5 46.5t74.5 23h14z" />
    <glyph glyph-name="tilde" unicode="&#x2dc;" 
d="M231 537l-23 32q57 54 110 54q17 0 29.5 -4.5t42.5 -19.5t46 -15q35 0 74 35l27 -31q-56 -53 -107 -53q-21 0 -29.5 3t-31 14.5t-38 16.5t-25.5 5q-33 0 -75 -37z" />
    <glyph glyph-name="summation" unicode="&#x3a3;" horiz-adv-x="667" 
d="M758 750l-49 -231h-75l25 155h-390l162 -405l-342 -443h399l38 156h79l-49 -232h-575l19 88l334 431l-159 395l18 86h565z" />
    <glyph glyph-name="Omega" unicode="&#x3a9;" horiz-adv-x="666" 
d="M27 0l15 72h179q-127 84 -127 221q0 31 18.5 118.5t126.5 179.5t239 92q110 0 178.5 -69.5t68.5 -178.5q0 -33 -23.5 -145.5t-227.5 -217.5h179l-15 -72h-261l14 67q98 48 159 121t74 133.5t13 94.5q0 86 -48 140t-127 54q-93 0 -174.5 -75.5t-94.5 -137t-15 -81.5
t-2 -37q0 -134 126 -212l-14 -67h-261z" />
    <glyph glyph-name="pi" unicode="&#x3c0;" horiz-adv-x="561" 
d="M91 0l88 416h-72l14 63h523l-14 -63h-72l-88 -416h-78l88 416h-223l-88 -416h-78z" />
    <glyph glyph-name="endash" unicode="&#x2013;" horiz-adv-x="530" 
d="M111 204l14 64h393l-14 -64h-393z" />
    <glyph glyph-name="emdash" unicode="&#x2014;" horiz-adv-x="633" 
d="M43 204l14 64h633l-14 -64h-633z" />
    <glyph glyph-name="quoteleft" unicode="&#x2018;" horiz-adv-x="182" 
d="M146 500l82 167h56l-64 -167h-74z" />
    <glyph glyph-name="quoteright" unicode="&#x2019;" horiz-adv-x="182" 
d="M284 667l-83 -167h-55l64 167h74z" />
    <glyph glyph-name="quotesinglbase" unicode="&#x201a;" horiz-adv-x="182" 
d="M159 79l-83 -167h-55l64 167h74z" />
    <glyph glyph-name="quotedblleft" unicode="&#x201c;" horiz-adv-x="301" 
d="M265 500l83 167h55l-64 -167h-74zM146 500l83 167h55l-64 -167h-74z" />
    <glyph glyph-name="quotedblright" unicode="&#x201d;" horiz-adv-x="301" 
d="M403 667l-82 -167h-56l64 167h74zM284 667l-83 -167h-55l64 167h74z" />
    <glyph glyph-name="quotedblbase" unicode="&#x201e;" horiz-adv-x="301" 
d="M278 79l-82 -167h-56l64 167h74zM159 79l-83 -167h-55l64 167h74z" />
    <glyph glyph-name="dagger" unicode="&#x2020;" horiz-adv-x="482" 
d="M289 412h-172l15 72h172l39 183h80l-39 -183h171l-15 -72h-171l-118 -554h-80z" />
    <glyph glyph-name="daggerdbl" unicode="&#x2021;" horiz-adv-x="482" 
d="M290 418h-172l15 72h172l38 177h80l-38 -177h171l-15 -72h-171l-66 -312h171l-16 -72h-171l-37 -176h-80l37 176h-172l16 72h172z" />
    <glyph glyph-name="bullet" unicode="&#x2022;" horiz-adv-x="667" 
d="M437 477q49 0 80 -31t31 -79q0 -14 -7.5 -49.5t-56.5 -76.5t-105 -41q-50 0 -82 31t-32 80q0 13 7.5 49t57 76.5t107.5 40.5z" />
    <glyph glyph-name="ellipsis" unicode="&#x2026;" horiz-adv-x="590" 
d="M121 107q20 0 33 -13t13 -33q0 -8 -3 -22t-23.5 -31t-44.5 -17q-21 0 -34 13t-13 34q0 7 3 21t24 31t45 17zM318 107q20 0 33 -13t13 -33q0 -8 -3 -22t-23.5 -31t-44.5 -17q-21 0 -34 13t-13 34q0 7 3 21t24 31t45 17zM514 107q20 0 33 -13t13 -33q0 -8 -3 -22t-23.5 -31
t-44.5 -17q-21 0 -34 13t-13 34q0 7 3 21t24 31t45 17z" />
    <glyph glyph-name="perthousand" unicode="&#x2030;" horiz-adv-x="1049" 
d="M111 0l571 667h54l-571 -667h-54zM335 674q54 0 88 -34t34 -87q0 -14 -8.5 -54t-61.5 -84t-116 -44q-55 0 -89 34t-34 86q0 14 8 54t62 84.5t117 44.5zM322 610q-37 0 -68 -25t-36 -49.5t-5 -30.5q0 -31 19.5 -50.5t51.5 -19.5q36 0 67 25.5t36 50t5 30.5q0 29 -19 49
t-51 20zM576 294q55 0 89 -34t34 -87q0 -14 -8 -54t-62 -84.5t-117 -44.5q-56 0 -90 34t-34 87q0 14 8 54t62.5 84.5t117.5 44.5zM563 230q-37 0 -68.5 -25.5t-36.5 -50t-5 -30.5q0 -30 20 -50t52 -20q37 0 68 25t36 51t5 31q0 30 -19.5 49.5t-51.5 19.5zM919 294
q55 0 89 -34t34 -87q0 -14 -8 -54t-62 -84.5t-117 -44.5q-55 0 -89 34t-34 87q0 14 8 54t62 84.5t117 44.5zM906 230q-37 0 -67.5 -25t-36 -50t-5.5 -31q0 -31 19.5 -50.5t51.5 -19.5q37 0 68 25t36 47.5t5 35.5q0 30 -19.5 49t-51.5 19z" />
    <glyph glyph-name="guilsinglleft" unicode="&#x2039;" horiz-adv-x="247" 
d="M162 119l-72 116l119 119h73l-122 -119l72 -116h-70z" />
    <glyph glyph-name="guilsinglright" unicode="&#x203a;" horiz-adv-x="247" 
d="M185 354l73 -116l-120 -119h-73l123 119l-73 116h70z" />
    <glyph glyph-name="trademark" unicode="&#x2122;" horiz-adv-x="850" 
d="M253 267h-63l74 348h-105l11 52h273l-11 -52h-105zM879 267h-62l29 320l-152 -289q-19 -35 -49 -35q-31 0 -35 45l-26 281l-108 -322h-62l119 350q18 54 64 54q42 0 48 -47l22 -262l136 258q26 51 70 51q24 0 32 -12t8 -43z" />
    <glyph glyph-name="partialdiff" unicode="&#x2202;" 
d="M211 604l24 66q84 -11 135.5 -35t106.5 -89.5t55 -196.5q0 -52 -18 -137t-92 -154t-173 -69q-80 0 -129 50t-49 127q0 14 1 22t12.5 63t84 119.5t156.5 64.5q53 0 79.5 -14.5t55.5 -58.5l-3 12t-9.5 43t-23.5 63t-41.5 53.5t-71.5 44t-100 26.5zM335 372q-64 0 -117 -45
t-62 -87t-9 -62q0 -53 32 -88t82 -35q62 0 113 46t59.5 84.5t9.5 50t1 20.5q0 52 -29 84t-80 32z" />
    <glyph glyph-name="Delta" unicode="&#x2206;" horiz-adv-x="625" 
d="M6 0l405 667h85l122 -667h-612zM128 72h396l-89 506z" />
    <glyph glyph-name="product" unicode="&#x220f;" horiz-adv-x="667" 
d="M185 750h614l-14 -67h-73l-184 -866h73l-14 -67h-223l14 67h75l184 866h-318l-184 -866h74l-14 -67h-222l14 67h74l184 866h-74z" />
    <glyph glyph-name="minus" unicode="&#x2212;" 
d="M100 365h457l-10 -45h-457z" />
    <glyph glyph-name="fraction" unicode="&#x2215;" horiz-adv-x="123" 
d="M-180 0l570 667h55l-571 -667h-54z" />
    <glyph glyph-name="radical" unicode="&#x221a;" horiz-adv-x="667" 
d="M843 827l-15 -69h-190l-384 -758h-90l-21 290h-81l14 69h129l13 -137l1 -32l1 -68l1 -19v-6v-5v-6h4l20 44l37 79l16 34q8 17 16 35q10 18 28 54l55 108l195 387h251z" />
    <glyph glyph-name="infinity" unicode="&#x221e;" horiz-adv-x="667" 
d="M399 299q-101 -110 -190 -110q-56 0 -89 31t-33 83v22q3 11 10.5 46.5t58.5 77.5t117 42q90 0 141 -110q96 110 190 110q56 0 88 -31t32 -84v-22q-3 -11 -10.5 -46t-57.5 -77t-115 -42q-48 0 -82.5 26.5t-59.5 83.5zM436 340q22 -51 48 -74t62 -23q41 0 72 27t37 55t6 39
q0 33 -20 53t-55 20q-54 0 -112 -56l-26 -28zM375 340q-23 52 -48 74.5t-61 22.5q-41 0 -72.5 -27.5t-37.5 -55t-6 -38.5q0 -33 21 -53t55 -20q54 0 112 56l26 28z" />
    <glyph glyph-name="integral" unicode="&#x222b;" 
d="M42 -239l33 77q19 -10 38 -10q20 0 35 9t23.5 24.5t15.5 48.5l9 44l123 579l19 84q15 64 57.5 98.5t105.5 34.5q29 0 64 -10l-33 -78q-20 10 -39 10q-41 0 -53.5 -24.5t-24.5 -76.5l-127 -601q-13 -58 -18 -80.5t-20 -56t-58.5 -57.5t-104.5 -24q-19 0 -24 1t-21 8z" />
    <glyph glyph-name="approxequal" unicode="&#x2248;" 
d="M130 348l-39 31q76 115 161 115q20 0 44.5 -9t62 -29.5t53.5 -26.5t32 -6q28 0 48 13.5t57 55.5l38 -32q-76 -114 -168 -114q-15 0 -36 6q-19 7 -36.5 16.5t-52 28.5t-63.5 19q-26 0 -46 -13.5t-55 -54.5zM93 172l-40 31q76 115 162 115q22 0 43.5 -7.5t61 -29.5
t55.5 -28t32 -6q27 0 49 14.5t55 54.5l38 -32q-74 -114 -168 -114q-15 0 -36.5 7t-37 16t-49.5 28t-64 19q-26 0 -47 -14t-54 -54z" />
    <glyph glyph-name="notequal" unicode="&#x2260;" 
d="M363 444l89 124l52 -26l-70 -98h127l-15 -72h-157l-69 -97h204l-15 -72h-231l-87 -122l-52 25l67 97h-130l15 72h158l69 97h-206l15 72h236z" />
    <glyph glyph-name="lessequal" unicode="&#x2264;" 
d="M594 600l-18 -82l-366 -130l311 -130l-18 -82l-395 175l16 75zM497 147l-16 -76h-433l16 76h433z" />
    <glyph glyph-name="greaterequal" unicode="&#x2265;" 
d="M70 176l18 82l365 130l-310 130l18 82l396 -174l-16 -75zM48 71l16 76h433l-16 -76h-433z" />
    <glyph glyph-name="lozenge" unicode="&#x25ca;" horiz-adv-x="667" 
d="M481 693l183 -359l-336 -360l-183 360zM462 604l-254 -270l139 -271l255 271z" />
    <glyph glyph-name="apple" unicode="&#xf000;" horiz-adv-x="667" 
d="M481 691v-10q0 -65 -45 -114t-104 -49q0 72 40 118t109 55zM624 457q-43 -33 -62 -66t-19 -73q0 -51 26 -90t74 -59q-39 -95 -83.5 -145.5t-88.5 -50.5q-16 0 -36 8.5t-35.5 15t-44.5 6.5q-30 0 -40.5 -3.5t-40.5 -15.5t-47 -12q-66 0 -130 111t-64 224q0 97 52 158
t135 61q34 0 72.5 -15t51.5 -15q18 0 49 12t49 16t41 4q87 0 141 -71z" />
    <glyph glyph-name="fi" unicode="&#xf001;" horiz-adv-x="473" 
d="M125 0h-80l103 486q40 181 221 181h43l-15 -69h-27q-118 0 -141 -111l-8 -35h145l-15 -70h-145zM399 0h-80l96 452h80zM496 642q20 0 33 -13t13 -33q0 -7 -3 -21t-23.5 -31t-43.5 -17q-21 0 -34 13t-13 34q0 7 3 21t23.5 30.5t44.5 16.5z" />
    <glyph glyph-name="fl" unicode="&#xf002;" horiz-adv-x="463" 
d="M125 0h-80l103 486q40 181 221 181h43l-15 -69h-27q-118 0 -141 -111l-8 -35h145l-15 -70h-145zM399 0h-80l142 667h80z" />
    </font>
</defs>
</svg>
