<?xml version="1.0" standalone="no"?>
<!DOCTYPE svg PUBLIC "-//W3C//DTD SVG 1.1//EN" "http://www.w3.org/Graphics/SVG/1.1/DTD/svg11.dtd" >
<svg xmlns="http://www.w3.org/2000/svg" xmlns:xlink="http://www.w3.org/1999/xlink" version="1.1">
<metadata>
Created by FontForge 20201107 at Wed Jul  7 18:49:52 1993
 By 
This is a copyrighted typeface program. Duplication prohibited.
</metadata>
<defs>
<font id="Bauhaus-Regular" horiz-adv-x="500" >
  <font-face 
    font-family="Bauhaus"
    font-weight="400"
    font-stretch="normal"
    units-per-em="1000"
    panose-1="0 0 0 0 0 0 0 0 0 0"
    ascent="800"
    descent="-200"
    x-height="454"
    cap-height="667"
    bbox="-180 -250 1024 914"
    underline-thickness="56"
    underline-position="-126"
    unicode-range="U+0020-F002"
  />
<missing-glyph horiz-adv-x="776" 
d="M48 0v776h680v-776h-680zM680 48v680h-584v-680h584z" />
    <glyph glyph-name=".notdef" horiz-adv-x="776" 
d="M48 0v776h680v-776h-680zM680 48v680h-584v-680h584z" />
    <glyph glyph-name=".null" horiz-adv-x="0" 
 />
    <glyph glyph-name="nonmarkingreturn" horiz-adv-x="300" 
 />
    <glyph glyph-name="space" unicode=" " horiz-adv-x="300" 
 />
    <glyph glyph-name="exclam" unicode="!" horiz-adv-x="197" 
d="M99 109q25 0 42 -17t17 -42t-17 -42t-42 -17t-42 17t-17 42t17 42t42 17zM61 151l-6 516h91l-7 -516h-78z" />
    <glyph glyph-name="quotedbl" unicode="&#x22;" horiz-adv-x="342" 
d="M125 400h-64l-14 267h93zM281 400h-64l-14 267h93z" />
    <glyph glyph-name="numbersign" unicode="#" horiz-adv-x="556" 
d="M518 300v-63h-118l-35 -237h-63l35 237h-147l-36 -237h-62l36 237h-117v63h126l23 145h-119v63h128l33 221h62l-33 -221h146l32 221h64l-33 -221h105v-63h-114l-21 -145h108zM368 445h-147l-21 -145h146z" />
    <glyph glyph-name="dollar" unicode="$" horiz-adv-x="530" 
d="M46 0v82h181v223q-41 16 -65 28t-72 46.5t-48 125.5q0 66 49 107.5t136 49.5v77h62v-77h160v-82h-160v-202l37 -17q47 -22 68 -34t57.5 -45t36.5 -106q0 -80 -52 -128t-147 -48v-94h-62v94h-181zM289 278v-196q50 5 77.5 29.5t27.5 65.5q0 35 -23.5 57.5t-81.5 43.5z
M227 403v177q-92 -13 -92 -80q0 -30 19 -50.5t73 -46.5z" />
    <glyph glyph-name="percent" unicode="%" horiz-adv-x="706" 
d="M111 0l429 667h54l-429 -667h-54zM192 674q63 0 107 -44t44 -108q0 -63 -44 -107t-107 -44t-107.5 44.5t-44.5 106.5q0 63 44.5 107.5t107.5 44.5zM192 610q-36 0 -62 -25t-26 -62t25.5 -62.5t62.5 -25.5q36 0 61.5 25.5t25.5 62.5q0 36 -25.5 61.5t-61.5 25.5zM514 294
q63 0 107.5 -44.5t44.5 -107.5t-44.5 -107.5t-107.5 -44.5q-64 0 -108.5 44.5t-44.5 107.5t44.5 107.5t108.5 44.5zM514 230q-37 0 -63 -25t-26 -63q0 -36 26 -62t63 -26t62.5 25.5t25.5 62.5q0 36 -26 62t-62 26z" />
    <glyph glyph-name="ampersand" unicode="&#x26;" horiz-adv-x="739" 
d="M699 0h-107l-51 60q-51 -43 -98.5 -60t-115.5 -17q-125 0 -206 73t-81 187q0 73 32 128t101 100q-38 42 -47.5 59.5t-9.5 43.5q0 45 32 69t91 24h274v-73h-224q-70 0 -70 -39q0 -12 7.5 -24t32.5 -39l289 -318q31 49 31 107q0 90 -72 149l64 41q48 -47 66.5 -88
t18.5 -100q0 -47 -13.5 -86.5t-45.5 -81.5zM489 121l-264 291q-101 -58 -101 -160q0 -86 58.5 -138.5t153.5 -52.5q93 0 153 60z" />
    <glyph glyph-name="quotesingle" unicode="'" horiz-adv-x="188" 
d="M128 400h-67l-14 267h95z" />
    <glyph glyph-name="parenleft" unicode="(" horiz-adv-x="405" 
d="M365 -171l-40 -51q-218 189 -218 456q0 129 51 236.5t160 209.5l43 -52q-183 -170 -183 -391q0 -240 187 -408z" />
    <glyph glyph-name="parenright" unicode=")" horiz-adv-x="405" 
d="M81 -222l-41 51q187 169 187 408q0 222 -182 391l42 52q109 -102 160 -209.5t51 -236.5q0 -266 -217 -456z" />
    <glyph glyph-name="asterisk" unicode="*" horiz-adv-x="482" 
d="M202 667h74l-5 -140l130 51l24 -71l-134 -39l87 -107l-60 -44l-77 115l-76 -117l-60 44l85 109l-134 36l22 71l131 -47z" />
    <glyph glyph-name="plus" unicode="+" 
d="M22 365h205v194h47v-194h205v-45h-205v-194h-47v194h-205v45z" />
    <glyph glyph-name="comma" unicode="," horiz-adv-x="197" 
d="M35 -103l41 182h86l-59 -182h-68z" />
    <glyph glyph-name="hyphen" unicode="-" horiz-adv-x="211" 
d="M0 204v64h211v-64h-211z" />
    <glyph glyph-name="hyphen" unicode="&#xad;" horiz-adv-x="211" 
d="M0 204v64h211v-64h-211z" />
    <glyph glyph-name="period" unicode="." horiz-adv-x="197" 
d="M98 107q24 0 41 -17t17 -41t-17 -41t-41 -17t-41 17t-17 41t17 41t41 17z" />
    <glyph glyph-name="slash" unicode="/" horiz-adv-x="531" 
d="M25 -143l404 810h62l-404 -810h-62z" />
    <glyph glyph-name="zero" unicode="0" horiz-adv-x="530" 
d="M493 419v-171q0 -121 -61 -191t-167 -70t-167.5 70.5t-61.5 190.5v171q0 122 61 191.5t168 69.5q105 0 166.5 -70.5t61.5 -190.5zM124 423v-177q0 -86 36 -132t105 -46q35 0 64.5 16t46.5 41t23 51.5t6 69.5v177q0 49 -8 78t-38.5 64.5t-93.5 35.5q-141 0 -141 -178z" />
    <glyph glyph-name="one" unicode="1" horiz-adv-x="529" 
d="M359 0h-87v594h-101l8 73h180v-667z" />
    <glyph glyph-name="two" unicode="2" horiz-adv-x="530" 
d="M490 78v-78h-369q-81 0 -81 52q0 26 38 60l229 200q52 45 73.5 79.5t21.5 74.5q0 56 -39 95t-95 39q-60 0 -100 -38t-40 -97q0 -30 12.5 -57t33 -44t41 -23.5t51.5 -6.5l-66 -65q-78 22 -118.5 72.5t-40.5 125.5q0 91 66 152t165 61q93 0 156 -60t63 -149
q0 -117 -130 -220l-185 -149q-15 -11 -15 -17q0 -7 27 -7h302z" />
    <glyph glyph-name="three" unicode="3" horiz-adv-x="530" 
d="M55 0v78h170q160 0 160 128q0 30 -15 58t-43.5 46.5t-101.5 18.5h-102v45l202 190q7 7 8.5 10.5t2.5 4.5q0 8 -18 8h-262v80h293q41 0 63.5 -16.5t22.5 -45.5q0 -20 -8 -32.5t-38 -41.5l-147 -140q59 0 90 -7.5t65.5 -31t55.5 -63.5t21 -88q0 -95 -62 -148t-174 -53h-183
z" />
    <glyph glyph-name="four" unicode="4" horiz-adv-x="529" 
d="M412 0h-85v169h-239q-35 0 -55 16t-20 42q0 24 17 50l253 390h90l-269 -404l-5 -13q1 -9 23 -9h209v301l81 125v-421h106v-77h-106v-169z" />
    <glyph glyph-name="five" unicode="5" horiz-adv-x="530" 
d="M58 0v80h181q66 0 103 33t37 94q0 59 -38 91t-109 32h-160v337h353v-77h-269v-184h97q98 0 158 -54t60 -143q0 -97 -60 -153t-165 -56h-188z" />
    <glyph glyph-name="six" unicode="6" horiz-adv-x="530" 
d="M265 667h101l-200 -307q-33 -51 -44.5 -79t-11.5 -62q0 -64 44 -108t110 -44q65 0 110 44t45 110t-42 109t-107 43q-28 0 -63 -13l50 83l27 2q95 0 158 -64t63 -160q0 -100 -69 -167t-174 -67q-99 0 -168 66t-69 162q0 46 11 79t43 83z" />
    <glyph glyph-name="seven" unicode="7" horiz-adv-x="530" 
d="M228 0h-95l234 547q4 10 7 17t3 11q0 12 -30 12h-289v80h329q84 0 84 -64q0 -19 -7 -37z" />
    <glyph glyph-name="eight" unicode="8" horiz-adv-x="530" 
d="M361 377q63 -25 97 -71t34 -109q0 -88 -66 -149t-162 -61t-161.5 59.5t-65.5 146.5q0 132 132 184q-91 46 -91 138q0 72 52.5 118.5t132.5 46.5q81 0 133.5 -46.5t52.5 -116.5q0 -94 -88 -140zM265 335q-60 0 -101 -38t-41 -94q0 -57 40 -96t100 -39q59 0 100 39t41 95
t-40.5 94.5t-98.5 38.5zM264 609q-45 0 -75.5 -29.5t-30.5 -73.5q0 -43 31.5 -73.5t75.5 -30.5q43 0 72.5 30.5t29.5 74.5t-29 73t-74 29z" />
    <glyph glyph-name="nine" unicode="9" horiz-adv-x="530" 
d="M265 0h-101l200 307q37 57 46.5 81t9.5 60q0 64 -44 108t-110 44q-65 0 -110 -44t-45 -109q0 -62 42 -107t102 -45q23 0 32 2t35 10l-49 -83h-17q-99 0 -165 63t-66 159q0 100 69 167t174 67q100 0 168.5 -66.5t68.5 -161.5q0 -46 -11 -78.5t-44 -83.5z" />
    <glyph glyph-name="colon" unicode=":" horiz-adv-x="197" 
d="M98 107q24 0 41 -17t17 -41t-17 -41t-41 -17t-41 17t-17 41t17 41t41 17zM98 463q24 0 41 -17t17 -41t-17 -41t-41 -17t-41 17t-17 41t17 41t41 17z" />
    <glyph glyph-name="semicolon" unicode=";" horiz-adv-x="197" 
d="M116 463q24 0 41 -17t17 -41t-17 -41t-41 -17t-41 17t-17 41t17 41t41 17zM22 -103l41 182h86l-59 -182h-68z" />
    <glyph glyph-name="less" unicode="&#x3c;" 
d="M466 580v-87l-341 -158l341 -158v-86l-433 207v75z" />
    <glyph glyph-name="equal" unicode="=" 
d="M21 436h457v-44h-457v44zM21 294h457v-44h-457v44z" />
    <glyph glyph-name="greater" unicode="&#x3e;" 
d="M34 91v86l340 158l-340 159v86l433 -208v-74z" />
    <glyph glyph-name="question" unicode="?" horiz-adv-x="496" 
d="M238 108q24 0 41 -17t17 -41q0 -25 -17 -42t-41 -17q-25 0 -42 17t-17 42q0 24 17 41t42 17zM275 159h-78v195h26q64 0 103 33t39 88q0 52 -34.5 87.5t-84.5 35.5q-51 0 -83.5 -31t-39.5 -86l-83 21q14 84 70 131t142 47t145 -57t59 -142q0 -79 -49 -132t-132 -62v-128z
" />
    <glyph glyph-name="at" unicode="@" horiz-adv-x="1015" 
d="M757 143h69q-68 -85 -136.5 -121t-160.5 -36q-163 0 -272.5 108.5t-109.5 269.5t109 270t269 109q142 0 242.5 -91.5t100.5 -219.5q0 -170 -101 -228t-146 -58q-58 0 -58 52q-40 -48 -102 -48q-73 0 -117.5 49.5t-44.5 129.5q0 99 58 166t145 67q44 0 72.5 -16.5
t52.5 -56.5l12 60h71l-53 -303l-3 -24q0 -19 19 -19t45.5 17t60.5 61t34 138q0 114 -83 190t-208 76q-138 0 -229 -91t-91 -230q0 -138 94 -229t237 -91q64 0 114.5 22t109.5 77zM513 479q-50 0 -86 -41t-36 -99q0 -46 27 -76t68 -30q50 0 83 42t33 107q0 44 -24.5 70.5
t-64.5 26.5z" />
    <glyph glyph-name="A" unicode="A" horiz-adv-x="565" 
d="M515 0h-89v288h-254v77h254v43q0 58 -5.5 84t-34.5 67.5t-100 41.5q-147 0 -147 -185v-416h-89v412q0 127 61.5 198.5t170.5 71.5q62 0 112.5 -26.5t77 -67.5t35 -80.5t8.5 -100.5v-407z" />
    <glyph glyph-name="B" unicode="B" horiz-adv-x="554" 
d="M140 0h-89v446q0 108 59 171t162 63q91 0 151 -51t60 -129q0 -98 -89 -145q123 -46 123 -168q0 -85 -58 -136t-156 -51h-129v77h107q144 0 144 116q0 66 -37 88.5t-58.5 26.5t-65.5 4h-90v69h68q42 0 65 5t53.5 28t30.5 79q0 46 -34 76t-86 30q-67 0 -99 -41t-32 -128
v-430z" />
    <glyph glyph-name="C" unicode="C" horiz-adv-x="462" 
d="M434 80v-80h-27q-106 0 -157 12.5t-108 56t-91 113.5t-34 152q0 141 99 237t246 96h72v-80h-49q-122 0 -199 -71t-77 -184q0 -67 33 -126.5t77 -85.5t82 -33t112 -7h21z" />
    <glyph glyph-name="D" unicode="D" horiz-adv-x="584" 
d="M151 0h-89v667h142q127 0 202 -45t118 -122.5t43 -165.5q0 -158 -97.5 -246t-225.5 -88h-62v80h46q109 0 178 70t69 180q0 115 -72.5 187.5t-187.5 72.5h-64v-590z" />
    <glyph glyph-name="E" unicode="E" horiz-adv-x="475" 
d="M437 77v-77h-78q-159 0 -250.5 102t-91.5 230q0 143 98 239t245 96h77v-77h-44q-116 0 -192.5 -58t-84.5 -154h321v-77h-321q0 -37 13.5 -70t61.5 -93.5t192 -60.5h54z" />
    <glyph glyph-name="F" unicode="F" horiz-adv-x="431" 
d="M139 0h-89v446q0 109 59 165t174 56h120v-77h-119q-76 0 -110.5 -36.5t-34.5 -117.5v-72h264v-77h-264v-287z" />
    <glyph glyph-name="G" unicode="G" horiz-adv-x="720" 
d="M352 374h351v-29q0 -81 -29 -161t-115.5 -139t-194.5 -59q-147 0 -247 101t-100 250q0 145 100 244t248 99q153 0 262 -107l-63 -59q-88 85 -196 85q-111 0 -185 -74t-74 -185q0 -117 73 -195t184 -78q103 0 173 65t70 165h-257v77z" />
    <glyph glyph-name="H" unicode="H" horiz-adv-x="595" 
d="M533 0h-89v308h-293v-308h-89v667h89v-282h293v282h89v-667z" />
    <glyph glyph-name="I" unicode="I" horiz-adv-x="235" 
d="M162 0h-89v667h89v-667z" />
    <glyph glyph-name="J" unicode="J" horiz-adv-x="376" 
d="M325 667v-440q0 -68 -12 -105t-44 -67t-73 -42.5t-103 -12.5h-80v77h54q54 0 81.5 7t49 27.5t30 48.5t8.5 76v431h89z" />
    <glyph glyph-name="K" unicode="K" horiz-adv-x="555" 
d="M151 0h-89v667h89v-278h77q47 0 72 19t47 72l75 187h95l-86 -201q-20 -47 -34.5 -65.5t-43.5 -34.5q43 -12 66.5 -26t44 -42t26.5 -55.5t6 -90.5v-80l3 -72h-88l-4 65v80q0 54 -5 77t-32 56.5t-104 33.5h-115v-312z" />
    <glyph glyph-name="L" unicode="L" horiz-adv-x="425" 
d="M397 77v-77h-122q-117 0 -170.5 54.5t-53.5 174.5v438h89v-420q0 -57 9 -87t31 -49.5t48.5 -26.5t76.5 -7h92z" />
    <glyph glyph-name="M" unicode="M" horiz-adv-x="812" 
d="M774 0h-87l-66 568l-155 -519q-17 -56 -60 -56q-44 0 -66 72l-146 507l-70 -572h-86l71 587q10 86 79 86q65 0 86 -76l133 -464l136 457q13 45 33.5 64t55.5 19q37 0 54.5 -19.5t22.5 -68.5z" />
    <glyph glyph-name="N" unicode="N" horiz-adv-x="599" 
d="M448 667h89v-584q0 -90 -68 -90q-54 0 -89 72l-229 482v-547h-89v578q0 96 70 96q57 0 92 -74l224 -474v541z" />
    <glyph glyph-name="O" unicode="O" horiz-adv-x="725" 
d="M361 680q146 0 246.5 -100.5t100.5 -248.5q0 -140 -102 -242t-243 -102q-144 0 -245 101t-101 245t100.5 245.5t243.5 101.5zM363 599q-105 0 -179.5 -77.5t-74.5 -185.5q0 -112 74 -190t180 -78q103 0 178 78t75 186q0 112 -73.5 189.5t-179.5 77.5z" />
    <glyph glyph-name="P" unicode="P" horiz-adv-x="535" 
d="M139 0h-89v429q0 118 61 184.5t162 66.5q95 0 159.5 -62.5t64.5 -154.5q0 -95 -60 -154t-156 -59h-108v77h96q62 0 99 36t37 98q0 60 -38 99t-97 39q-61 0 -96 -44.5t-35 -122.5v-432z" />
    <glyph glyph-name="Q" unicode="Q" horiz-adv-x="725" 
d="M413 -128h-73v337h71v-124q95 21 150 88t55 162q0 108 -74 186t-179 78t-179.5 -76.5t-74.5 -182.5q0 -98 51 -161.5t147 -84.5v-101q-132 27 -211 119.5t-79 221.5q0 143 100.5 244.5t244.5 101.5q143 0 244.5 -101.5t101.5 -243.5q0 -131 -80.5 -224.5t-214.5 -119.5
v-119z" />
    <glyph glyph-name="R" unicode="R" horiz-adv-x="527" 
d="M140 0h-89v440q0 116 56.5 180.5t159.5 64.5q88 0 149 -54t61 -132q0 -99 -99 -156q62 -22 86 -62.5t24 -126.5v-154h-89v128q0 86 -25.5 125.5t-109.5 39.5h-89v77h64q69 0 107.5 31t38.5 87q0 50 -33 83t-83 33q-36 0 -64 -16t-46.5 -49t-18.5 -115v-424z" />
    <glyph glyph-name="S" unicode="S" horiz-adv-x="519" 
d="M39 0v77h209q141 0 141 95q0 61 -75 97l-167 79q-110 52 -110 155q0 164 207 164h203v-77h-179q-48 0 -70 -4t-45.5 -23t-23.5 -61q0 -32 15 -51t54 -37l176 -81q107 -50 107 -160q0 -173 -208 -173h-234z" />
    <glyph glyph-name="T" unicode="T" horiz-adv-x="503" 
d="M297 0h-89v590h-170v77h427v-77h-168v-590z" />
    <glyph glyph-name="U" unicode="U" horiz-adv-x="559" 
d="M421 667h89v-419q0 -67 -14 -110.5t-63.5 -97t-153.5 -53.5q-110 0 -169 70.5t-59 176.5v433h89v-422q0 -85 37 -131t105 -46q76 0 102.5 44.5t31.5 70t5 71.5v413z" />
    <glyph glyph-name="V" unicode="V" horiz-adv-x="564" 
d="M458 667h92l-176 -597q-23 -76 -89 -76q-64 0 -89 78l-183 595h91l182 -591z" />
    <glyph glyph-name="W" unicode="W" horiz-adv-x="885" 
d="M746 667h89v-437q0 -68 -11 -106t-56.5 -87.5t-143.5 -49.5q-67 0 -111.5 26.5t-75.5 85.5q-60 -112 -177 -112q-93 0 -151 60t-58 156v464h89v-443q0 -156 124 -156q63 0 97.5 41.5t34.5 116.5v441h89v-442q0 -75 34 -116t96 -41q76 0 103.5 45t27.5 118v436z" />
    <glyph glyph-name="X" unicode="X" horiz-adv-x="646" 
d="M608 80v-80q-62 0 -105 15.5t-82.5 46.5t-60 58.5t-38.5 70.5q-43 -99 -108.5 -145t-175.5 -46v80q52 0 89.5 16t93 71.5t55.5 166.5q0 108 -67.5 180.5t-170.5 72.5v80q113 0 168 -42.5t76 -70.5t40 -76q37 98 99 134t98.5 45.5t88.5 9.5v-80q-52 0 -86 -12t-94 -64.5
t-60 -172.5q0 -110 67 -184t173 -74z" />
    <glyph glyph-name="Y" unicode="Y" horiz-adv-x="509" 
d="M298 0h-89v262q-91 17 -131 70.5t-40 158.5v176h89v-177q0 -151 130 -151q125 0 125 145v183h89v-190q0 -187 -173 -215v-262z" />
    <glyph glyph-name="Z" unicode="Z" horiz-adv-x="533" 
d="M495 77v-77h-361q-96 0 -96 67q0 31 31 75l335 448h-329v77h322q94 0 94 -67q0 -20 -8 -38t-32 -51l-324 -434h368z" />
    <glyph glyph-name="bracketleft" unicode="[" horiz-adv-x="405" 
d="M234 -145h77v-68h-152v880h152v-68h-77v-744z" />
    <glyph glyph-name="backslash" unicode="\" horiz-adv-x="531" 
d="M506 -143h-62l-404 810h62z" />
    <glyph glyph-name="bracketright" unicode="]" horiz-adv-x="405" 
d="M171 -145v744h-77v68h152v-880h-152v68h77z" />
    <glyph glyph-name="asciicircum" unicode="^" 
d="M110 371h-81l171 298h99l171 -298h-81l-140 239z" />
    <glyph glyph-name="underscore" unicode="_" 
d="M0 -70h500v-56h-500v56z" />
    <glyph glyph-name="grave" unicode="`" 
d="M383 506h-67l-209 149h67z" />
    <glyph glyph-name="a" unicode="a" horiz-adv-x="536" 
d="M492 0h-80v199q0 84 -42.5 134.5t-114.5 50.5q-65 0 -110 -46t-45 -112t45 -111t112 -45q60 0 122 55v-85q-32 -27 -62 -38t-70 -11q-96 0 -163 68t-67 167q0 98 69.5 167.5t169.5 69.5q102 0 169 -70t67 -178v-215z" />
    <glyph glyph-name="b" unicode="b" horiz-adv-x="537" 
d="M45 667h80v-405q0 -91 44.5 -141.5t116.5 -50.5q63 0 107 46t44 111q0 67 -44.5 112.5t-109.5 45.5q-36 0 -62.5 -12t-62.5 -45v87q61 49 132 49q94 0 162 -68t68 -164q0 -102 -68.5 -171.5t-169.5 -69.5q-105 0 -171 71t-66 184v421z" />
    <glyph glyph-name="c" unicode="c" horiz-adv-x="351" 
d="M325 71v-71h-59q-66 0 -107.5 15t-91.5 67t-50 146q0 49 23 97.5t72.5 88.5t146.5 40h66v-70h-47q-82 0 -130 -43t-48 -116q0 -72 47 -113t129 -41h49z" />
    <glyph glyph-name="d" unicode="d" horiz-adv-x="537" 
d="M492 667v-421q0 -113 -66 -184t-171 -71q-101 0 -169.5 69.5t-68.5 171.5q0 94 68 163t162 69q73 0 132 -49v-87q-35 32 -63 44.5t-62 12.5q-66 0 -110 -45t-44 -112t44.5 -112.5t109.5 -45.5q81 0 119.5 56t38.5 136v405h80z" />
    <glyph glyph-name="e" unicode="e" horiz-adv-x="504" 
d="M433 210l56 -31q-55 -188 -235 -188q-98 0 -167.5 68.5t-69.5 167.5q0 100 68 168t169 68q134 0 210 -135l-291 -190l-34 59l221 148q-38 46 -106 46q-66 0 -110 -45t-44 -114t48 -119t115 -50q63 0 107 38t63 109z" />
    <glyph glyph-name="f" unicode="f" horiz-adv-x="289" 
d="M125 0h-80v486q0 181 182 181h66v-69h-51q-61 0 -89 -27t-28 -84v-35h168v-70h-168v-382z" />
    <glyph glyph-name="g" unicode="g" horiz-adv-x="535" 
d="M100 -201l7 72q77 -23 137 -23q95 0 124.5 40t35.5 66t6 71v172q0 87 -41 137t-113 50q-67 0 -111.5 -45.5t-44.5 -112.5q0 -66 44 -111t110 -45q36 0 60.5 11t63.5 45v-83q-40 -30 -68.5 -41t-67.5 -11q-92 0 -158.5 69.5t-66.5 165.5q0 98 69.5 167.5t169.5 69.5
q104 0 169 -71t65 -185v-196q0 -111 -61 -173t-170 -62q-70 0 -159 23z" />
    <glyph glyph-name="h" unicode="h" horiz-adv-x="499" 
d="M455 0h-80v246q0 139 -110 139q-56 0 -89 -42t-33 -115v-228h-80v667h80v-281q48 78 143 78q77 0 123 -54t46 -145v-265z" />
    <glyph glyph-name="i" unicode="i" horiz-adv-x="232" 
d="M157 0h-80v454h80v-454zM116 644q24 0 41 -17t17 -41q0 -25 -17 -42t-41 -17q-25 0 -42 17t-17 42q0 24 17 41t42 17z" />
    <glyph glyph-name="j" unicode="j" horiz-adv-x="212" 
d="M138 454v-493q0 -95 -42.5 -136.5t-138.5 -41.5h-40v70h22q67 0 93 24t26 89v488h80zM98 645q24 0 41 -17t17 -41t-17 -41t-41 -17t-41 17t-17 41t17 41t41 17z" />
    <glyph glyph-name="k" unicode="k" horiz-adv-x="461" 
d="M420 0h-80v98q0 62 -27.5 87.5t-93.5 25.5h-76v-211h-80v667h80v-386h42q38 0 55.5 11t40.5 51l65 111h88l-75 -125q-23 -38 -31.5 -47.5t-30.5 -20.5q123 -28 123 -160v-101z" />
    <glyph glyph-name="l" unicode="l" horiz-adv-x="205" 
d="M143 0h-80v667h80v-667z" />
    <glyph glyph-name="m" unicode="m" horiz-adv-x="724" 
d="M679 0h-80v272q0 52 -26 82t-71 30q-53 0 -72 -28.5t-23 -46t-4 -52.5v-257h-80v265q0 119 -101 119q-51 0 -70.5 -29t-22.5 -44t-3 -50v-261h-80v273q0 55 9.5 84t46.5 67.5t116 38.5q96 0 146 -84q48 84 143 84q79 0 125.5 -49.5t46.5 -132.5v-281z" />
    <glyph glyph-name="n" unicode="n" horiz-adv-x="483" 
d="M438 0h-80v238q0 70 -30 108t-86 38q-117 0 -117 -150v-234h-80v256q0 93 54 150t144 57q88 0 141.5 -56.5t53.5 -149.5v-257z" />
    <glyph glyph-name="o" unicode="o" horiz-adv-x="509" 
d="M257 463q97 0 166 -70t69 -169q0 -95 -69 -164t-166 -69q-100 0 -170 69t-70 169q0 96 70 165t170 69zM257 384q-65 0 -111 -45t-46 -110q0 -68 45.5 -113.5t113.5 -45.5q60 0 105 46t45 108q0 67 -44.5 113.5t-107.5 46.5z" />
    <glyph glyph-name="p" unicode="p" horiz-adv-x="537" 
d="M45 -213v422q0 112 66 183t171 71q101 0 169.5 -69.5t68.5 -170.5q0 -95 -68 -164t-162 -69q-70 0 -132 49v87q35 -31 63 -44t62 -13q66 0 110 45t44 113q0 65 -44 111t-107 46q-40 0 -74 -17.5t-60.5 -56.5t-26.5 -118v-405h-80z" />
    <glyph glyph-name="q" unicode="q" horiz-adv-x="537" 
d="M492 -213h-80v405q0 91 -44.5 141.5t-113.5 50.5q-64 0 -109 -46t-45 -111q0 -67 44.5 -112.5t109.5 -45.5q36 0 62.5 12t62.5 45v-87q-61 -49 -132 -49q-94 0 -162 69t-68 164q0 102 68 171t170 69q104 0 170.5 -70.5t66.5 -183.5v-422z" />
    <glyph glyph-name="r" unicode="r" horiz-adv-x="323" 
d="M143 0h-80v454h80v-80q47 90 148 90l30 -2v-75h-16q-84 0 -123 -44t-39 -138v-205z" />
    <glyph glyph-name="s" unicode="s" horiz-adv-x="447" 
d="M48 0v70h179h10q39 0 49 1.5t26.5 10t16.5 38.5q0 34 -41 48l-169 60q-48 17 -68.5 42.5t-20.5 68.5q0 115 166 115h182v-70h-194q-73 0 -73 -51q0 -32 42 -46l158 -56q56 -19 78.5 -44.5t22.5 -68.5q0 -118 -151 -118h-213z" />
    <glyph glyph-name="t" unicode="t" horiz-adv-x="293" 
d="M122 382v-212q0 -59 21 -79t85 -20h39v-71h-43q-104 0 -143 36t-39 131v423h80v-138h145v-70h-145z" />
    <glyph glyph-name="u" unicode="u" horiz-adv-x="483" 
d="M358 454h80v-258q0 -93 -54 -149t-143 -56q-88 0 -142 56t-54 149v258h80v-239q0 -69 30 -107t85 -38q31 0 56.5 14t43.5 42.5t18 95.5v232z" />
    <glyph glyph-name="v" unicode="v" horiz-adv-x="442" 
d="M356 454h84l-142 -398q-13 -37 -29 -51t-47 -14q-34 0 -49 13t-30 55l-141 395h84l121 -352q7 -16 13 -16q7 0 14 17z" />
    <glyph glyph-name="w" unicode="w" horiz-adv-x="722" 
d="M597 454h80v-278q0 -85 -45 -135t-123 -50q-51 0 -82 17t-63 63q-51 -80 -145 -80q-79 0 -126.5 49.5t-47.5 131.5v282h80v-269q0 -54 26.5 -84.5t72.5 -30.5q45 0 71.5 30.5t26.5 84.5v269h80v-267q0 -55 27 -86t74 -31q42 0 68 30t26 80v274z" />
    <glyph glyph-name="x" unicode="x" horiz-adv-x="457" 
d="M431 72v-72h-24q-56 0 -101.5 31.5t-74.5 88.5q-28 -58 -75 -89t-107 -31h-22v72h16q60 0 104 46t44 108t-45 109t-103 47h-16v72h20q125 0 184 -117q28 55 76 86t106 31h18v-72h-12q-62 0 -105.5 -46.5t-43.5 -111.5q0 -61 43.5 -106.5t101.5 -45.5h16z" />
    <glyph glyph-name="y" unicode="y" horiz-adv-x="477" 
d="M351 454h80v-258q0 -173 -150 -202v-208h-80v208q-156 20 -156 197v263h80v-258q0 -61 30 -95t84 -34t83 34.5t29 98.5v254z" />
    <glyph glyph-name="z" unicode="z" horiz-adv-x="413" 
d="M57 116l207 239q11 13 12.5 15t1.5 6q0 7 -25 7h-205v70l250 1q78 0 78 -61q0 -18 -5 -28t-29 -37l-199 -234q-11 -14 -11 -18q0 -6 24 -6h230v-70h-282q-77 0 -77 56q0 26 30 60z" />
    <glyph glyph-name="braceleft" unicode="{" horiz-adv-x="405" 
d="M272 566v-206q0 -60 -22 -89t-77 -39q99 -13 99 -118v-220q0 -36 15 -60t53 -45q-142 0 -142 124v219q0 82 -84 100q84 15 84 100v197q0 140 130 140h12q-68 -38 -68 -103z" />
    <glyph glyph-name="bar" unicode="|" 
d="M207 667h87v-834h-87v834z" />
    <glyph glyph-name="braceright" unicode="}" horiz-adv-x="405" 
d="M134 -106v220q0 105 99 118q-54 10 -76.5 38.5t-22.5 89.5v206q0 34 -16.5 59t-51.5 44h12q130 0 130 -140v-197q0 -85 84 -100q-84 -18 -84 -100v-219q0 -60 -36 -92t-106 -32q68 39 68 105z" />
    <glyph glyph-name="asciitilde" unicode="~" horiz-adv-x="667" 
d="M140 577l-46 36q51 116 137 116q22 0 46 -8t67 -29.5t60 -28t34 -6.5q50 0 90 74l45 -36q-50 -115 -144 -115q-15 0 -34.5 6t-36 14t-59.5 29.5t-71 21.5q-26 0 -46 -17t-42 -57z" />
    <glyph glyph-name="nonbreakingspace" unicode="&#xa0;" 
 />
    <glyph glyph-name="exclamdown" unicode="&#xa1;" horiz-adv-x="197" 
d="M99 463q25 0 42 -17t17 -42q0 -24 -17.5 -41.5t-41.5 -17.5q-25 0 -42 17t-17 42t17 42t42 17zM136 303l6 -516h-90l6 516h78z" />
    <glyph glyph-name="cent" unicode="&#xa2;" horiz-adv-x="530" 
d="M351 33h-62v122q-82 7 -129.5 57t-47.5 128q0 44 20 84.5t47.5 61t49.5 27.5t60 11v103h62v-103h65v-70h-93q-62 0 -98 -31t-36 -84q0 -54 37 -84t105 -30h85v-70h-65v-122z" />
    <glyph glyph-name="sterling" unicode="&#xa3;" horiz-adv-x="530" 
d="M130 313h-73v62h73v51q0 75 11 115.5t53 89.5t142 49q39 0 92 -16l-9 -79q-44 15 -71 15q-78 0 -99 -40.5t-25 -64.5t-4 -67v-53h109v-62h-109v-118q0 -52 -9 -73t-41 -45h111q82 0 118 35t36 117v24h83q0 -138 -53 -195.5t-178 -57.5h-270v77h19q51 0 72.5 26.5
t21.5 89.5v120z" />
    <glyph glyph-name="currency" unicode="&#xa4;" horiz-adv-x="691" 
d="M65 109l92 94q-47 64 -47 139q0 37 10 66t39 72l-96 95l46 46l96 -95q45 28 74 38t68 10q36 0 65 -10t72 -38l95 95l46 -46l-94 -94q49 -69 49 -140q0 -36 -10 -66t-37 -72l94 -94l-46 -47l-94 94q-64 -48 -137 -48q-37 0 -70.5 11t-75.5 37l-93 -93zM345 501
q-66 0 -112 -46t-46 -114q0 -66 46 -112t112 -46t112 46t46 112t-46 113t-112 47z" />
    <glyph glyph-name="yen" unicode="&#xa5;" horiz-adv-x="509" 
d="M209 184h-151v62h151v49q-91 17 -131 71t-40 158v143h89v-144q0 -151 130 -151q125 0 125 146v149h89v-157q0 -187 -173 -215v-49h153v-62h-153v-184h-89v184z" />
    <glyph glyph-name="brokenbar" unicode="&#xa6;" 
d="M207 667h87v-337h-87v337zM207 153h87v-320h-87v320z" />
    <glyph glyph-name="section" unicode="&#xa7;" horiz-adv-x="482" 
d="M49 -142v80h193q96 0 96 54q0 37 -70 77l-136 77q-49 28 -68 55.5t-19 70.5q0 45 22.5 76.5t79.5 69.5q-46 31 -63.5 58t-17.5 66q0 67 38.5 91t64.5 29t80 5h132v-76h-127q-103 0 -103 -58q0 -19 16.5 -36t61.5 -42l117 -66q50 -29 71 -58t21 -71q0 -48 -22.5 -80.5
t-77.5 -63.5q47 -33 66 -62t19 -68q0 -28 -12 -54t-33.5 -43t-47.5 -24t-71 -7h-210zM194 201l84 -49q44 25 61.5 46.5t17.5 49.5q0 27 -13 44t-49 37l-85 49q-82 -42 -82 -99q0 -25 13 -40.5t53 -37.5z" />
    <glyph glyph-name="dieresis" unicode="&#xa8;" 
d="M166 624q19 0 32 -13t13 -32t-13 -32t-32 -13t-32 13t-13 32t13 32t32 13zM333 626q19 0 32 -13t13 -32q0 -20 -13 -33t-32 -13q-20 0 -33 13t-13 33q0 19 13 32t33 13z" />
    <glyph glyph-name="copyright" unicode="&#xa9;" horiz-adv-x="781" 
d="M530 296h44q0 -74 -51.5 -119.5t-130.5 -45.5q-84 0 -137 56t-53 145q0 93 53 150t139 57q71 0 119.5 -38.5t54.5 -99.5h-43q-10 42 -45 66t-87 24q-61 0 -98 -43t-37 -116q0 -69 37 -111t98 -42q121 0 137 117zM391 679q142 0 243 -101t101 -244q0 -144 -100 -245
t-244 -101q-143 0 -244 101t-101 245q0 143 101 244t244 101zM391 637q-125 0 -212.5 -88.5t-87.5 -214.5q0 -127 87.5 -215.5t212.5 -88.5q123 0 211 89t88 215t-87.5 214.5t-211.5 88.5z" />
    <glyph glyph-name="ordfeminine" unicode="&#xaa;" horiz-adv-x="482" 
d="M384 386h-56v124q0 52 -25 82t-70 30q-40 0 -67.5 -27.5t-27.5 -67.5t28 -67t68 -27q43 0 71 31v-59q-31 -25 -77 -25q-62 0 -105 42t-43 105q0 62 45 105t109 43t107 -44t43 -111v-134zM87 274v52h290v-52h-290z" />
    <glyph glyph-name="guillemotleft" unicode="&#xab;" horiz-adv-x="411" 
d="M138 119l-98 116l95 119h73l-95 -119l98 -116h-73zM300 119l-96 116l94 119h73l-97 -119l97 -116h-71z" />
    <glyph glyph-name="logicalnot" unicode="&#xac;" 
d="M382 0v203h-349v76h433v-279h-84z" />
    <glyph glyph-name="registered" unicode="&#xae;" horiz-adv-x="781" 
d="M243 527h165q68 0 103.5 -27.5t35.5 -80.5q0 -68 -71 -95q41 -13 53.5 -35t12.5 -90q0 -28 1.5 -39t8.5 -25h-53q-6 10 -8.5 22t-2.5 52q0 58 -20.5 77.5t-79.5 19.5h-90v-171h-55v392zM298 490v-149h92q102 0 102 78q0 71 -93 71h-101zM391 679q142 0 243 -101t101 -244
q0 -144 -100 -245t-244 -101q-143 0 -244 101t-101 245q0 143 101 244t244 101zM391 637q-125 0 -212.5 -88.5t-87.5 -214.5q0 -127 87.5 -215.5t212.5 -88.5q123 0 211 89t88 215t-87.5 214.5t-211.5 88.5z" />
    <glyph glyph-name="macron" unicode="&#xaf;" 
d="M95 552v51h310v-51h-310z" />
    <glyph glyph-name="macron" unicode="&#x2c9;" 
d="M95 552v51h310v-51h-310z" />
    <glyph glyph-name="degree" unicode="&#xb0;" 
d="M250 665q59 0 101 -42t42 -102q0 -59 -42 -101t-102 -42q-59 0 -100.5 42.5t-41.5 101.5t42 101t101 42zM250 626q-43 0 -73 -31t-30 -76q0 -41 30.5 -71.5t71.5 -30.5q44 0 74 30t30 74q0 43 -30 74t-73 31z" />
    <glyph glyph-name="plusminus" unicode="&#xb1;" 
d="M22 377h205v193h47v-193h205v-45h-205v-191h-47v191h-205v45zM22 97h457v-45h-457v45z" />
    <glyph glyph-name="twosuperior" unicode="&#xb2;" horiz-adv-x="345" 
d="M317 323v-56h-234q-55 0 -55 36q0 17 25 39l143 116q31 26 43.5 45.5t12.5 41.5q0 30 -23 52t-55 22q-35 0 -58 -21t-23 -53q0 -29 18 -48t50 -24l-51 -42q-81 32 -81 115q0 55 42 92t106 37q58 0 99 -37t41 -90q0 -71 -82 -133l-121 -92h203z" />
    <glyph glyph-name="threesuperior" unicode="&#xb3;" horiz-adv-x="345" 
d="M38 267v56h110q95 0 95 69q0 67 -95 67h-68v34l132 117h-173v57h187q58 0 58 -42q0 -13 -4.5 -20.5t-25.5 -26.5l-83 -73q41 0 54 -5t48 -27.5t35 -82.5q0 -58 -40.5 -90.5t-111.5 -32.5h-118z" />
    <glyph glyph-name="acute" unicode="&#xb4;" 
d="M383 655l-209 -149h-67l209 149h67z" />
    <glyph glyph-name="mu" unicode="&#xb5;" 
d="M49 -166v646h75v-270q0 -53 6 -75.5t35 -53.5t83 -31q57 0 93 47t36 122v261h75v-480h-75v90q-40 -103 -131 -103q-78 0 -122 73v-226h-75z" />
    <glyph glyph-name="paragraph" unicode="&#xb6;" horiz-adv-x="482" 
d="M212 -118v411q-47 5 -71 12t-69.5 40.5t-45.5 134.5q0 42 16 80t43.5 62.5t61.5 34.5t88 10h188v-785h-67v716h-77v-716h-67z" />
    <glyph glyph-name="periodcentered" unicode="&#xb7;" horiz-adv-x="529" 
d="M264 294q24 0 41 -17t17 -41t-17 -41t-41 -17t-41 17t-17 41t17 41t41 17z" />
    <glyph glyph-name="periodcentered" unicode="&#x2219;" horiz-adv-x="529" 
d="M264 294q24 0 41 -17t17 -41t-17 -41t-41 -17t-41 17t-17 41t17 41t41 17z" />
    <glyph glyph-name="cedilla" unicode="&#xb8;" 
d="M276 0l-24 -54q72 -9 72 -68q0 -32 -23 -52t-61 -20q-28 0 -64 16l8 34q26 -11 50 -11q14 0 25 10t11 24q0 15 -10.5 24.5t-26.5 9.5q-12 0 -25 -4l-8 7l35 84h41z" />
    <glyph glyph-name="onesuperior" unicode="&#xb9;" horiz-adv-x="345" 
d="M235 267h-64v347h-63l6 53h121v-400z" />
    <glyph glyph-name="ordmasculine" unicode="&#xba;" horiz-adv-x="482" 
d="M242 675q63 0 107 -43t44 -106q0 -61 -44.5 -103.5t-106.5 -42.5q-64 0 -109 43t-45 106q0 60 45 103t109 43zM242 622q-40 0 -68 -27t-28 -66q0 -40 28 -68t69 -28q38 0 65 27t27 66q0 40 -27 68t-66 28zM96 274v52h289v-52h-289z" />
    <glyph glyph-name="guillemotright" unicode="&#xbb;" horiz-adv-x="411" 
d="M273 354l98 -116l-95 -119h-73l94 119l-98 116h74zM110 354l97 -116l-94 -119h-73l97 119l-97 116h70z" />
    <glyph glyph-name="onequarter" unicode="&#xbc;" horiz-adv-x="813" 
d="M235 267h-64v347h-63l6 53h121v-400zM164 0l429 667h54l-429 -667h-54zM736 0h-63v99h-143q-52 0 -52 39q0 14 12 32l158 230h68l-176 -249h136v148l60 87v-232h66v-55h-66v-99z" />
    <glyph glyph-name="onehalf" unicode="&#xbd;" horiz-adv-x="813" 
d="M235 267h-64v347h-63l6 53h121v-400zM164 0l429 667h54l-429 -667h-54zM785 56v-56h-234q-55 0 -55 36q0 17 25 39l143 116q31 26 43.5 45.5t12.5 41.5q0 30 -23 52t-55 22q-35 0 -58 -21t-23 -53q0 -29 18 -48t50 -24l-51 -42q-81 32 -81 115q0 55 42 92t106 37
q58 0 99 -37t41 -90q0 -71 -82 -133l-121 -92h203z" />
    <glyph glyph-name="threequarters" unicode="&#xbe;" horiz-adv-x="813" 
d="M38 267v56h110q95 0 95 69q0 67 -95 67h-68v34l132 117h-173v57h187q58 0 58 -42q0 -13 -4.5 -20.5t-25.5 -26.5l-83 -73q41 0 54 -5t48 -27.5t35 -82.5q0 -58 -40.5 -90.5t-111.5 -32.5h-118zM165 0l429 667h54l-429 -667h-54zM737 0h-63v99h-143q-52 0 -52 39
q0 14 12 32l158 230h68l-176 -249h136v148l60 87v-232h66v-55h-66v-99z" />
    <glyph glyph-name="questiondown" unicode="&#xbf;" horiz-adv-x="496" 
d="M259 462q24 0 41 -17t17 -41q0 -25 -17 -42t-41 -17q-25 0 -42 17t-17 42q0 24 17 41t42 17zM221 296h78v-195h-26q-65 0 -104 -33t-39 -88q0 -51 35 -87t85 -36q51 0 83.5 31t39.5 86l83 -21q-15 -85 -70.5 -131.5t-140.5 -46.5q-87 0 -146 57t-59 142q0 79 49 132
t132 62v128z" />
    <glyph glyph-name="Agrave" unicode="&#xc0;" horiz-adv-x="565" 
d="M515 0h-89v288h-254v77h254v43q0 58 -5.5 84t-34.5 67.5t-100 41.5q-147 0 -147 -185v-416h-89v412q0 127 61.5 198.5t170.5 71.5q62 0 112.5 -26.5t77 -67.5t35 -80.5t8.5 -100.5v-407zM140 858h67l209 -150h-67z" />
    <glyph glyph-name="Aacute" unicode="&#xc1;" horiz-adv-x="565" 
d="M515 0h-89v288h-254v77h254v43q0 58 -5.5 84t-34.5 67.5t-100 41.5q-147 0 -147 -185v-416h-89v412q0 127 61.5 198.5t170.5 71.5q62 0 112.5 -26.5t77 -67.5t35 -80.5t8.5 -100.5v-407zM416 858l-209 -150h-67l209 150h67z" />
    <glyph glyph-name="Acircumflex" unicode="&#xc2;" horiz-adv-x="565" 
d="M515 0h-89v288h-254v77h254v43q0 58 -5.5 84t-34.5 67.5t-100 41.5q-147 0 -147 -185v-416h-89v412q0 127 61.5 198.5t170.5 71.5q62 0 112.5 -26.5t77 -67.5t35 -80.5t8.5 -100.5v-407zM118 721l161 150l167 -150h-68l-99 89l-92 -89h-69z" />
    <glyph glyph-name="Atilde" unicode="&#xc3;" horiz-adv-x="565" 
d="M515 0h-89v288h-254v77h254v43q0 58 -5.5 84t-34.5 67.5t-100 41.5q-147 0 -147 -185v-416h-89v412q0 127 61.5 198.5t170.5 71.5q62 0 112.5 -26.5t77 -67.5t35 -80.5t8.5 -100.5v-407zM150 763l-30 31q45 55 99 55q18 0 31 -4t46 -19.5t49 -15.5q20 0 34.5 7.5
t31.5 26.5l34 -30q-46 -53 -96 -53q-21 0 -29.5 3t-45.5 19.5t-57 16.5q-33 0 -67 -37z" />
    <glyph glyph-name="Adieresis" unicode="&#xc4;" horiz-adv-x="565" 
d="M515 0h-89v288h-254v77h254v43q0 58 -5.5 84t-34.5 67.5t-100 41.5q-147 0 -147 -185v-416h-89v412q0 127 61.5 198.5t170.5 71.5q62 0 112.5 -26.5t77 -67.5t35 -80.5t8.5 -100.5v-407zM199 828q19 0 32 -13t13 -32t-13 -32t-32 -13t-32 13t-13 32t13 32t32 13zM366 830
q19 0 32 -13t13 -32q0 -20 -13 -33t-32 -13q-20 0 -33 13t-13 33q0 19 13 32t33 13z" />
    <glyph glyph-name="Aring" unicode="&#xc5;" horiz-adv-x="565" 
d="M515 0h-89v288h-254v77h254v43q0 58 -5.5 84t-34.5 67.5t-100 41.5q-147 0 -147 -185v-416h-89v412q0 127 61.5 198.5t170.5 71.5q62 0 112.5 -26.5t77 -67.5t35 -80.5t8.5 -100.5v-407zM283 914q40 0 68 -28t28 -69t-28 -69t-68 -28q-41 0 -69 28t-28 69t28 69t69 28z
M282 864q-20 0 -33.5 -13.5t-13.5 -33.5t13.5 -33.5t33.5 -13.5t33.5 13.5t13.5 33.5t-13.5 33.5t-33.5 13.5z" />
    <glyph glyph-name="AE" unicode="&#xc6;" horiz-adv-x="877" 
d="M839 76v-76h-52q-70 0 -105 7t-70 27t-57 41t-46 58v-133h-83v298h-254v76h254v49q0 84 -36 130t-103 46q-148 0 -148 -190v-409h-89v423q0 117 65 187t173 70q151 0 203 -164q94 151 297 151h51v-77h-44q-115 0 -186.5 -55t-89.5 -158h320v-79h-320q0 -36 15 -72
t49.5 -75t80.5 -57t128 -18h47z" />
    <glyph glyph-name="Ccedilla" unicode="&#xc7;" horiz-adv-x="460" 
d="M432 80v-80h-63l-22 -54q34 0 54 -18t20 -48q0 -32 -23.5 -52.5t-62.5 -20.5q-17 0 -30.5 3t-37.5 13l10 39q32 -14 52 -14q35 0 35 32q0 15 -11.5 24.5t-29.5 9.5q-8 0 -19 -3l-13 6l33 84q-131 0 -219 98t-88 234q0 80 36 151t92 112t110.5 56t133.5 15h43v-82h-30
q-73 0 -119.5 -14t-88 -49t-63.5 -84t-22 -107q0 -62 26 -115t68 -83.5t83 -41.5t104 -11h42z" />
    <glyph glyph-name="Egrave" unicode="&#xc8;" horiz-adv-x="475" 
d="M437 77v-77h-78q-159 0 -250.5 102t-91.5 230q0 143 98 239t245 96h77v-77h-44q-116 0 -192.5 -58t-84.5 -154h321v-77h-321q0 -37 13.5 -70t61.5 -93.5t192 -60.5h54zM95 858h67l209 -150h-67z" />
    <glyph glyph-name="Eacute" unicode="&#xc9;" horiz-adv-x="475" 
d="M437 77v-77h-78q-159 0 -250.5 102t-91.5 230q0 143 98 239t245 96h77v-77h-44q-116 0 -192.5 -58t-84.5 -154h321v-77h-321q0 -37 13.5 -70t61.5 -93.5t192 -60.5h54zM371 858l-209 -150h-67l209 150h67z" />
    <glyph glyph-name="Ecircumflex" unicode="&#xca;" horiz-adv-x="475" 
d="M437 77v-77h-78q-159 0 -250.5 102t-91.5 230q0 143 98 239t245 96h77v-77h-44q-116 0 -192.5 -58t-84.5 -154h321v-77h-321q0 -37 13.5 -70t61.5 -93.5t192 -60.5h54zM73 721l161 150l167 -150h-68l-99 89l-92 -89h-69z" />
    <glyph glyph-name="Edieresis" unicode="&#xcb;" horiz-adv-x="475" 
d="M437 77v-77h-78q-159 0 -250.5 102t-91.5 230q0 143 98 239t245 96h77v-77h-44q-116 0 -192.5 -58t-84.5 -154h321v-77h-321q0 -37 13.5 -70t61.5 -93.5t192 -60.5h54zM154 828q19 0 32 -13t13 -32t-13 -32t-32 -13t-32 13t-13 32t13 32t32 13zM321 830q19 0 32 -13
t13 -32q0 -20 -13 -33t-32 -13q-20 0 -33 13t-13 33q0 19 13 32t33 13z" />
    <glyph glyph-name="Igrave" unicode="&#xcc;" horiz-adv-x="235" 
d="M163 0h-89v667h89v-667zM-25 858h67l209 -150h-67z" />
    <glyph glyph-name="Iacute" unicode="&#xcd;" horiz-adv-x="235" 
d="M163 0h-89v667h89v-667zM251 858l-209 -150h-67l209 150h67z" />
    <glyph glyph-name="Icircumflex" unicode="&#xce;" horiz-adv-x="235" 
d="M162 0h-89v667h89v-667zM-47 721l161 150l167 -150h-68l-99 89l-92 -89h-69z" />
    <glyph glyph-name="Idieresis" unicode="&#xcf;" horiz-adv-x="235" 
d="M163 0h-89v667h89v-667zM45 823q16 0 27.5 -11.5t11.5 -27.5q0 -17 -11.5 -28.5t-27.5 -11.5q-17 0 -28.5 11.5t-11.5 28.5q0 16 11.5 27.5t28.5 11.5zM192 824q16 0 27.5 -11.5t11.5 -27.5q0 -17 -11.5 -28.5t-27.5 -11.5q-17 0 -28.5 11.5t-11.5 28.5q0 16 11.5 27.5
t28.5 11.5z" />
    <glyph glyph-name="Eth" unicode="&#xd0;" horiz-adv-x="584" 
d="M151 0h-89v300h-67v77h67v290h142q71 0 116 -10t103 -45t101 -112.5t43 -165.5q0 -158 -97.5 -246t-225.5 -88h-62v80h46q109 0 178 70t69 180q0 115 -72.5 187.5t-188.5 72.5h-63v-213h166v-77h-166v-300z" />
    <glyph glyph-name="Ntilde" unicode="&#xd1;" horiz-adv-x="599" 
d="M448 667h89v-584q0 -90 -68 -90q-54 0 -89 72l-229 482v-547h-89v578q0 96 70 96q57 0 92 -74l224 -474v541zM167 763l-30 31q45 55 99 55q18 0 31 -4t46 -19.5t49 -15.5q20 0 34.5 7.5t31.5 26.5l34 -30q-46 -53 -96 -53q-21 0 -29.5 3t-45.5 19.5t-57 16.5
q-33 0 -67 -37z" />
    <glyph glyph-name="Ograve" unicode="&#xd2;" horiz-adv-x="725" 
d="M361 680q146 0 246.5 -100.5t100.5 -248.5q0 -140 -102 -242t-243 -102q-144 0 -245 101t-101 245t100.5 245.5t243.5 101.5zM363 599q-105 0 -179.5 -77.5t-74.5 -185.5q0 -112 74 -190t180 -78q103 0 178 78t75 186q0 112 -73.5 189.5t-179.5 77.5zM220 858h67
l209 -150h-67z" />
    <glyph glyph-name="Oacute" unicode="&#xd3;" horiz-adv-x="725" 
d="M361 680q146 0 246.5 -100.5t100.5 -248.5q0 -140 -102 -242t-243 -102q-144 0 -245 101t-101 245t100.5 245.5t243.5 101.5zM363 599q-105 0 -179.5 -77.5t-74.5 -185.5q0 -112 74 -190t180 -78q103 0 178 78t75 186q0 112 -73.5 189.5t-179.5 77.5zM496 858l-209 -150
h-67l209 150h67z" />
    <glyph glyph-name="Ocircumflex" unicode="&#xd4;" horiz-adv-x="725" 
d="M361 680q146 0 246.5 -100.5t100.5 -248.5q0 -140 -102 -242t-243 -102q-144 0 -245 101t-101 245t100.5 245.5t243.5 101.5zM363 599q-105 0 -179.5 -77.5t-74.5 -185.5q0 -112 74 -190t180 -78q103 0 178 78t75 186q0 112 -73.5 189.5t-179.5 77.5zM199 721l161 150
l167 -150h-68l-99 89l-92 -89h-69z" />
    <glyph glyph-name="Otilde" unicode="&#xd5;" horiz-adv-x="725" 
d="M361 680q146 0 246.5 -100.5t100.5 -248.5q0 -140 -102 -242t-243 -102q-144 0 -245 101t-101 245t100.5 245.5t243.5 101.5zM363 599q-105 0 -179.5 -77.5t-74.5 -185.5q0 -112 74 -190t180 -78q103 0 178 78t75 186q0 112 -73.5 189.5t-179.5 77.5zM230 763l-30 31
q45 55 99 55q18 0 31 -4t46 -19.5t49 -15.5q20 0 34.5 7.5t31.5 26.5l34 -30q-46 -53 -96 -53q-21 0 -29.5 3t-45.5 19.5t-57 16.5q-33 0 -67 -37z" />
    <glyph glyph-name="Odieresis" unicode="&#xd6;" horiz-adv-x="725" 
d="M361 680q146 0 246.5 -100.5t100.5 -248.5q0 -140 -102 -242t-243 -102q-144 0 -245 101t-101 245t100.5 245.5t243.5 101.5zM363 599q-105 0 -179.5 -77.5t-74.5 -185.5q0 -112 74 -190t180 -78q103 0 178 78t75 186q0 112 -73.5 189.5t-179.5 77.5zM279 828
q19 0 32 -13t13 -32t-13 -32t-32 -13t-32 13t-13 32t13 32t32 13zM446 830q19 0 32 -13t13 -32q0 -20 -13 -33t-32 -13q-20 0 -33 13t-13 33q0 19 13 32t33 13z" />
    <glyph glyph-name="multiply" unicode="&#xd7;" 
d="M93 532l157 -157l158 158l33 -33l-159 -158l158 -157l-32 -32l-157 158l-158 -159l-33 33l158 158l-157 157z" />
    <glyph glyph-name="Oslash" unicode="&#xd8;" horiz-adv-x="725" 
d="M513 646l38 61h79l-60 -96q66 -51 102 -122t36 -151q0 -147 -100 -249t-245 -102q-40 0 -75 8t-74 26l-41 -65h-78l61 99q-139 112 -139 278q0 144 100.5 245.5t243.5 101.5q80 0 152 -34zM199 131l274 442q-52 26 -110 26q-105 0 -179.5 -77.5t-74.5 -185.5
q0 -121 90 -205zM528 535l-273 -441q29 -14 53.5 -20t54.5 -6q105 0 179 77.5t74 188.5q0 119 -88 201z" />
    <glyph glyph-name="Ugrave" unicode="&#xd9;" horiz-adv-x="559" 
d="M421 667h89v-419q0 -67 -14 -110.5t-63.5 -97t-153.5 -53.5q-110 0 -169 70.5t-59 176.5v433h89v-422q0 -85 37 -131t105 -46q76 0 102.5 44.5t31.5 70t5 71.5v413zM137 858h67l209 -150h-67z" />
    <glyph glyph-name="Uacute" unicode="&#xda;" horiz-adv-x="559" 
d="M421 667h89v-419q0 -67 -14 -110.5t-63.5 -97t-153.5 -53.5q-110 0 -169 70.5t-59 176.5v433h89v-422q0 -85 37 -131t105 -46q76 0 102.5 44.5t31.5 70t5 71.5v413zM413 858l-209 -150h-67l209 150h67z" />
    <glyph glyph-name="Ucircumflex" unicode="&#xdb;" horiz-adv-x="559" 
d="M421 667h89v-419q0 -67 -14 -110.5t-63.5 -97t-153.5 -53.5q-110 0 -169 70.5t-59 176.5v433h89v-422q0 -85 37 -131t105 -46q76 0 102.5 44.5t31.5 70t5 71.5v413zM116 721l161 150l167 -150h-68l-99 89l-92 -89h-69z" />
    <glyph glyph-name="Udieresis" unicode="&#xdc;" horiz-adv-x="559" 
d="M421 667h89v-419q0 -67 -14 -110.5t-63.5 -97t-153.5 -53.5q-110 0 -169 70.5t-59 176.5v433h89v-422q0 -85 37 -131t105 -46q76 0 102.5 44.5t31.5 70t5 71.5v413zM196 828q19 0 32 -13t13 -32t-13 -32t-32 -13t-32 13t-13 32t13 32t32 13zM363 830q19 0 32 -13t13 -32
q0 -20 -13 -33t-32 -13q-20 0 -33 13t-13 33q0 19 13 32t33 13z" />
    <glyph glyph-name="Yacute" unicode="&#xdd;" horiz-adv-x="509" 
d="M298 0h-89v262q-91 17 -131 70.5t-40 158.5v176h89v-177q0 -151 130 -151q125 0 125 145v183h89v-190q0 -187 -173 -215v-262zM387 858l-209 -150h-66l208 150h67z" />
    <glyph glyph-name="Thorn" unicode="&#xde;" horiz-adv-x="535" 
d="M139 579h120q102 0 148 -34t68 -80t22 -99q0 -95 -60 -154t-156 -59h-108v77h96q62 0 99 36t37 98q0 64 -37 101t-103 37h-126v-502h-89v667h89v-88z" />
    <glyph glyph-name="germandbls" unicode="&#xdf;" horiz-adv-x="564" 
d="M160 0h-80v383h-65v71h65v22q0 55 11 87.5t53 74.5t126 42q75 0 126 -40t51 -99q0 -43 -24 -73t-91 -68l46 -21q159 -73 159 -194q0 -87 -61 -136t-168 -49h-110v70h100q75 0 115.5 29t40.5 84q0 60 -34 87t-47 34.5t-67.5 35t-54.5 51.5q0 13 8 20t40.5 29.5t48.5 45.5
t16 48q0 32 -26 54t-64 22q-33 0 -58.5 -15.5t-37.5 -37.5t-15 -42.5t-3 -62.5v-452z" />
    <glyph glyph-name="agrave" unicode="&#xe0;" horiz-adv-x="536" 
d="M492 0h-80v199q0 84 -42.5 134.5t-114.5 50.5q-65 0 -110 -46t-45 -112t45 -111t112 -45q60 0 122 55v-85q-32 -27 -62 -38t-70 -11q-96 0 -163 68t-67 167q0 98 69.5 167.5t169.5 69.5q102 0 169 -70t67 -178v-215zM401 506h-67l-209 149h67z" />
    <glyph glyph-name="aacute" unicode="&#xe1;" horiz-adv-x="536" 
d="M492 0h-80v199q0 84 -42.5 134.5t-114.5 50.5q-65 0 -110 -46t-45 -112t45 -111t112 -45q60 0 122 55v-85q-32 -27 -62 -38t-70 -11q-96 0 -163 68t-67 167q0 98 69.5 167.5t169.5 69.5q102 0 169 -70t67 -178v-215zM401 655l-209 -149h-67l209 149h67z" />
    <glyph glyph-name="acircumflex" unicode="&#xe2;" horiz-adv-x="536" 
d="M492 0h-80v199q0 84 -42.5 134.5t-114.5 50.5q-65 0 -110 -46t-45 -112t45 -111t112 -45q60 0 122 55v-85q-32 -27 -62 -38t-70 -11q-96 0 -163 68t-67 167q0 98 69.5 167.5t169.5 69.5q102 0 169 -70t67 -178v-215zM104 518l161 150l167 -150h-68l-99 89l-92 -89h-69z
" />
    <glyph glyph-name="atilde" unicode="&#xe3;" horiz-adv-x="536" 
d="M492 0h-80v199q0 84 -42.5 134.5t-114.5 50.5q-65 0 -110 -46t-45 -112t45 -111t112 -45q60 0 122 55v-85q-32 -27 -62 -38t-70 -11q-96 0 -163 68t-67 167q0 98 69.5 167.5t169.5 69.5q102 0 169 -70t67 -178v-215zM136 537l-30 32q45 54 99 54q18 0 31 -4t46 -19.5
t49 -15.5q35 0 66 35l34 -31q-45 -53 -96 -53q-21 0 -29.5 3t-45.5 19.5t-57 16.5q-33 0 -67 -37z" />
    <glyph glyph-name="adieresis" unicode="&#xe4;" horiz-adv-x="536" 
d="M492 0h-80v199q0 84 -42.5 134.5t-114.5 50.5q-65 0 -110 -46t-45 -112t45 -111t112 -45q60 0 122 55v-85q-32 -27 -62 -38t-70 -11q-96 0 -163 68t-67 167q0 98 69.5 167.5t169.5 69.5q102 0 169 -70t67 -178v-215zM185 624q19 0 32 -13t13 -32t-13 -32t-32 -13t-32 13
t-13 32t13 32t32 13zM352 626q19 0 32 -13t13 -32q0 -20 -13 -33t-32 -13q-20 0 -33 13t-13 33q0 19 13 32t33 13z" />
    <glyph glyph-name="aring" unicode="&#xe5;" horiz-adv-x="536" 
d="M492 0h-80v199q0 84 -42.5 134.5t-114.5 50.5q-65 0 -110 -46t-45 -112t45 -111t112 -45q60 0 122 55v-85q-32 -27 -62 -38t-70 -11q-96 0 -163 68t-67 167q0 98 69.5 167.5t169.5 69.5q102 0 169 -70t67 -178v-215zM269 701q39 0 66.5 -27.5t27.5 -67.5q0 -39 -27 -67
t-67 -28q-39 0 -67 28t-28 67q0 40 27.5 67.5t67.5 27.5zM268 653q-20 0 -33.5 -13.5t-13.5 -33.5t13.5 -33.5t33.5 -13.5t33.5 13.5t13.5 33.5t-13.5 33.5t-33.5 13.5z" />
    <glyph glyph-name="ae" unicode="&#xe6;" horiz-adv-x="853" 
d="M777 189l59 -32q-27 -81 -85.5 -123.5t-142.5 -42.5q-134 0 -202 117q-62 -117 -205 -117q-77 0 -125.5 38t-48.5 99q0 53 31 84t113 59l170 57q-22 63 -127 63q-62 0 -128 -36l-43 56q85 52 174 52q150 0 194 -110q60 110 192 110q150 0 215 -147l-309 -144l-29 62
l234 106q-41 51 -114 51q-65 0 -109 -45t-44 -113q0 -72 47 -121t116 -49q58 0 98 30t69 96zM361 271l-147 -55q-62 -23 -83 -39t-21 -42q0 -32 30 -52t80 -20q68 0 108 41t40 112q0 23 -7 55z" />
    <glyph glyph-name="ccedilla" unicode="&#xe7;" horiz-adv-x="351" 
d="M324 71v-71h-55l-24 -54q72 -9 72 -68q0 -32 -23 -52t-61 -20q-28 0 -64 16l8 34q26 -11 50 -11q14 0 25 10t11 24q0 15 -10.5 24.5t-26.5 9.5q-12 0 -25 -4l-8 7l35 84q-40 4 -63 11.5t-59.5 33t-62.5 75t-26 107.5q0 55 24.5 104t62 76t73 37t87.5 10h60v-70h-28
q-60 0 -87 -7t-68 -41.5t-41 -106.5q0 -81 42.5 -112.5t71.5 -38.5t82 -7h28z" />
    <glyph glyph-name="egrave" unicode="&#xe8;" horiz-adv-x="504" 
d="M433 210l56 -31q-55 -188 -235 -188q-98 0 -167.5 68.5t-69.5 167.5q0 100 68 168t169 68q134 0 210 -135l-291 -190l-34 59l221 148q-38 46 -106 46q-66 0 -110 -45t-44 -114t48 -119t115 -50q63 0 107 38t63 109zM385 506h-67l-209 149h67z" />
    <glyph glyph-name="eacute" unicode="&#xe9;" horiz-adv-x="504" 
d="M433 210l56 -31q-55 -188 -235 -188q-98 0 -167.5 68.5t-69.5 167.5q0 100 68 168t169 68q134 0 210 -135l-291 -190l-34 59l221 148q-38 46 -106 46q-66 0 -110 -45t-44 -114t48 -119t115 -50q63 0 107 38t63 109zM385 655l-209 -149h-67l209 149h67z" />
    <glyph glyph-name="ecircumflex" unicode="&#xea;" horiz-adv-x="504" 
d="M433 210l56 -31q-55 -188 -235 -188q-98 0 -167.5 68.5t-69.5 167.5q0 100 68 168t169 68q134 0 210 -135l-291 -190l-34 59l221 148q-38 46 -106 46q-66 0 -110 -45t-44 -114t48 -119t115 -50q63 0 107 38t63 109zM88 518l161 150l167 -150h-68l-99 89l-92 -89h-69z" />
    <glyph glyph-name="edieresis" unicode="&#xeb;" horiz-adv-x="504" 
d="M433 210l56 -31q-55 -188 -235 -188q-98 0 -167.5 68.5t-69.5 167.5q0 100 68 168t169 68q134 0 210 -135l-291 -190l-34 59l221 148q-38 46 -106 46q-66 0 -110 -45t-44 -114t48 -119t115 -50q63 0 107 38t63 109zM169 624q19 0 32 -13t13 -32t-13 -32t-32 -13t-32 13
t-13 32t13 32t32 13zM336 626q19 0 32 -13t13 -32q0 -20 -13 -33t-32 -13q-20 0 -33 13t-13 33q0 19 13 32t33 13z" />
    <glyph glyph-name="igrave" unicode="&#xec;" horiz-adv-x="231" 
d="M163 0h-80v454h80v-454zM249 506h-67l-209 149h67z" />
    <glyph glyph-name="iacute" unicode="&#xed;" horiz-adv-x="231" 
d="M163 0h-80v454h80v-454zM249 655l-209 -149h-67l209 149h67z" />
    <glyph glyph-name="icircumflex" unicode="&#xee;" horiz-adv-x="231" 
d="M162 0h-80v454h80v-454zM-49 518l161 150l167 -150h-68l-99 89l-92 -89h-69z" />
    <glyph glyph-name="idieresis" unicode="&#xef;" horiz-adv-x="231" 
d="M163 0h-80v454h80v-454zM43 619q16 0 27.5 -11.5t11.5 -27.5q0 -17 -11.5 -28.5t-27.5 -11.5q-17 0 -28.5 11.5t-11.5 28.5q0 16 11.5 27.5t28.5 11.5zM190 620q16 0 27.5 -11.5t11.5 -27.5q0 -17 -11.5 -28.5t-27.5 -11.5q-17 0 -28.5 11.5t-11.5 28.5q0 16 11.5 27.5
t28.5 11.5z" />
    <glyph glyph-name="eth" unicode="&#xf0;" horiz-adv-x="511" 
d="M219 655l132 116l39 -45l-110 -97q111 -61 163.5 -151.5t52.5 -220.5q0 -118 -66 -192t-173 -74q-99 0 -169 69t-70 169q0 97 69.5 165.5t169.5 68.5q45 0 109 -27q-28 55 -59.5 87t-82.5 57l-132 -115l-38 44l111 98q-35 12 -70 20.5t-78 13.5l33 49q46 0 86 -9t83 -26z
M257 384q-65 0 -111 -45t-46 -111t46.5 -112.5t112.5 -46.5q61 0 106 47t45 112t-44.5 110.5t-108.5 45.5z" />
    <glyph glyph-name="ntilde" unicode="&#xf1;" horiz-adv-x="483" 
d="M438 0h-80v238q0 70 -30 108t-86 38q-117 0 -117 -150v-234h-80v256q0 93 54 150t144 57q88 0 141.5 -56.5t53.5 -149.5v-257zM108 537l-30 32q45 54 99 54q18 0 31 -4t46 -19.5t49 -15.5q35 0 66 35l34 -31q-45 -53 -96 -53q-21 0 -29.5 3t-45.5 19.5t-57 16.5
q-33 0 -67 -37z" />
    <glyph glyph-name="ograve" unicode="&#xf2;" horiz-adv-x="509" 
d="M257 463q97 0 166 -70t69 -169q0 -95 -69 -164t-166 -69q-100 0 -170 69t-70 169q0 96 70 165t170 69zM257 384q-65 0 -111 -45t-46 -110q0 -68 45.5 -113.5t113.5 -45.5q60 0 105 46t45 108q0 67 -44.5 113.5t-107.5 46.5zM388 506h-67l-209 149h67z" />
    <glyph glyph-name="oacute" unicode="&#xf3;" horiz-adv-x="509" 
d="M257 463q97 0 166 -70t69 -169q0 -95 -69 -164t-166 -69q-100 0 -170 69t-70 169q0 96 70 165t170 69zM257 384q-65 0 -111 -45t-46 -110q0 -68 45.5 -113.5t113.5 -45.5q60 0 105 46t45 108q0 67 -44.5 113.5t-107.5 46.5zM388 655l-209 -149h-67l209 149h67z" />
    <glyph glyph-name="ocircumflex" unicode="&#xf4;" horiz-adv-x="509" 
d="M257 463q97 0 166 -70t69 -169q0 -95 -69 -164t-166 -69q-100 0 -170 69t-70 169q0 96 70 165t170 69zM257 384q-65 0 -111 -45t-46 -110q0 -68 45.5 -113.5t113.5 -45.5q60 0 105 46t45 108q0 67 -44.5 113.5t-107.5 46.5zM91 518l161 150l167 -150h-68l-99 89l-92 -89
h-69z" />
    <glyph glyph-name="otilde" unicode="&#xf5;" horiz-adv-x="509" 
d="M257 463q97 0 166 -70t69 -169q0 -95 -69 -164t-166 -69q-100 0 -170 69t-70 169q0 96 70 165t170 69zM257 384q-65 0 -111 -45t-46 -110q0 -68 45.5 -113.5t113.5 -45.5q60 0 105 46t45 108q0 67 -44.5 113.5t-107.5 46.5zM122 537l-30 32q45 54 99 54q18 0 31 -4
t46 -19.5t49 -15.5q35 0 66 35l34 -31q-45 -53 -96 -53q-21 0 -29.5 3t-45.5 19.5t-57 16.5q-33 0 -67 -37z" />
    <glyph glyph-name="odieresis" unicode="&#xf6;" horiz-adv-x="509" 
d="M257 463q97 0 166 -70t69 -169q0 -95 -69 -164t-166 -69q-100 0 -170 69t-70 169q0 96 70 165t170 69zM257 384q-65 0 -111 -45t-46 -110q0 -68 45.5 -113.5t113.5 -45.5q60 0 105 46t45 108q0 67 -44.5 113.5t-107.5 46.5zM171 624q19 0 32 -13t13 -32t-13 -32t-32 -13
t-32 13t-13 32t13 32t32 13zM338 626q19 0 32 -13t13 -32q0 -20 -13 -33t-32 -13q-20 0 -33 13t-13 33q0 19 13 32t33 13z" />
    <glyph glyph-name="divide" unicode="&#xf7;" 
d="M22 365h457v-45h-457v45zM251 567q17 0 29 -12t12 -29t-12 -29t-29 -12t-29 12t-12 29t12 29t29 12zM250 200q17 0 29 -12t12 -29t-12 -29t-29 -12t-29 12t-12 29t12 29t29 12z" />
    <glyph glyph-name="oslash" unicode="&#xf8;" horiz-adv-x="509" 
d="M352 443l42 69h61l-58 -96q95 -75 95 -192q0 -95 -69 -164t-166 -69q-30 0 -50 4t-50 17l-40 -67h-63l58 93q-95 79 -95 191q0 96 70 165t170 69q48 0 95 -20zM152 110l161 263q-28 11 -56 11q-65 0 -111 -45t-46 -110q0 -68 52 -119zM357 345l-159 -264q17 -7 29 -9
t32 -2q60 0 105 46t45 108q0 71 -52 121z" />
    <glyph glyph-name="ugrave" unicode="&#xf9;" horiz-adv-x="483" 
d="M358 454h80v-258q0 -93 -54 -149t-143 -56q-88 0 -142 56t-54 149v258h80v-239q0 -69 30 -107t85 -38q31 0 56.5 14t43.5 42.5t18 95.5v232zM375 506h-67l-209 149h67z" />
    <glyph glyph-name="uacute" unicode="&#xfa;" horiz-adv-x="483" 
d="M358 454h80v-258q0 -93 -54 -149t-143 -56q-88 0 -142 56t-54 149v258h80v-239q0 -69 30 -107t85 -38q31 0 56.5 14t43.5 42.5t18 95.5v232zM375 655l-209 -149h-67l209 149h67z" />
    <glyph glyph-name="ucircumflex" unicode="&#xfb;" horiz-adv-x="483" 
d="M358 454h80v-258q0 -93 -54 -149t-143 -56q-88 0 -142 56t-54 149v258h80v-239q0 -69 30 -107t85 -38q31 0 56.5 14t43.5 42.5t18 95.5v232zM77 518l161 150l167 -150h-68l-99 89l-92 -89h-69z" />
    <glyph glyph-name="udieresis" unicode="&#xfc;" horiz-adv-x="483" 
d="M358 454h80v-258q0 -93 -54 -149t-143 -56q-88 0 -142 56t-54 149v258h80v-239q0 -69 30 -107t85 -38q31 0 56.5 14t43.5 42.5t18 95.5v232zM158 624q19 0 32 -13t13 -32t-13 -32t-32 -13t-32 13t-13 32t13 32t32 13zM325 626q19 0 32 -13t13 -32q0 -20 -13 -33t-32 -13
q-20 0 -33 13t-13 33q0 19 13 32t33 13z" />
    <glyph glyph-name="yacute" unicode="&#xfd;" horiz-adv-x="477" 
d="M351 454h80v-258q0 -173 -150 -202v-208h-80v208q-156 20 -156 197v263h80v-258q0 -61 30 -95t84 -34t83 34.5t29 98.5v254zM371 655l-208 -149h-67l209 149h66z" />
    <glyph glyph-name="thorn" unicode="&#xfe;" horiz-adv-x="537" 
d="M45 667h80v-208h140q78 0 129.5 -19t88.5 -80t37 -137q0 -95 -68 -164t-162 -69q-70 0 -132 49v87q35 -32 63 -44.5t62 -12.5q66 0 110 45t44 113q0 43 -18 80t-50 59.5t-99 22.5h-145v-602h-80v880z" />
    <glyph glyph-name="ydieresis" unicode="&#xff;" horiz-adv-x="477" 
d="M351 454h80v-258q0 -173 -150 -202v-208h-80v208q-156 20 -156 197v263h80v-258q0 -61 30 -95t84 -34t83 34.5t29 98.5v254zM155 624q19 0 32 -13t13 -32t-13 -32t-32 -13t-32 13t-13 32t13 32t32 13zM322 626q19 0 32 -13t13 -32q0 -20 -13 -33t-32 -13q-20 0 -33 13
t-13 33q0 19 13 32t33 13z" />
    <glyph glyph-name="dotlessi" unicode="&#x131;" horiz-adv-x="231" 
d="M163 0h-80v454h80v-454z" />
    <glyph glyph-name="Lslash" unicode="&#x141;" horiz-adv-x="484" 
d="M464 77v-77h-122q-118 0 -171.5 54.5t-53.5 174.5v59l-79 -61v82l79 61v297h89v-248l163 126v-81l-163 -126v-78q0 -66 9 -98.5t31 -52t49.5 -26t76.5 -6.5h92z" />
    <glyph glyph-name="lslash" unicode="&#x142;" horiz-adv-x="267" 
d="M173 0h-80v284l-66 -51v67l66 51v316h80v-270l67 50v-67l-67 -51v-329z" />
    <glyph glyph-name="OE" unicode="&#x152;" horiz-adv-x="1062" 
d="M1024 77v-77h-56q-120 0 -188.5 38t-119.5 134q-49 -89 -126 -137t-172 -48q-142 0 -243.5 101.5t-101.5 243.5q0 144 101 246t244 102q96 0 173 -49t125 -142q53 94 126.5 136t187.5 42h50v-78h-35q-243 0 -284 -214h319v-77h-319q7 -72 44 -123.5t91 -74.5t142 -23h42z
M367 599q-108 0 -182 -77t-74 -189q0 -109 74 -186.5t178 -77.5q103 0 177 77.5t74 186.5q0 108 -73 187t-174 79z" />
    <glyph glyph-name="oe" unicode="&#x153;" horiz-adv-x="888" 
d="M811 190l61 -35q-64 -164 -233 -164q-124 0 -193 115q-68 -115 -196 -115q-96 0 -164.5 69.5t-68.5 165.5q0 99 68 168t166 69q67 0 118.5 -31t76.5 -87q60 118 191 118q157 0 227 -162l-312 -145l-30 60l242 110q-18 29 -52 47t-72 18q-66 0 -110.5 -45.5t-44.5 -113.5
q0 -71 47 -120t116 -49q57 0 100.5 33.5t62.5 93.5zM254 384q-64 0 -109 -46t-45 -111t45 -111t109 -46q63 0 108 46t45 111t-45 111t-108 46z" />
    <glyph glyph-name="Scaron" unicode="&#x160;" horiz-adv-x="519" 
d="M39 0v77h209q141 0 141 95q0 61 -75 97l-167 79q-110 52 -110 155q0 164 207 164h203v-77h-179q-48 0 -70 -4t-45.5 -23t-23.5 -61q0 -32 15 -51t54 -37l176 -81q107 -50 107 -160q0 -173 -208 -173h-234zM95 850h69l92 -89l99 89h68l-167 -150z" />
    <glyph glyph-name="scaron" unicode="&#x161;" horiz-adv-x="447" 
d="M48 0v70h179h10q39 0 49 1.5t26.5 10t16.5 38.5q0 34 -41 48l-169 60q-48 17 -68.5 42.5t-20.5 68.5q0 115 166 115h182v-70h-194q-73 0 -73 -51q0 -32 42 -46l158 -56q56 -19 78.5 -44.5t22.5 -68.5q0 -118 -151 -118h-213zM59 646h69l92 -89l99 89h68l-167 -150z" />
    <glyph glyph-name="Ydieresis" unicode="&#x178;" horiz-adv-x="509" 
d="M298 0h-89v262q-91 17 -131 70.5t-40 158.5v176h89v-177q0 -151 130 -151q125 0 125 145v183h89v-190q0 -187 -173 -215v-262zM171 828q19 0 32 -13t13 -32t-13 -32t-32 -13t-32 13t-13 32t13 32t32 13zM338 830q19 0 32 -13t13 -32q0 -20 -13 -33t-32 -13q-20 0 -33 13
t-13 33q0 19 13 32t33 13z" />
    <glyph glyph-name="Zcaron" unicode="&#x17d;" horiz-adv-x="533" 
d="M495 77v-77h-361q-96 0 -96 67q0 31 31 75l335 448h-329v77h322q94 0 94 -67q0 -20 -8 -38t-32 -51l-324 -434h368zM102 850h69l92 -89l99 89h68l-167 -150z" />
    <glyph glyph-name="zcaron" unicode="&#x17f;" horiz-adv-x="413" 
d="M57 116l207 239q11 13 12.5 15t1.5 6q0 7 -25 7h-205v70l250 1q78 0 78 -61q0 -18 -5 -28t-29 -37l-199 -234q-11 -14 -11 -18q0 -6 24 -6h230v-70h-282q-77 0 -77 56q0 26 30 60zM43 646h69l92 -89l99 89h68l-167 -150z" />
    <glyph glyph-name="florin" unicode="&#x192;" horiz-adv-x="530" 
d="M252 453h-67l11 63h67l7 41q16 86 70.5 131t143.5 45h42l-10 -69h-29q-117 0 -137 -110l-7 -38h122l-12 -63h-121l-74 -410q-15 -86 -69 -131t-144 -45h-42l10 69h28q61 0 94 26.5t43 83.5z" />
    <glyph glyph-name="hungarumlaut" unicode="&#x2ba;" 
d="M318 646l-177 -127h-57l178 127h56zM465 646l-178 -127h-56l177 127h57z" />
    <glyph glyph-name="circumflex" unicode="&#x2c6;" 
d="M86 518l161 150l167 -150h-68l-99 89l-92 -89h-69z" />
    <glyph glyph-name="caron" unicode="&#x2c7;" 
d="M86 646h69l92 -89l99 89h68l-167 -150z" />
    <glyph glyph-name="breve" unicode="&#x2d8;" 
d="M351 648h45q0 -60 -39.5 -94.5t-106.5 -34.5t-106.5 34.5t-39.5 94.5h45q11 -44 33.5 -62.5t67.5 -18.5t67.5 18.5t33.5 62.5z" />
    <glyph glyph-name="dotaccent" unicode="&#x2d9;" 
d="M250 624q19 0 32 -13t13 -32t-13 -32t-32 -13t-32 13t-13 32t13 32t32 13z" />
    <glyph glyph-name="ring" unicode="&#x2da;" 
d="M250 701q39 0 66.5 -27.5t27.5 -67.5q0 -39 -27 -67t-67 -28q-39 0 -67 28t-28 67q0 40 27.5 67.5t67.5 27.5zM249 653q-20 0 -33.5 -13.5t-13.5 -33.5t13.5 -33.5t33.5 -13.5t33.5 13.5t13.5 33.5t-13.5 33.5t-33.5 13.5z" />
    <glyph glyph-name="ogonek" unicode="&#x2db;" 
d="M303 0v-39h-10q-54 0 -54 -42q0 -43 54 -43h10v-39h-14q-44 0 -70.5 22.5t-26.5 59.5q0 35 27 58t70 23h14z" />
    <glyph glyph-name="tilde" unicode="&#x2dc;" 
d="M117 537l-30 32q45 54 99 54q18 0 31 -4t46 -19.5t49 -15.5q35 0 66 35l34 -31q-45 -53 -96 -53q-21 0 -29.5 3t-45.5 19.5t-57 16.5q-33 0 -67 -37z" />
    <glyph glyph-name="summation" unicode="&#x3a3;" horiz-adv-x="667" 
d="M599 750v-231h-75l-8 155h-390l248 -405l-248 -443h399l5 156h79v-232h-575v88l243 431l-243 395v86h565z" />
    <glyph glyph-name="Omega" unicode="&#x3a9;" horiz-adv-x="666" 
d="M27 0v72h179q-181 105 -181 292q0 135 89 227t219 92q129 0 218 -92t89 -227q0 -187 -181 -292h179v-72h-261v67q87 48 133 121t46 162q0 110 -64 185t-160 75q-93 0 -158 -75t-65 -184q0 -186 179 -284v-67h-261z" />
    <glyph glyph-name="pi" unicode="&#x3c0;" horiz-adv-x="561" 
d="M91 0v416h-72v63h523v-63h-72v-416h-78v416h-223v-416h-78z" />
    <glyph glyph-name="endash" unicode="&#x2013;" horiz-adv-x="530" 
d="M68 204v64h393v-64h-393z" />
    <glyph glyph-name="emdash" unicode="&#x2014;" horiz-adv-x="633" 
d="M0 204v64h633v-64h-633z" />
    <glyph glyph-name="quoteleft" unicode="&#x2018;" horiz-adv-x="182" 
d="M40 500l46 167h56l-28 -167h-74z" />
    <glyph glyph-name="quoteright" unicode="&#x2019;" horiz-adv-x="182" 
d="M142 667l-47 -167h-55l28 167h74z" />
    <glyph glyph-name="quotesinglbase" unicode="&#x201a;" horiz-adv-x="182" 
d="M142 79l-47 -167h-55l28 167h74z" />
    <glyph glyph-name="quotedblleft" unicode="&#x201c;" horiz-adv-x="301" 
d="M159 500l47 167h55l-28 -167h-74zM40 500l47 167h55l-28 -167h-74z" />
    <glyph glyph-name="quotedblright" unicode="&#x201d;" horiz-adv-x="301" 
d="M261 667l-46 -167h-56l28 167h74zM142 667l-47 -167h-55l28 167h74z" />
    <glyph glyph-name="quotedblbase" unicode="&#x201e;" horiz-adv-x="301" 
d="M261 79l-46 -167h-56l28 167h74zM142 79l-47 -167h-55l28 167h74z" />
    <glyph glyph-name="dagger" unicode="&#x2020;" horiz-adv-x="482" 
d="M201 412h-172v72h172v183h80v-183h171v-72h-171v-554h-80v554z" />
    <glyph glyph-name="daggerdbl" unicode="&#x2021;" horiz-adv-x="482" 
d="M201 418h-172v72h172v177h80v-177h171v-72h-171v-312h171v-72h-171v-176h-80v176h-172v72h172v312z" />
    <glyph glyph-name="bullet" unicode="&#x2022;" horiz-adv-x="667" 
d="M336 477q57 0 97 -40t40 -98q0 -57 -40 -98t-97 -41q-59 0 -99.5 40.5t-40.5 98.5q0 57 40.5 97.5t99.5 40.5z" />
    <glyph glyph-name="ellipsis" unicode="&#x2026;" horiz-adv-x="590" 
d="M98 107q24 0 41 -17t17 -41t-17 -41t-41 -17t-41 17t-17 41t17 41t41 17zM295 107q24 0 41 -17t17 -41t-17 -41t-41 -17t-41 17t-17 41t17 41t41 17zM491 107q24 0 41 -17t17 -41t-17 -41t-41 -17t-41 17t-17 41t17 41t41 17z" />
    <glyph glyph-name="perthousand" unicode="&#x2030;" horiz-adv-x="1049" 
d="M111 0l429 667h54l-429 -667h-54zM192 674q63 0 107 -44t44 -108q0 -63 -44 -107t-107 -44t-107.5 44.5t-44.5 106.5q0 63 44.5 107.5t107.5 44.5zM192 610q-36 0 -62 -25t-26 -62t25.5 -62.5t62.5 -25.5q36 0 61.5 25.5t25.5 62.5q0 36 -25.5 61.5t-61.5 25.5zM514 294
q63 0 107.5 -44.5t44.5 -107.5t-44.5 -107.5t-107.5 -44.5q-64 0 -108.5 44.5t-44.5 107.5t44.5 107.5t108.5 44.5zM514 230q-37 0 -63 -25t-26 -63q0 -36 26 -62t63 -26t62.5 25.5t25.5 62.5q0 36 -26 62t-62 26zM857 294q63 0 107.5 -44.5t44.5 -107.5t-44.5 -107.5
t-107.5 -44.5t-107.5 44.5t-44.5 107.5t44.5 107.5t107.5 44.5zM857 230q-37 0 -62.5 -25.5t-25.5 -62.5t25.5 -62.5t62.5 -25.5t62.5 25.5t25.5 62.5t-25.5 62.5t-62.5 25.5z" />
    <glyph glyph-name="guilsinglleft" unicode="&#x2039;" horiz-adv-x="247" 
d="M137 119l-97 116l94 119h73l-97 -119l97 -116h-70z" />
    <glyph glyph-name="guilsinglright" unicode="&#x203a;" horiz-adv-x="247" 
d="M110 354l97 -116l-94 -119h-73l97 119l-97 116h70z" />
    <glyph glyph-name="trademark" unicode="&#x2122;" horiz-adv-x="850" 
d="M196 267h-63v348h-105v52h273v-52h-105v-348zM822 267h-62l-39 320l-90 -289q-12 -35 -42 -35q-31 0 -44 45l-86 281l-40 -322h-62l45 350q6 54 52 54q43 0 58 -47l78 -262l81 258q16 51 59 51q24 0 36 -12.5t16 -42.5z" />
    <glyph glyph-name="partialdiff" unicode="&#x2202;" 
d="M83 604l10 66q86 -11 142.5 -35t112 -76.5t88.5 -135.5t33 -182q0 -114 -60 -183t-158 -69q-92 0 -156 65t-64 160q0 91 59 156t143 65q53 0 82 -14t68 -59l-33 75q-6 15 -28 43t-52.5 53.5t-81 44t-105.5 26.5zM256 372q-63 0 -107 -45t-44 -112q0 -66 42 -113t102 -47
q62 0 103.5 45.5t41.5 115.5q0 68 -39 112t-99 44z" />
    <glyph glyph-name="Delta" unicode="&#x2206;" horiz-adv-x="625" 
d="M6 0l263 667h85l264 -667h-612zM113 72h396l-197 506z" />
    <glyph glyph-name="product" unicode="&#x220f;" horiz-adv-x="667" 
d="M26 750h614v-67h-73v-866h73v-67h-223v67h75v866h-318v-866h74v-67h-222v67h74v866h-74v67z" />
    <glyph glyph-name="minus" unicode="&#x2212;" 
d="M22 365h457v-45h-457v45z" />
    <glyph glyph-name="fraction" unicode="&#x2215;" horiz-adv-x="123" 
d="M-180 0l428 667h55l-429 -667h-54z" />
    <glyph glyph-name="radical" unicode="&#x221a;" horiz-adv-x="667" 
d="M667 827v-69h-190l-223 -758h-90l-83 290h-81v69h129l42 -137l8 -32l15 -68l5 -19l1 -6l1 -5l2 -6h4l10 44l21 79l8 34l25 89l32 108l113 387h251z" />
    <glyph glyph-name="infinity" unicode="&#x221e;" horiz-adv-x="667" 
d="M335 299q-77 -110 -166 -110q-66 0 -108 42t-42 109t42 109t108 42q89 0 164 -110q39 59 77.5 84.5t89.5 25.5q66 0 107 -42t41 -110q0 -66 -41 -108t-106 -42q-93 0 -166 110zM364 340q33 -52 63.5 -74.5t66.5 -22.5q41 0 66.5 27.5t25.5 70.5q0 42 -26 69t-67 27
q-55 0 -100 -56l-20 -28zM303 340q-33 51 -64 74t-66 23q-41 0 -66.5 -27.5t-25.5 -70.5q0 -42 26 -69t67 -27q55 0 100 56l20 28z" />
    <glyph glyph-name="integral" unicode="&#x222b;" 
d="M93 -239l16 77q21 -10 41 -10t33 9t18 26t5 47v44v579l1 84q0 63 36 98t99 35q28 0 66 -10l-17 -78q-21 10 -41 10q-41 0 -48.5 -24.5t-7.5 -76.5v-601v-30v-21q0 -35 -1 -43.5t-8 -42t-45.5 -57.5t-99.5 -24q-25 0 -47 9z" />
    <glyph glyph-name="approxequal" unicode="&#x2248;" 
d="M56 348l-46 31q26 57 60.5 86t76.5 29q19 0 46.5 -9t68.5 -29.5t58.5 -26.5t33.5 -6q28 0 45.5 13.5t44.5 55.5l45 -32q-50 -114 -144 -114q-14 0 -35 6t-37 14t-58.5 29t-71.5 21q-26 0 -44 -14t-43 -54zM56 172l-46 31q26 57 60.5 86t76.5 29q22 0 45.5 -8t67 -29.5
t61 -27.5t33.5 -6q28 0 46 14t44 55l45 -32q-50 -114 -144 -114q-16 0 -39 7t-39.5 16t-55 28t-68.5 19q-26 0 -44 -14t-43 -54z" />
    <glyph glyph-name="notequal" unicode="&#x2260;" 
d="M269 444l62 124l58 -26l-49 -98h127v-72h-157l-48 -97h204v-72h-231l-61 -122l-58 25l47 97h-130v72h158l48 97h-206v72h236z" />
    <glyph glyph-name="lessequal" unicode="&#x2264;" 
d="M466 600v-82l-338 -130l338 -130v-82l-433 175v75zM466 147v-76h-433v76h433z" />
    <glyph glyph-name="greaterequal" unicode="&#x2265;" 
d="M33 176v82l338 130l-338 130v82l433 -174v-75zM33 71v76h433v-76h-433z" />
    <glyph glyph-name="lozenge" unicode="&#x25ca;" horiz-adv-x="667" 
d="M334 693l259 -359l-259 -360l-260 360zM334 604l-197 -270l197 -271l197 271z" />
    <glyph glyph-name="apple" unicode="&#xf000;" horiz-adv-x="667" 
d="M481 691v-10q0 -65 -45 -114t-104 -49q0 72 40 118t109 55zM624 457q-43 -33 -62 -66t-19 -73q0 -51 26 -90t74 -59q-39 -95 -83.5 -145.5t-88.5 -50.5q-16 0 -36 8.5t-35.5 15t-44.5 6.5q-30 0 -40.5 -3.5t-40.5 -15.5t-47 -12q-66 0 -130 111t-64 224q0 97 52 158
t135 61q34 0 72.5 -15t51.5 -15q18 0 49 12t49 16t41 4q87 0 141 -71z" />
    <glyph glyph-name="fi" unicode="&#xf001;" horiz-adv-x="473" 
d="M125 0h-80v486q0 181 182 181h43v-69h-27q-118 0 -118 -111v-35h145v-70h-145v-382zM399 0h-80v452h80v-452zM360 642q23 0 40 -17t17 -40q0 -24 -17 -41t-40 -17q-24 0 -41 17t-17 41q0 23 17 40t41 17z" />
    <glyph glyph-name="fl" unicode="&#xf002;" horiz-adv-x="463" 
d="M125 0h-80v486q0 181 182 181h43v-69h-27q-118 0 -118 -111v-35h145v-70h-145v-382zM399 0h-80v667h80v-667z" />
    </font>
</defs>
</svg>
